<mxfile host="app.diagrams.net" modified="2023-09-16T14:10:08.741Z" agent="Mozilla/5.0 (Windows NT 10.0; Win64; x64) AppleWebKit/537.36 (KHTML, like Gecko) Chrome/116.0.0.0 Safari/537.36" etag="2-T3My21EyCBi7JsjFNx" version="21.7.5" type="device">
  <diagram name="PÃ¡gina-1" id="no7r9uAd8UwB2hxU71B2">
    <mxGraphModel dx="1629" dy="841" grid="1" gridSize="10" guides="1" tooltips="1" connect="1" arrows="1" fold="1" page="1" pageScale="1" pageWidth="827" pageHeight="1169" math="0" shadow="0">
      <root>
        <mxCell id="0" />
        <mxCell id="1" parent="0" />
        <mxCell id="9snhWBf093I3BnCHHLgs-52" value="" style="shape=image;verticalLabelPosition=bottom;labelBackgroundColor=default;verticalAlign=top;aspect=fixed;imageAspect=0;image=data:image/png,iVBORw0KGgoAAAANSUhEUgAAArgAAAJ7CAYAAAAIvOI1AAAgAElEQVR4Aey9i5McxZXv3//AL+JG+F7fuLob6/Cyi1k7vLE//1bysOv1rl/YeI3BXhmMwXjwDLIB87AtDMJGIAkGoRmQEA8hXoPBkgGBpAZJBkkeQLz1mEFIMxIwEnoykmakeT9ar/OLk1VZdSo7q/pV3dPT/Z2IjMrKysfJkyczP30quycxODhICNABbAA2EG4DQzQ4WNwwMDhE1ReGaWBwvMMIDQyaQcpkPquU+1EaGIwv9A+OUunDGPUPljKkqH+wPEPfwBjJ0Ns/Sjoc6xshHY72DpMOPceGqOBwdJC6EcpOB+T+JcI3NWz40A1sADbANlBcuOX6qw9uuc8SJMcrbgNWKYvteSWkxQe3DMqlh1tus5Rwy22VJ9xquSTg6riGXL5qyNVXDbrjcS0YrOOA8wquA4ALzzU897CBLG0AgFscAJcgOV5xG6xKWWzPKyENgJs7IJc34DLoarA1rxJ0bbCroRdX39s9kXXhAe6Ds5+kht8uoEv+q45mXXsXTbv4Gtq+vZ1e3/AG/eS/aunGabPo4u/W0l033Eecl8Py5r9kuTHCAwgPIGxg4tsAABeAWwlQK/sAwK1EwI3y5mroNWEX9/5xjkrRhQe4d/7mfrrhmt/T1ve20sMPPkrTfzWDUqkU9fT00E+mXkZ/Wf0SvfPWuzTt0mto3vRFdM+Mx+jeW54A4ML7BxuoGhsA4AJwJRxWQhyAW8mAmw3oauAt5FopQFhp/fAA98af304NtzUqqO3u7qYPP/yQtm3bRu3t7Sre399PHH5Z9yu69ic3U8P1D9J9t/wRcFM1cAMP7MT3wBY6hgBcAG4lQK3sAwC3GgBXg27U8YVCABdlg1/uKxd9eID76ENP0EP3P0IHDx6kJ554gr7+9W/R//n039L/+d9/R9///g8ouTJJ+/fvp1kz59CTTyyhX1x2Lc274WEALgAXNlA1NgDABeBKOKyEOAC32gBXwm4c8XKBOciRDtke4A4PD9PQ0BBdd9119L8//Tf0xbMm09f+7Tz61tenquuZ//D/0dw776LR0VGV7+k/P0vX//TWcYWbb37zm5RIJLwwZ86cUHmam5upvr5ePed8n/3sZ0PzlsJTx7JI2bVstrbZk67l5X5wOVu+uNJYP1qXa9euDcjJbetnuj2WTfaFZdTPcC3Ua1pO5QG4ANxKgFrZBwAuALf8vzQXB4hXYx0e4B47doySyST9j//xP+krNd+hc79xIZ37jR/SOd+YSud860d0zrcuorP+YTJt3ryZ9uzZQ5defDldd+lt4woyDLgMYNlAlATcbPIXOw8DbbYgKAG32HJx/Sbgsp5luwy0Mo3vWUaZB/FyAtO4ZAHgAnAlHFZCHIALwAXgVir8eoD70Ucf0dSpU+nMM/6JLr7gGpr63V/S9771Mzr3Wz+h73yDw8X0lZrzaObM2+idd96hq664ji6betW4Qg0ANy5wCdaTCXAZXhlq9YcLAG5Qf5UL9wBcAG4lQK3sAwAXgAvArXjAZQ/uP//Tl+iqab+hO255jGbecD/N+M3ddMN1t9MNv+Ywh379q1vo57W/VF824y+irVkd/TNh/Npav1LnuHwNr19181V7/ziug87LVx1ncJDezCjA1fXwlUFMenBlXMMcQ5ouo+WRr+f5uQYXlkfnlbLp59lcuVyYB5f7petn+WSfWSbtPdVxKY+sU9fBV90nfq7TZZ+kzFonnKbbkM85LuUH4FYD4BYfbsP+0UPUP5iwAWeu+W11lDZN/t7seMUl9Om4lEWnVdoVgAvABeBWBeDW1JxNN1z/B7p71lKadcNj9IfpDLmNdNNvG2nG9Lvo+mtm0rXX/IY++eQTdVRh/t0LPOgzAYjvGaQkAPI9A5N+xiClyzEkSThjiDPhjvNyms4nQdCsW7ej6+cyWhYZ5/q4rAZAvtcAaQM3fs5B18t1mm3pZ1FXLsft6iD7JOvnOqIAl8vrsiwH33MZrl+nazn4ue4bp/Fzsy1Ol300y+i6ZB7Wk+4HX7UudV5cJyoAlwZqJZDawFI+N+Nx5LfVUdo0CZLjFbeBq5TF9rwS0jIDLv93smz/nW/8/8ms1P+lLJv2AISVCoSV1i/viMKuXbto5syZ9P3vXkR3TP8jXXPxAvrZBbfSJRfcTD/54Qy6+IfT6Wtf+SE9+ujjtGHDBvq3f/ounTvlcg/0bBCjYUs/k1Akn0mA03klWDGU8T0/Y5jSeWS6TpPldBpfGebCANeEPC2bhlBZD7fJz2Uwy3N+CX0maPJzG4Byum5btin1I/sn4zq/1gm3yXVpvfFzllPKzXHOr8vqqxwnWxucT8pv+yCg68IVcGtCadS9DSyLnd/WZmnTJEiOV9wGq1IW2/NKSIuGVwms2UCuzF94PBvYHK88gNxKg8FK7I8HuGNjY+rLY//0hX+mub9/nP4w7RGqm3oH1f5oJl0y9UY67ztX0Nf+41z1M2JHjx6lu5sW0rTzbk+DIwk0JqwxOGnYk88kwOnyDFYaSHVcX3UeDXP6nq9hQJYL4EqI5jpZVp1ma1O2n21cAqIsI/Wi06V+ZP9kXOdl+Ti/vOc6OU2Cq35uu8p8tja4jK6T4wDc8YJY7WGNu31db+mvNrAE4ErQLFbcBquyLdvzSkjLHnAZWDNBbuFQO0pOHeMFrrm2C9CtRDCslD55gMvQunv3blq3bj394Hs/obof3EyXnTeTfnjOb+irNRfSN772PXr77XfU0YS9e/fSbTNvp0u+/nsPpGygxBCkgZYBS0IRx2UZhiSdl9MZ1OQ9P2coZODS5cJgk+uW+Th/FOBqeOV83IYGa90OXzXEMfxxu/JZPvEwwOW6uQ1ZZxTgSp1yH2VfdB26LdaJqXedR14zAS7XIWXUupF1IB43dNrqkwBqe55vmqy3tHEAroTKUsZtsCrbtz2vhLTM0JoJauXzeAA3V8gc7/yA3EoBwkrrhwe4X5sylX5Zdx2NjIzQvn37aPnzK2nm72fTrJl30KpVa1Taxx9/TN/7xk/oW1/9IX3x775Gl59zZwDETKhhEGK44isHCax8b8uv80qA4nx8b8Ibw6DOz1cNnhqm9TMGuyjAlTLKNjiu65DymO1ye2ZfMt3LNrmNqHajAJdlkXJqWWT9Wi9aj7pPfJVjomXmvur+aiiWZcwPD7J9zsdt67pwzRcysykn4TOb/LnkkXWXLl65gCthUceHyOmvvh/vqwRWUxb5bKLEJbyGySzzZI5n8uLGA7jsxR1vaM2lfQBupYFhpfTHA9ypk2fRvDvupYGBAdq4cZP6z2WHDx9WYPvcc8/T9u3b1ZfLrqj9FV005Q66/Gvz6boLHokEGYaduACHgcsGY4XWL2Gu0LpKXZ5BU8JrqdtHe7kAYzHySvCMu35Zd+nilQm4JizKe4ZceT/ecQZBmwxhgFiu6TZYtclqyxeeBsANA19AbqVAYSX1wwPcuq89QF/94sV06y130IUXXE5f/dIFxB7bjRs30tdrfkRXXHYdXXPVdDr781Ppsq800RVfX0RXfntxJMDGCbhx1iXBDIAbNxihPmlfxY1L8CyG3mX9pYkDcG1wWQ5pNjgs5zQbpNrkteULT9MeWnksQcf1s/ivYVBZjukA3UoCxIneFw9wrz73EbrynIfpx19uoIumzKEL/mUG/eSCq+nC8+voPz5fT7X/cQ9NnTKLLvvqXXTVuQ/TVec+Qnff8ELRAZcBlOG2GN5bhg8AbjHACHUWF2y1fiV06rQ4r7L+0sQBuOUAszYZbHBoS+OytvRSp4VBqilHWD57ugmvDLdmWvz35QiyUTIBcic6GFaK/B7glmZDjnPzRV0Ys2q2ARM4i6ELs43i3tvgltOK/SsKudYfJmd4ug0YdVq5HVHQctmuJhza7rmcLb3UaTZAtclgyxeeFj+8ZgPIUTBZjs8AuJUCiBO9HwDcwWKAAeoEfBfTBmzQV4z2bO3INN2mTMs/HgaIuQJosfOHyRmeboNFnTaRADcbeNX9ssFkKdNskGpr35YvPK16ADdbSLUBdrZlkW+iA2S5yw/ABeBGHjMBqGqIK4drFDwWQ75s24vKF/0sHAr1LwzkXh6AqyGzmFcbLMr2bM9LnSZBNaxtmSdzvDoANxfwBOCWO+RVs3wAXAAuAHfC2EAU7FUO4EYBqvnMBshmHnkfR35bHdFpEvzM+ETz4Gr5bcCon/HV9nw80jS02trWz7K/AnBzgV/krWa4LIe+e4CbSqWoFOHEiRO6TVyhAWgAGoAGoAFoABqABqCBomkgUQq41W0Acos2jqgYGoAGoAFoABqABqABaMDVQEkBl0EXf9AANAANQAPQADQADUAD0EAxNQDALaZ2UTc0AA1AA9AANAANQAPQQMk1AMAtucrRIDQADUAD0AA0AA1AA9BAMTVgAG6S6hIJ9R/E+L+IcZjS2E6p9kaakphCje38hTTOo+O5f0EtujNraJrR/rQ1thKc72ya/xERfTSfztZxW9a80lw50hoX7eZab1HkzFWIDPnXTBNjP42sqs9QRfaPC9BlaCPuuHk25NpIaP6QB2UwVmumBeehno9nK6MPkbvsk83xSVDaFCtRH1i/wbYt9sjzgTPlbQ+WOkvUP7+ZMBnC0v2SRNnkkfkRhwagAWigfDRgAdxM8FpswM0GSsIW3rD0XBXu1HP22VlsgrlWnXf+uPoWIoDaxAXUfjSf5heVcIvRn2CdH80/mxJnzyf+HFS6v6AMhbcbd335SBSXDEY96gOVsLl8RMu3jIZXXV7Zf4LkBwi2H3mvs2Z/NfqbfcEYc4bJEJYum84mj8yPODQADUAD5aMBAK51LNyFfc18OjsASOO54Be5bd7wA321KibGxGL0x6zTvI9R/NCq4m4z7vpCBY94EJcMZj3mfYQIcT9ioBX2zjA7bf58Ottz635E88/O5sN2lGDj2D9PrDAZwtK9ggQPrtQF4tAANDDRNJAl4EqvrYyn3OML+nVqHSUz/K5utIIiFl3Xw8Kvas+eP98/ouC9RuOyWo6E82oxurGIp74c/CrT9+L46Vw48BpZbYy8KRpeXw8cg2Wd156OvMH+2OoN6ZvQSSJRqCfMacPvq1BPSDvp/VdaUWMzbdrZ5Mvk6EW/ZncYwtUHf4hwx83athAjc9TQsWcbIXIF+iXHzagnkE/q2eyXo0PdT/V6O7PQGXJEyWKRWejTebvO46DtTPqyTdkdMdLHNM4+GX3x5oY/Pv4JDJnXjc/3j9AUbivcfw2wOs7t6PE14zpvBlmErZjzWs55HhPN0qxzHU+DSq7Pf5jBVmyPXXnl0KtsRrqQ25+3Mo8bF/ZV+BjY5EUaNAANQAPxaMACuAISEwmqS5rnbiXgyniKUsk658xuBORGi82LqGxfbjb+JqBePXvnbi2LcNpiHt1q+tOwOmW6LCXSjVef/uYl8ijwCutPSL0BWOM8sj5F2wLEZR25xH3o8ffUbNqReTguPxQ4daZvhk4+z2vMevPgIheZZV4pBx+dlEcUTLmce6+faoM3IEbZUbBOWjPN1XNUv3Q9UrZ847L9TDInfC+80qcYh4B+w2SXMprtxtEnR34N3MEPALI9lkPeu+X0YAX6ImXOLR6Ym643d800t5/chm4va1kcOXWx9HXKn/OBc72yLbavs/2jEVxH+tzJpZ+u7gLrql5j9ZhKXcu1RKa79Wivd2C+5CIP8kID0AA0UBoNWADXdgZXgqyIt/OXz/Ri6V7rkpH/GS26W3JBFTl5MdULq0qW+cLionzOUVmns+A7m50l3eu/3CwEmHtyi7KR/XHbs9ar29BfrjN0r3fWnPtrFFCbl7sZu3EPSlgu3Y4CDS2Dlk30k6tV5bU+ZDtGvgBEyHy5xLlOLQ9fZbtGexa5AsCjP0CF9d9S3pHUaCcX8a15RX2WNq0yq3pEOfPeUo/XdDZj6mXONSJkSpNBPDPlTbMNM2+ucrj5NVjqqzJXByiDYCnbk3GuR9xzn7z5bnkWsEfnTY2aSqKcAmzvaBR/ENHzKs8+SvkCVRhyB+aNnuMij6Ue3/YCFeMGGoAGoIGy0EAMgJv5WIL+T2aZ/9GDXFCFfsQG4KTKfGFxUT7nqKyTCzser2lrRHpggw5uRHpz1Nc0maP6E1qvaFuJxK/2JcDl3MnIAiy7AtmAPKJIIF32P1s5jXyWDVS0lmXUrFMWM54F5Hfy+Ru2yGvJp3KHpcfSjxC5LW1aZVbFRR/Me0s96X2KGFMpXk7xoEyh88OUN02nwXpyEkFmZj2cPZ/W8Plb/YVKTps23wBL2Z6Mc2Xi3q3Pf4FkPDPmqz92WtdraJoCZL6fRmvS6pPCZxsXMgSKiHRux5DNySryyH6qhyyj8EgH6sYNNAANQAPjr4HCAFf9ZJj7U2IRxxIKBly1uPqLqYIv7WELLLxyQS5EuZZ61CbAXkHXo8JeH+2tUc+Ep0VtTNNoGm9SnhiyTo6H9Ce0XlmeK3XqKOz1pScc0Zr5zs+uqSRn83LqDmknazllXaK9wLjp/ggdyqxZx00dyYLmM6dfAbDxNnmZ18mXruds+yVlyCeeLktmmbkdWc68D5E96zHNpx+mDOa9I5PXN5ZFz7XIvuQrC5dz2vTb0TJFef+j9OrYiu5D+jrlz3nzzYaCfeNowrRp+jhMIX005dV1yXRH7nQbj8gTCsW6flyhAWgAGhhfDRQIuOaXzBKUKPiIgnzFbJ4hdJ4Fv7whF2HxBS29y+Sl32CduorghqU3Rz73yDAr4cx9FpDBqFNt4Lb+hNfLHh91VEDX60G3ka4FzunK8rn1yGMIXIe1nTA5jX4qGYJ1O+Kb+cz7nIR3M0fVYXkW6JccPyNvIJ9+fctNcj5fZ3pY0sYpn654ZaJkiZA5IxTaZA8b0+LNKzWn9AdFMScS06ZZvkiqlWLoRCfncQ2075ZX46cHU6XJ9mScHxr3og/BdcqcR3Ls9DORpmxO3OfRN6eIIZ9Xj5FutXGZx4k7Xx51bD6gIq9eRKABaAAaKA8NGICb+z9ukN7ZbOLl0e0yk0JtLtLbW2byVZ04vJljPKpu2NHhCA1I2I3IhkfQADQADZSJBgC4ZTAQymOkvVhlIE/Vi8BeOIxH1ZsBFCA1AMCV2kAcGoAGyl8DibGxMSplOH36NCF8SPec7b/a5m/7r4Zext8uPrzH/U3es+meD2GnmKewAd8GVqsjI5gXsAnfJqCLOHRR/pg4cSUsKeAeP358/CEGIIkxgA3ABvK0gVOnTpEtxLHRoQ4AE2ygum1g4qJkeUqeOHLkCJUi9PT0UF9fHwJ0ABuADUwoG+jt7SUZ5Dom03VcPkccaz5sADZgs4H+/n6KCgMDA4SQnw40bicOHjxICNABbAA2ABtIt4EDBw6QGfbv36/SoK90fUEn0AlsIHsb+OSTT+jQoUN09OjRwIdofFgu7EORB7jZ/PIB8hT/1yWgY+gYNlBeNmB+N2F0dJSGh4eJNyXekIaGhiL/ayPGs7zGE+OB8Sg3G+A1hNcSvaYcO3YsDXRt3l+kRQMwADfLf0xRbhMC8mCRhg0U3wYk3DLY6tDd3a02JIxB8ccAOoaOq8UGGHLZk8uAa4Nc9ugCaqOhVurHCri8qPOZDz4XIjMjnr1ioSvoCjYwsW1Avx7kK282vB6OjIyowJ4WeG4BXtUCXuhnaWyd1xTpxbWBLvaV7PeVNMBluAXYZq9AGBt0BRuoPBsw4ZY3Gvau8JU3IT5fiE2/NJs+9Aw9V5MN8NrCX8bn9UavObzuyDUJe052e04a4LLnFsrLTnnQE/QEG6g8G5Abifag6M1GbzwAXEBXNUEX+lo6e+e1hY9A6bVGQ65cl7DvZLfvpAEuFJed4qAn6Ak2UJk2IDcSCbi84fDGwwGAW7oNH3AFXVeTDfDawj/ZKiFXr0NybcL+k3n/AeDit0jhsYcNwAaEDchNRG8s7EXRgMubT7aAu3XXIbo/uYkeXt1Kp06fVustX/me0/k5b95Hu3bSmkfOo76efTj6gC/+wgaq2AYAuJnBNVu4B+CKjS1bpSFffAYIXUKX5WYDcQLuU+vfp7N+/qAKz72+Q623K9/c6aXxc4bbZ+78RxoeGabn75kCyK1iuKkmTyX6avfMFwq4HW1v0Rt/fTE2p8XaRWfGVleca302cpUh4C6j2kSCErXLDKVy+mRqaAUQxGkkqKv67GlZbRHm17JaSvC8VaGWlqkPjhFztrWBJsv5rMtPbqDWnD90xrtmFANw//W6ZvrKr5+gnv4R+tr0J4nvGXyfevEvCm5fXPgvNDL4Ca154N9oWeOXCoDcJNXxGNQlrV7A9sYplEhMocZ2++ZaXOhwZfPsJE852htpyrj1YTz0hjaLa5flpd9CAff1v75IyWXNBj+l73OtL11HDIkc1i/+PK1f/I8qrHvoTNr4Qq0qz89On+pVeUrNCn95+wO667lt9POFr1PtvRvo8ns3qPu3Pzyi5MlGrjIF3Mk0eXKCapfJQYnYLHPeEGW9iJfacNHeONocg+XkWqqdbH5YlPNLxrOQVcGqhto+6mttoAY1d7Oth/PJ+Z5tOS2bkz/XNWPt2rX0zjvvpG0ExQBc9t5+of4hOuemJfSPdQ/S8jd2KMB9sumbNNqzlVK9HYHAxxXy29QZIqfQlCk2eNSAaXtWik3ekU3DtYLtKY3UXlKPbVCG/HRcCl2hjWodm0IBN9v9VcPr6dQ+GutuobGDS2h09wI63jmb+g+30ep7z6DVC89QgMtXDtnWXWi+B9fsUFB77SPv0Ow/v+eFdz7szkmusgXchmW8EUtvTq6bnt78cC3U2FC+cmyotWEyTW5oJX31x1bOLxnPou/sfQ3MVV0m23rMfOa9ri/s6ubPcc1YuHAhfe5zn0uD3GIAbsfebmr48xsKam9+vIX2Hel3PLirX6HnGr9ELz/073T80Gv0+pPfpWfnfl4dW8hvg3cArq5uCk1pbA9CcrKOEnV1CoA1ZObXRr7wZcKleZ9vvbmUG482c5EPeUtrk+Wn71IBLntwk/M+SyvnfZbW3D+Z1tz/ZXrhvrPp0L4ttHzeZ+jUUJsTBtvoFIehNpXu7xlh63Fh6Qy3FzWuo9lPt6mQfHcv7TzQR0f6RnOWq3wBt7WP+FUqb8aOQo1NT3mNgq9EOb/v9bXkTzv2UNhAFHugUT/GJ14baKUG7blVnlzbB0ieN3pemUcZuLzw1HpvTpwy/lzV4+bOQQZPt04/j56fwfYmNzTk2b7jkY5cMzx5tXx9dMcdd6RBblyA+8Csu0ifwWXAHe6cT6nOu2mk/U4fcNe/Txsf+B49PfuzdHzfMnp6zt/TottuIi6b30avAY6vdZT0vKPt1Ki8uvq5s7En68RYq2MNnC9BdUmx8TMYa0+rOh6gy+j63Tob67xjKmlwreQItp1KyXsnzmCe0HIH2pIyyXIpSgXyaZlYfqcv+uhMXZLLadnDj3Hkp3ehL0/nSIMuc7eBQgE32zO4uw8cpRkPvES7uwaJv/7Kof8U0dJXu6i7f5SWzJ6kwsmup2jp7Em0dNakontw+VjCDxrW0e//1KrC82/tUYy6+/Cgup44dTonucoacPv69CbIG1JYvI/6ltU6IMyeJA2xnDbZ8VYxJKR7rPxNLl6IQL3QZ5naQABqBewq8IuYXx4YhgEu95efOfAQ/JCZ8L276pytBuSo9uQzqcuw9mX+sLisJxg3ITcuwF1wa6P6lQT+tYTuvmGi/g1e6B8e835FgdOHD6ykvzz0n/TuA9+lBbfNIy6bHxz48Mfw6oEqQ6CCVP95sH6Rrjy9/hlevx6RhyEuWed6iTldACOX15AagL1g+eARBacOH4yd+4D83rlbWY+MS5kcuPXr06Bh5A/Ip/PgGrQN6KOU+jAB96yzzqKwYNtrszmD+8Z7H1PTkjdoX/cI9fSP0lgqpULf0Bj1j56iYwNjdKBnhB6f8Wk6sWuOutraMtPC5OR0M6/tns/cXvvw2/S7P25WYdehAdrc2aPiz77xMX1ybITa9/VlLVeZA64Drw60io0r4L11P5Ez2IoNfFntZPKPOZibeXCDsykaadBRpdmA+SGP770PhFEfIG3zLXBmVtiKm9eBXDFnIyE6Kp9zpld7gLU3jq9BkBZnir0Puma9Qk4P2p20888/X30g5jGPC3B5U/zLgsvpVPdaomPrswp/mX85jY6M5Am3DCIC4DyoTVEUpPo61WdzuQ7tCU1SndV76667yusr2lTAaN5rQOJ04UH12jDk5jqUV1bL4JS39iHgvRUyWco7kBImm5YR11LCHNpKtzcTcPknCm3gWMj+9McXN9HT6ztof88IHRsco+MnUnT8xHEaTaVo0/5uevCVt2n+hveos3eYFk//FB3aF752mnIUImv9fa/TJfe00M/mv6rCls5uxaivtx+ie1/Y7qXzPcv15o7DkeBc/oDreoZql4nNSm2i2hMkFa9BdhnVqjOBrsdHgK85GLiX+kO8cu2B54+ECx3X80jMrwDsSpsI86DKPM7bkrQPpYUArgejYe1L2VkWzscAbKYH5dRjXSwPLm/ei2ZNp1NdK4iOJLMKnH90ZCgewFWv6KdQY1J7b3kzFYAXgEB9hMHZcNm7yt5PfVUgEsgvN2ZRZ0bA1RAtyxty5Qy4QRDOTVZTDtwDOsfXBmyAy7/HLcGRP4Tr9Suf6+2PrqOW1v3Kg9vdP0YDw6M0MJyiTXuP0P6eUdr0QTft6TpGJ0d7qXdsiOpe3kDXT38z6zalrLnI9993rqPzbltF35/thIvnvUzv7DykOZUO940Qp/HzdW376YcNayNl0gUT2qhzEaY4eS2bkudB0l4aziPP5/obl/JSGUcTamvdIwzeRunnL04fUD/0WmY2YP0imAZBllXOOxmX/QgBzGUN4uf7nDqds7ZmPfI+LG7KkkX7Adnd/GlrhqzHj5twy3Ybpwf35ul30Mm9fyI6uJRuvvlxWrzwCbppxi6G/SIAACAASURBVB/pmt88RTNvfzYtXPO7pXRLwyr6zc3L8oRcAzbVcYGE+MKZeJ52tlbAJ8PslDqqmyLhkcvKujQIiDrjAlwF4sYRC8/jK9sLkwlHFPSejqu204lxDQNcDbl6fQrbY7M5g3v5bc/Q1j39tOPAIO06NEyHekepq3eM5r+1jbbs20ddW5+nV15bQGMH22n70EG6ZNsOOuu+jfT0DPPnW/211JSHIddMy3TPHtwfzl3rAe51D2+g+oV/VeHPr32oePXRl9u955w/qs6JAbjuGdqE/N1MbwNzPVH67K1K1yCsX2+Ke0BupEFEGQuehU/mctdN8MtXfj/8YwoSOJ0veKpX13peRc4bLqs9wvKLacE6wyHazJdP++lzXPVNrhlGH0rxKwq10x6gE7seIdr7KO3b9Bhdd+Oz9Pibhym591Ro+OPGo3Tl9BXxAK7y4pqQqkFWfAlLwaxOZxBwn5m/p6u8uGKscz6iINuQwCGh1U0PtCXLGXkD+cRZYBeS9REMfZ6XjzqoNLNvCs6lTIgDjktvA1GAq+E2yoObzRnca+etpLd2HKZteweoY/8QdR4aVuHujZvoJHXT4MGtlFx3JW3e/SC17FhFlz62iM6d9SbdeMvcovLDvS920IXz1tN/N7yswvDYCXrl/YMqftk9f1W8ev+qber+R3eto0VrdkTKU4aA62++5Q4NkA9jBRuYuDbw/PPPp/1EGI+n3EQK/Ve9P7i0mU58eC/tefsBuvzaZbT4lSP0bEfKC890pEiGh149Qpf/ejV9uOtInoBb+g259BDEgCuhvRr6jD6W3s7GR+eFAm42exIfUfjr5p303sd9ypO7bd8gbd83SFe9tJle3/M+7di1kZ577VZa1n41JVdOpZtnX02XznqXfnrFvEigzKbtqDz8KwrfumUVXb7wVRXWvndAMWrPwCiNpE6ocPXiN9Qzzsf5o+oD4BpenShl4dnEhRmMHcYuWxuIE3DPuXAJdb5yN130i+W0YE0XPbl5KDQsWN1FU3+xmj7o7AHcRnlT5dGKqHx4BjuagDZQCsDlL5m99NprtK9rN+3Y20Wtu/toy+4++vWqNqp9fStdsaGVftV4Gz085/N0xy3n0hU3P00X/XY1/XbGHyKBMts1Nirffat20HlzXqJf3v8m3bJkC63Zsp8+Pjyornev3EY/W9BCP5q3njhfVD38TP+V0RlcbMSZBg3PYSOwgeLZQJyA+6/nP0vn/nQlzX3uID3yWh89HBIantlPF/xyPe3sPAooCYMS7yiCPK4wPl62avEmop+lt69CATebM7j8M2EPPfMynRxoo5He92mwr5MG+zvp+Zb19PWVm+k/13XRTxcsp+nnn0d1Vy6ii29aRT+65GZ6dmlxPbh6X2N4/f6cl2ja/W/QtPtfF+ENlZ4N3HJd+s8D3P7+/oxUrIXAtXibLHQL3cIGxscG4gTcb//4Gfr8d16kL31/Nf3LBWuoZupL9JUfr6Ov/Hi9F773y9fo5nveo56jhfx6Quk3YsAPdA4biN8GCgXcbM7g8t7CkHvjwhfotkUv0u0Pv0B7u47SK6800+KVL9I5TVvpgjtbqfaGtXThNc/ThZfPpMUP3FNSNuTjB3Ofe59+es8r6otnfG1cvj3jsQS5b6YB7sDAQEk7IYVBfHw2dOgdeocN+DaQCXD5dyl5E8LmHv/mDp1Cp9VuA4UCbhxr+eoXl9PMhvl0Sf1smtlwJ61Z9diE5MI0wB0bGyN4cf3NLg5jQR3QJ2xg4thAFOD29PQQOwEAuACxagcx9L84c6AcALdS9qs0wGWjZcgdHByckMReKQODfkwcIMJYVdZY2QBX/5oCr4scALjF2dwBTdBrtdsAADe+/cQKuNVuYOg/FlnYQPXaAH/A12F0dJQ4jIyM0PDwMA0NDQFww74EhnQcW4ENFGwDAFwAbsFGBICpXoDB2GPso2xAwy1fAbiwlShbwTPYR9w2AMAF4AJw8UkZNgAbKIoNAHABLXFDC+qDTWVrAwBcAG5RNrZsDRD5sFjBBirXBgC4lTu2mLcY23K3AQAuABeAC+8dbAA2UBQbGC/AXbvozKL0p9w3dMgH6IQN+DbAgNve3k4dHR20Y8cOFXbu3EkcPvjgAy98+OGHhBCtA3zJDJCATRU2ABsQNhA34La+dB0xvNoCP+PNnZ+dPtWrrtjs/c0euoAuqs0GGHD379+vwoEDB9QvtnzyySfEoaurywuHDh0ihGgdlC/g8v8bTyS8MKWxvUSbcJLqRLssg2pb/ZtI/S8iOY+OYwGqtgUI/a1sm48bcDW8nh75gE4efZlOHliswoldc+jgzpW0+t4zaPXCMxTg8pVD/jaWvn7VJctgvALrZ+HyJOsSlKhLFqAnKYNYz+OUM8661Acwc2zz3INil0vqEvH8566jOwBuNLTmAvXlCbgKbuXkbafGKS5oCk9LoYZkLy8Wu9C2ssmDiW7XL/QCvZS3DcQNuOylXdn42bSwd/tyWj7vM3RqqM0Jg210isNQm0rPz07yWZvyKTOOY8iANqWO6qbIPaIQeeLqf1z1hPUlWH974xRKTGmk9tB9KqyeQtKDMuRno4W0X/llAbgVDbgOzKZ5HdSnzjpKFn0yZzOBs8lT+RMRixvGuBJtIG7AfbplD7237xSliByPI1+JVNrhfa20ZPYkFU52PUVLZ0+ipbMmFeCZzGdtyqfM+Nk+gx2/VdPXwm0wrv7HVU+Ybs36zfuwcnGmj0ebccpf/nUBcCsZcENBlsFXf2J3J1mykaa4xwkCRxhUHfp4g4Zit0yjf/QhUMYD57AJLNNlPEUpa3vlP5EK3xjQR+iw8mwgTsB9avUWWvX2bhpOnabhkTE6ceI4DY+kVBhKnVaQ23V0lB6f8WniIwt8LcymjLXJXNfS1j/Or9dK8drfuqY5ddfVTaFEgtdVty3rOhySt53txXFi6CNonjPD2qZpX2If4PwBD2ZmeRojZG1Usrl1qHi4rOqIhNabOirB5Uw9GnUF+pcgr99aj2ljY/bdqE+XE3L7Y2PuS5b2dB8Dcun90tZ3Wx9NGXFf2PxNqTO3OIMbD+SW3xGFtEVLTxjp2XUnml7c1AQ14FdP3mSdc4ZWLQZiAVfHIORk1u0YkzihFwa5uITFU5Ty2tP14VrohEd52FApbSBOwL1nyeu0+cMe6u5P0eDwGI0d56sTjvSnqO2Dgypw/xZP/1SBcMt2Yq5feo1z0/W51cD6J9czXYdeT+Wa5tThOwbcOkPXYXmsTLTBbWs5TABPW7cN2w/sDwJ2VT2Z5fFe6YfuGUJOF8T9/hqyeG1qXcmyph4d2TyoTWs/271Jt5VSHmyvP+64+7Jmak/XY8js7V/OfuvXp/tu5PfGTz/HtdC1ij24+/btU4FBV3/RjNP1l83ML5zJL58h7n8RrzwBV3kHzIkiF7P0ScafqNXioRYO8UmaP1V7n7D1pOa60+twDDObdJEntD1TftwXOvFRHjZUChuIE3BveWgt7Tw4TPu6R2lgeJS++btn6dsznqP/uvl5+sHMlXThnBfp0jtXU13jS/TB/l66esFfC4RcsTYF4MNMl/cynu75U57WLNdQbx1OW19FG+6aGYCnLNdR81iCOofqwbJow+17uDwpsj8TdSiZ9AcEY+6pDwh6n9H7iihrwq+lLnv73I5Zj26b03WbfJWyGWWybS9M75by0fujlhHXQtcoAK4PqIXCevkBrvup2fukqxfpwIQzJrMsE8gnJ5tZxrzXebNJF3lC29P14VrohEd52FApbSBOwP3dwjW085MR+vDgEA2OnqTr7nuFZrUcpbkbeumBdwdoyfvDtPqjMXrzwAnacvhUGQGuhCdtf2LdMwFO3Ztv2TT4cXmzrOuB1G/IslpHuQ4JeDquZTXbiJIn7JmoI0ymQHqU4yW6rvwAV+pUj4tFvwEZnXzW9iz51FwLS7eMYynnZjW0BcCtaMB1Xomlfzo1X3eJ+8BkdBbBgHfAuhiLxUdDtDWfXkRkfjMuZPHqMvPohUmm67pxrYaFC32cGHZeLMDtGz6hPLjfYQ/u75+nH9y6ki6a/SL9tGEN1TW+TNPuXkdX31sGHlwFMZnWNB5LXstEvrR1WK95Oq+8d2zB98gadXnrqLAZ9prq4xDecxNUo+SJeqZlk+uzU3faXiLlUH22lTX77PTPc9zkoSvbhwR/TZFy67b18Trtlbd9EAjTe0jfAbgFvmER9uzZcDANgFvpgMsDH3gFJCaqMgpnMjsH6p1P8d7Cwc/V4qE/3Rf5iEJW7cnFR8aDhu0vVkiHLmAD42UDcQLunEfX06aPemjb3mE6NnicWh7+L2ofpNDAzwvrtwMs+gtc3u94p4FJcB1i755/FCG3NdS+DgfrD8BZYG3X0BXWpj8PWMY02Ey5nmBxhCJKnqhn9i+ZBfXp7DMO/Cl9GT9XFtSjoYPAvqShmPtn5Eu71zow8+l0Wx2mPiPaC8il90tdp7+P6j022EcpA+KFzV1HfwDcagBcBbJhEyZqooeVQXockw91wI4q3QbiBNxHnn+D3t22jXbs76ETxwcV4G4fJDqaIuo5fpqOpnQg6kmRej5x9Ftu63CUPFHPqm1Osy7EB4vIvbbadDP+/QXgAnDxn8SwKBXo6Rr/hWzigEx16SpOwOUxfn59K81/chVt7zxAqx/8gfLeDhw/TQOpU2lh1YM/mEB2XW7QGCVP1LPqsm/1djTtqEeV6aCM908G3L1796rAv6agf0lB/poC55G/qIC486+MTT2U4ZfMsploWKwAR9nYCfLATnK3gbgBV47B0wsuVoA7evwUBcNJGj1+kv684GIAbt7wEbUvRD3L3UbkmE6YuHcUQR5XqJK+521TpdcPANcOqya8ZnM/QQG39EY3YRaxCTSRoVPYcTnaQDEB9/GmWsoUylEnkAlzFTZQGhsA4AJwJ5CXozSTAosP9AwbiMcGigm4GKN4xgh6hB4r1QYAuABcAC48tbAB2EBRbACAC3iqVHhCv8rftgG4ANyibGyY/OU/+TFGGKNi2wAAFzZWbBtD/bCxMBsA4AJwAbjw3sEGYANFsYFCAZfLDwwMUH9/P/X19SFAB7AB2IBnA4ODg8RrBAA3PpAN+8IZvmQGSAidaGETEOnwPlSyDRQCuFwWYAuoxwcb2ECUDfAaEQa57MHds2ePCvxzYfqnwuTPhZk/GcZlENJ1AMAF4AJwYQOwAWEDhQAue26jNjY8A/jABmADbAO8VtgcBQDcdFDNF94BuGJjsxkb0uCthA1Ulw0UAriAF8ALbAA2kI0NsBfXtrcAcAG4VsOwGQvSqgtOMN4Y70JtYLwAd+2iM+H9xVlN2EAV2YBtrQLglhhwj368ld5ecCG9Me/7Kmx+5Jc01HsYkAnvL2wANlBxNhA34La+dB0xvHJYv/jztH7xP6qw7qEzaeMLtQpo+NnpU70qTzbeH+SBlxA2MPFtAIAbH8zajjFkdUThjbun0vH+/XRqtFuFY7veoHcXTyvuxpaso0Qi4YUpje3Fbc8DFf6Xjn67iUSe/9ZQ/VvEPMt6suTgjdP6Ktn/GDf1lCA1RoF+5/HvMXU/1BjUUTIfXaBMieZKDvY5gcYkbsDV8Ho6tY/Gulto7OASGt29gI53zqb+w220+t4zaPXCMxTg8pVD/vCyjGoD61eCJje0FlBfTBDR2kCTE5OpoTW7+pbVJqh2mczL/TLKL6ulRO2yiL5Zyli9g6bOjHasZaRsbjzHPuY/xpa2s5UR+SLspfR6BeCOM+Ae3b2J3rjjy3Ro463U+34DDb5/O/VtupUOrruBNtz+77Txvu95oe3xy2iot6vwzVVBjoTDdmqc4gJU0TfKIJS1N06hRMmgUQNDUAbbJAimObBZl9TlS3HNRsZs8ghZFRwLqG1vpMac+5Rjm0W3J9E/tFX42lACHcYNuOzBTc77LK2c91lac/9kWnP/l+mF+86mQ/u20PJ5n6FTQ21OGGyjUxyG2lR6fgBkQp0Lb5EgWPqNPWPfTHhV8BiE9daGyRng3dRFWD+D+bjexOQGai0pDAZlyKifksoWpjekFzpOwX3c2StwRCE+6M3owX373u/SkW2PU/+uZTTw8XNO2L2M+j56lo7uWEr9H6/0wqG2h2nLI5cWuIk5MJsGayb8FG2jMwHJvC8FsOTaZq754+hDNm1mk0fIwh9sCv4wkWObRbMj0S+0UeCaUFpdxg24uw8cpRkPvES7uwbpNJEK/aeIlr7aRd39o7Rk9iQVTnY9RUtnT6KlsyYV4GWygJKCw1paNpGgiGUWkMnQWdvQQJM9UG+lhsmZPK0WXVh1YOYz70sBcuPRZin6hTaiIDgMcI8cOULd3d3U09NDR48epWPHjqnQ29tLOkTVi2eO3WUE3Deavk1jh9dkFfo6l9Abd3+3sM0sFGQZfLVX14WYZCNNcV/HBY4wqDr0MQPtEXTLNPpHHwJlPAgxAUneO/G6uimUSLj1BtpKkA/mslyKUoF8WibeuB2g18cx6pJcTsueoERd0pJHbvjB/E6f8pBT6JL7oDzXNt2G6knLJPst41E6kGVNT73lA48HwtnoLqxdV7ac+61lxdW2OFdCWpyA+8Z7H1PTkjdoX/cI9fSP0lgqpULf0Bj1j56iYwNjdKBnhB6f8Wk6sWuOuha2OdlAiWGQX/nrq4AO9pQqkHTLNdR6x8Lk0QY+MqDXKP9YgFtmGR8/cJ7zsQLlAXXv/TpMuRxZdJ3B4wgsnwRYHec6NKjLeB/1uR5epz6ZZzI1CPl8eYQO+kzZ5L0Tr62dTAnddqAteZRClguTSffN12ftMi7n3/v6lTIiXti8KE/92dZL9uACcOMZr4yA++q8b9LYgWVZhb6OR+nVxm8XDrhWL54EHYaThO/tU/BowG+7CyDJOudsaMoto4AxRSl1DEKCpgaWIJQFjyg4dfhg7Nx7UBsqR7BObtupw+mTX59dBiWrltsDTJ2Xr0b9bl/9ejPJKXSp9CIgM1JPYlFOaLiXsoTFHf378sm++NDq6ZVlEP1P1rltGenOYiHbtOjG072jE89jnHW/payI2xboiZ4WJ+D+8cVN9PT6DtrfM0LHBsfo+IkUHT9xnEZTKdq0v5sefOVtmr/hPersHabF0z9Fh/YVurAbkKU8lgJsjVf//llXF7K0h5TzaaALeD1l/W4Z7WlVZcQxgkAdspwjjx02/f4HZHPbWFbrem0D/ZB191Hfslr36IIhnwJTm9c3WD54RMGpw5fVufeAPFCnrEfGpUxhfTfyB3Tu66QSIa+a+2RbKwG48dl7RsBd3/B1GtvzRFahd9tCWt/wLTp+/LgKtsHLmKYg0QaeDD4hEJtKkQc9AU+pC2AKjjKAjweOLvh4n6ilLEYdFlk9OSR0hslkKe/ox9aOgE5PVg1YRn7ZNue1tGOVU9WboS6vbTOfTRaRJ0wHXn26vHt18zuQy/XocUhSnf4A5OYJgrJo0+t7EMQdWDbymTpLuzfkC5Mb6YV9wC0D/cUJuLc/uo5aWvcrD253/xgNDI/SwHCKNu09Qvt7RmnTB920p+sYnRztpd6xIap7eQNdP/3NeI8oBLyhDFLCw6nhNNKL6QCa9rYmvC97mVAWdS+eKSjUMkRsZhpi9bXP8Q4zbDKEetBpeFSVnArURZsuMPrQLNvlfHKNkLIZdVhk9+sUecNkspR3AE+UBdwWYP9yXMs/buMhAG5845YRcF+a/R801vlAVqG3dS69+8S1qs4TJ07kudFJT62AigCkmXAiygTyifJpwGLWofOGpfNz45mlLSs4WvIpww5LN9txN319bMDzbHowYMhllre0Y5VT1ZehrtA2bfoTdVlksE1umab663puOc4gq69p+aweZDvcO2WFbDn1W/cTVzkGlRSPE3Avv+0Z2rqnn3YcGKRdh4bpUO8odfWO0fy3ttGWffuoa+vz9MprC2jsYDttHzpIl2zbQWfdt5GenhH16wBRG4AFlAyo0nCor3bAEvUEyuvjAiyDyKOgLOpePAvUF9EXzje5gZbx+Vv9iwqcVtsQPH8bWp9oU8knPNkBiDTzSZmMZ5a2wgFXgrJbp6W8Xf9SBsQr1ctrWzcBuPHZe0bAXXXrv9PYjnlZhYGOx+hkaoRu/NNblD/g2o4PMIxID6ZxH4An41kokJmAo4ElLJ2fm8+ctjzgTJNDepyl/LotB8yDHkhbOzq/czY2c/585bS1bdalZckmXebhuE0Huj4e90Zq1EdL3LPJXl9Zt1PqqM7z4otyKakX2abuj61dWz49Xrqcvpd5w+JBeWwLF9Imho7iBNxr562kt3Ycpm17B6hj/xB1HhpW4e6Nm+gkddPgwa2UXHclbd79ILXsWEWXPraIzp31Jt14y9w8vVgGkCkIledE3bOhk2upNvAlLVs5cRxAe3oVoOnX/BFl0oBX5g17TW9ubE4+32PMz7ke9rZKeHTSPI+uB69Gel5wKeX22w8AtyeLzGu07ckU1ndZ1tQD7gG4+JJZPjaQEXBXzDibRt+fSWPbbo0Mx3c9RqdPjim4/X8ufbgwwGUodc9E6tdiHkQKb5vzZS/n1VLguQJN8cop5yMKGmzMDVnCjfss0JYsZ+QN5NNfHuM6OJ8vq+4He1hV31n2gC70q3opm9FWGohrT6ZuJ0LOtLJm3brdbNKNPKE6kHVqGaWOnOdKJ65HV8FiiF4CumN7sbZryBbZb5k3LK77gOtEB/k4AZePKPx180567+M+5cndtm+Qtu8bpKte2kyv73mfduzaSM+9dista7+akiun0s2zr6ZLZ71LP71iXgGAK+aQd5wgCEnsdQx+mckELHmvQTNBiQAYyzwa/jT8mve2vL6cHjB6IOjIGzwP66Sly25+oUv3zWnT+YKY05a9HVM2p51Qz6oCZS17WH/DZNJ60eX9Dx+qX7wX6HPQhi7y2eBRRo5l+cVtayU8uPGNU0bA7Xw3SX+86vP01K++SM/dWGMNry76BZ1wPbcMt7EArud5tQGDhAzb83JIYxltMFoOsk1MGfxjFRNTfttihrTyG8s4AZe/ZPbSa6/Rvq7dtGNvF7Xu7qMtu/vo16vaqPb1rXTFhlb6VeNt9PCcz9Mdt5xLV9z8NF3029X02xl/yBNws9sc/Nfq2eUHKGWjJwZl6VnOpgzyVLNt2dZ/AG58cyIj4OoBGBkaoGNdH6eFgaNddPr0Kc9zC8B1N2z2LuovQ0XCevlt8HrMy+rKXljoM89z7bCxXGw5TsDlnwl76JmX6eRAG430vk+DfZ002N9Jz7esp6+v3Ez/ua6LfrpgOU0//zyqu3IRXXzTKvrRJTfTs0vz9eBmsTmwB1IfOYCXML4PEvxlOOg1Pn1WgW3a1iUAbhZrWJa2kTXg2gaCfy2B//jMrQZbfS3oDG5GICxjD673OlweAwBg2OwnuzTnnHLe/zI5oy1hbLIbh+rRU5yAy94phtwbF75Aty16kW5/+AXa23WUXnmlmRavfJHOadpKF9zZSrU3rKULr3meLrx8Ji1+4J4iQYI+aiBfq8e3mVStJ847sgC9Vq0NZAlcpn5say8AN741qSDAZYgNCwy/tsFDWvWAAsYaYz0RbaAQwO3v788JTle/uJxmNsynS+pn08yGO2nNqsdyKm9umLiPb3OELqHLYtuAbX0E4MZndwUBrm1wkAaogQ3ABiayDRQCuAMDAwDUPL1ZxYYJ1B8fOECXhetycHDQ6gQE4BauW22fAFy8wrZOsokMKJAdgF2IDRQCuFw2Vy+uXoxxjW9jgy6hy3K2AV4jeK2wrVMA3PhsF4ALwLVOMtvEQxrAsRpsoBDAZf1wefbOlPMGC9ni20ShS+gyWxtgsOW3PGFwy+sHADc+ewLgAnABuLAB2ICwgUIBtxo+BKCP+LALGyiODQBwAbjYkMWGjIWmOAsN9FqdegXgVue4Y75j3MvBBgC4AFwALgAXNgAbKIoNAHABOuUAOpChOu0QgAvALcrGhgWlOhcUjDvGXdoAABf2IO0BcdhDKW0AgAvABeDCewcbgA0UxQbGC3DXLjqzKP0p5eaMtgCDsIHCbACAC8DFRgC4gQ3ABopiA8UE3IcXPkgyPNS0UPWB4fb0qV4C5BYGB4Ar6G+i2wAAt6IBN0n1iQQlRKhPlsukTZetpqmDUh1NVJOooaYOlpPz6Hi5yA05JvqiB/lLZ8PFAtzH5s2lkYPbVBjdv4k47N3RTqvvPYNWLzxDAS5fOeQ/3vxvzIPrZ523fsp/cR6VT+razJfnvyBX/8I8z7L4IFeAPcixRDz/eVU63QFwKx5wBSAm6ymRqKdkyRa5KECNeqYnQDZ5dF5cJ8KCAxkr005fe+01amtrS4OHOAF3wbwFnse2eUsPLXr9EN3z0gG6fdnH1Nk1TMvnfYZODbU5YbCNTnEYalPp+dmdhFhz3OQzGU9RSgFonWWdDeZrb5xCiSmN1F6y9Zj7EJQhP72YusA99FieNgDArSbALblHNApQo57pyZJNHp0XVyyysIHxsoFFixbRWWedlQa5cQLu1Tc9Q8+8sofeOtBnDT0jx2nJ7EkqnOx6ipbOnkRLZ01Kg+7sdRQFg/KZjLMNmvfaLs10817nK+Z1PNosZn9Qd/b2XH26AuBWE+CyB7emiTq0x0AdB9Cv4KRnt4OaanR6grxjDdb8LoQ2sXfYKaOOGiiY9utI1CeNjSYMXmW6jKfc4wu6Ti1viKy6j7gaeq++RQ4bQGnGfN68eWmQGyfg8jjOvesR2rD7WGjYd2SEHp/xaTqxa466vt/aUoD9R8GgfCbjKUol6yhRZ653PAZGvsC986yubgolEq73V3mC9XqXIPvxCO0x1vmk57idGqfodC7Pbfj3dhlLYyuYk9BzKWwAgFvxgCsWtABkGvCYrCcHTB1gdOJyEobl5/QEeQAbOAZhlAnApltOLLgOSMsyYXHeRFx5ub1Av6TMiJdiZVJ8OgAAIABJREFUEUEbsDNtAybkxg24H37wMT2/4GJ64IZv0cpHGmn9zqNp4aM9A7R4+qeIr1vefaVAwBXrpwZPtY5JWDXAMZBP2oYsk6LgEQWnjimN7a68zr0HtYFzt7IeGXfg2qnDgVu/Pi2HkT+wJus8uGp7xnVi2wIAt+IB1z2Dq7yv2utpekPdRZxB0cynF8CA91bkTzv2EAGlui53g7B/gSykfFj7bno6kE/siYmFFeM3UW3ghz/8IX35y19WoBY34N5f91XatvRG2vPib+mNW/6b7r/sbHp5e3da2NHZr9Jm3/F4gYAb9mUuCYoyrj2qtnKcLxtg1nVIb2yKknXaiyvaM7y86i0ae4+zPAc8UW0McmN9zMYGALjVAripFHU01bheWg24Ang1fEYCriV/SQHX1r4z0blvvLh7xyl0f3AtYIPHIprNIoo8vp0U04O7dtFldPTt39PiX3+Pls/6GW1tvobW3HABXX/umbSm9ZA13HzbkwXYvwDJtHVEPpNx1oXjPfW8r15ZM5+vt7TjCxZADQfcIAgre7SUd+w0SgYpD+KY1xPfBgC4VQS4vIj6XlOOJ3zg9RbhqCMKtvyyTp4Q8l7GzckS9kymm3Fb+369AYD3+uM/x4IFXcAGimcDJtyyruP04L5w7Y+p85Gr6NiGn9Osn/6/CnLfbLicmqd9ix67YzolN36SFq6/eWlxAJfP2Xq/gGBAo4LLMA+uLZ3HxKhD3WuPrenRlXk5nqD0owg4ooC5Xry5PlF0C8CtKsB1vLjeF83M1/7eWVYGS/9VmucVteaXEOos1D5EpyhZL48zyAlnltPPZLqMa6+zL5c6e6vO/Oq0cA/vRJmQkFPbAa4TyRYy/YrC6OgocRgZGaHh4WEaGhqiwcFBGhgYIN6EsukrQ+zTl/837bjvMhpo+bby3P75igvprdt+TL+fejYtf3N/WvjFDc9mVbe9fQce9Zdn+TqlsdE9ZiBB1cwnn0k7lmAq0zlueaZAWa9tsk4jbyBfQnzBLSiX9iizJ9g7ygBHQAH2YY4h7u3zaPz0wmvL4cOH6ciRI9Td3U09PT109OhROnbsmAq9vb2kQ19ffDBYiXWR+5cot0GGPOM3waB76L4abGDVqlVpPxHG/dYe3DgAl+v7w39/iZZceQ69NP1H1LXii3TVVz9Hj/ziuwp2l722j8xw+W+eq0CAYXC1HEsArFbgWGP9LGT9BODGB+0AXCywWGBhA7ABYQNxAy5vdnzm9t6ffIcaz/s2vXPfv9Ivv/I5dUSh9f2DdNn1y9NCIRtkWZYNHI8AAJXlGIk5APnGz0YBuABcbMhYjGADsIGi2EAxAJeBgY8rMOhy4HhVQIR3FEEeVxg/eKgKnWNdmNBzC4ALwJ3QBoxFFhscbKB8baBYgIsxL98xx9hgbMrFBgC4AFwALj6lwwZgA0WxAQAuYKdcYAdyVJ8tAnABuEXZ2LCYVN9igjHHmJs2AMCFTZg2gXvYRKlsAIALwAXgwnsHG4ANFMUGALiAmVLBDNqBrZk2AMAF4BZlYzMNDfdYfGAD1WcDANzqG3PMc4x5udgAABeAC8CF9w42ABsoig0AcAE75QI7kKP6bBGAC8AtysaGxaT6FhOMOcbctAEALmzCtAncwyZKZQMAXAAuABfeO9gAbKAoNgDABcyUCmbQDmzNtAEAbokAd8eOHYQAHcAGYAPVZAMdHR3Eob29XYXt27cTh6GhIRocHKSBgQHiTcjcmAq9X7vozNjrLFQmlAeAwQZKawMA3BIBLgy7tIYNfUPfsIHxt4FienAfXvggmYHHnOH29KledYUNjL8NYAwwBuNlAwBcAC48HXg9DRuADRTFBooFuI/Nm0sjB7epMLp/E3HYu6OdVt97Bq1eeIYCXL5yKHxz7aCmmgQlEm6oaaKOirOXJNXr/qlrDTV15AFmHU1Uk8izbMXpNA/9QQcxzFdf7wBcAG6sBlX4ZuIbJ+qCLmADE9sG4gTcBfMWeB7b5i09tOj1Q3TPSwfo9mUfq+vyeZ+hU0NtThhso1MchtqI0/O2IwVsCapPinHoaKImeT+uUMJgGgdQBuvpaKqhRMlBPihD3mM2ruMh7ARy5D/vYtIdABeAO+5GiIUMiyJsoDJtIE7AvfqmZ+iZV/bQWwf6rKFn5DgtmT1JhZNdT9HS2ZNo6axJBaxvjuc2ALcxbbzx2XtcUGjWY96Xwj7Ho81S9AttxGfvuekSgAvALWADyM3YxsvI0S7GCTYwPjYQJ+DyGM696xHasPtYaNh3ZIQen/FpOrFrjrpu2rQx//VNeW/rKRkFta6HVx9f8GHYhbWmeu9oQ01ThytL1LMUpQJ1yvaDRyXqk1yPODpRn3TqD5SX3men3fr6GkokZL1sG65M3rEEeW8pl6EN73hDIJ9sM8u+ROkez/K37SrRHQAXgItJUiWTHZA3PpBXzXovBuCu33mUosJHewZo8fRPkbou/lP+6xvDWeRregY/AZAK5vRxAedZQkNnkkFXA16mZ7qOFKWS9eSAsQOEPiRrW3bg0wNKBarRMqXXkQ64wSMKjrx+Oefeg/m0fmv5Ddly7ovuI67VvIYU0ncALgA3/w0AYAjdwQZgAxE2EDfgzr7jcdp3dJTm3jaXXlr5krry/cvbuwNhR2e/uuf8eW+QCtw0lFogy/I8Wa/h0oC7gIc04pmqU3hl2UPLkGxpy+mXUZclX7hMsk9cj2xX9jvPNgrtS4Rd5T2mqDP/+TABdQfABeBWlcFjYZSbGuKwh+LaQNyAe/NtT9Le7hGaee1MBbjX1/5S3a9pPUS2wPnzH+MMZ3BzgkkJiTLO+hf3ljqV/GHpsiwDiCVf9oCrPa+mTQj5cmnDIktOfZmAQJW/rZk6x30cugTgAnAL2AAwCeOYhKgDdlSpNhA34F5/81L6+PBwAHD5PrnxE2vg/AXpVh0t0F5Z1069X1Fg8BPPAkBnQGEARDM9S7jHEuS8KOSIgvbGmu3K+nN5xnmz6beTzz/aoNvLti86P64F2XAVf1AA4AJwC9sAqnjyYNHBxgMbiLaBuAH31bc66Z9v+3Fa2N01SLbA+QseIwWu4vW9PJcbeCY9oCYwynsZZ/0Z94E63SMKap3lfL4c+gwse2jVl9z0ed9A+SiZ5NgZMgTWdcuzbNsI5MujLwE5pLyIF2zXVaBbAG5VAG43ta5opuZmN6xopW5l3J3U0ryCWruLtVhw/aLd5mZq6bS1JeTobqUVRZXJ1j7SsFiWsw2Ezd9MMot5lWEz62wx56albGcLNbfkBoxxAi4fR+DwhT/8iG5aeT098c5t6vqFP0xV6fo5X2+6/iaae9NcWjB3QeGAm0F3mDvSDhmGtcdYpiMOOym9DQBwKx1wFTAam1d3K7Uq0LRsYrEu5tnWH5YvLL30EwWLE3Q+LjZQ0PzNYf6Y8Oq2u6K12wPE7tYVJO+z0UecgPveezuJw9/f+H26fuX1RCda1fXvbzxfpevn5jUbOZEnpvnNRzqkhzvW/SQmGSGTN6cr3e4BuBUNuI7nx+415cUihw0wr0Uh2/rD8oWlY6Gr9IUJ/WMbL3T+5jB/GGi9NzspYphtaW2lFZ7HlmXJ/W1PnICrPbR/8+vvBDy4f/Prc+HBzWt9jnEd9Y4iyCMRMdY/3v1D+xMSigG4lQy4ygvTQp2hk9PYAF2vjT7K4INx8BWplx7Ib2vHqF/KIcquaG0VRyV0Gb6K4w16oxXlWE5PFhfWW1pWUHOzTRYstoDGCWYDytbDbNk2P5y5488BPZdkv3ku2+qUAKvjXF7nlXFZX3Q8TsDV9vu/rv4G/c+rv0n/61ff8IJ+hmv0eEA/0E812QAAt9IBV3hl0g1bboAcF8CoNlfXY2O+vlSgKsumKNXZYnl96dSpgdkHz2Bb7C1q9s7dynplnBemYLmUlNF9lusr1HSdYAGETsrEBti+s56//vzw54A5fzhPGOCmyD+H20ktbrudLVFrQGY9FQNwYZ+Z9Q4dQUewgRQBcCsdcD0PjG3Ciw3Q4i3yNjz1rDkIsG6aD6/Nli+giPpN721g45b5wuIpcoBWe5Sc/ngyFv24hU1/SMMiWkQbsMzJoL7lXGE5Iu5t81V+oOX5qT/I6mvKOarAwJzP+VuWFYBbRPuQayriE/IVenA+w1bi1gcAt5IBN5czfJbN1IdHZ+I5nlbXy2vJn26c5obrTmAuC8DFgoxNOYMNsLdVvFVJ05c5vzLd8/wL9+CqD5ArWqmTz9/qXzvhudrSmtf5WwAugCV9T4BOoJPS2QAAt6IB1/XKmJ4a668o8OYoNtMQgPU9OU5+/3WozWjNDVfnCbZV2BEF7dENa0u3iSsW1gloA+xNlfOSIdc6f7lv5hww7zlPBOC6H4j940K6Tj4Lr+dZbjqEBzc3fWGOQl+wgfhsAIBb6YDrbogr5Be2PO+psQEqqNVf7BLfmHY3Wec4gtjoAvnDjijo+pyrB8SiTvuXzBwjZy+yatf6JTMhY9rmHt8kwYIDXY6rDZjzzJu/zrlZf34Y8zmPOaE+bIr6ud9qDur5l+ZFjrYNAG60fsbVrnIcS8iKsZxoNgDArQbAxUKW4VUwFq6JtnBB3olhswDciTFOmE8Yp0q0AQAuABfwhw8AsAHYQFFsAIALcKpEcEKfJoZdA3ABuEXZ2LAATIwFAOOEcSqmDYwH4K5ddCbWNHxggw3ABvAzYX0AXCwEWAhgA7CBothAqQGX4fb0qV4C5OKDWzE/uKHuiWFf8OACcIuysWEBmBgLAMYJ41RMG4gTcK96eAOFhY0fHaHV955BqxeeoQCXrxzi6luyPkGJ+mRM9SWpPuH+S1v1L25j+ve2cdYV+MDXQU01CUok3FDTRB3qeZH6EWib5ye3I9rXukvLl2EuF00/GdrNVU7kj2me4R899MGDi8kZ1yaIemBLsIGgDcQJuFc8+Cod6k3Rod4xOtTHVye0DxItn/cZOjXU5oTBNjrFYahNpRc8JgxGNfVUXxMTiCpgi6MuAZjFgiIFhQmqT4px7WiiJnUfZ/tRdQWfdTTVUMKDbCFXsXSg6g3KULBNFVXWUumk/NuBBxce3Ng+LWHSl/+ExxhhjEppA3EC7s8W/pWO9B+n7v4UdT/8RxV2fv18db/78CgtmT1JhZNdT9HS2ZNo6axJsaxtDFQ1TR2kr4XrLy5YiquesDnheG4DcBsAszjbj6rLfGbeh8kfZ/p4tBmn/NVZFwAXgBvLJlD4ol+dExB6w7hXsg3ECbgX3bOOegaOqyABl9OODqRU+uMzPk0nds0hvsajV4Y8cZwg4Dl0oSfZRDXuK3QGYafdLJ51sO2b4BQ8DqDhUh2R0K/p1VEJLide23tpwjPsel/10QJdl9dmU7137MCXW8xHVb6ekgGoFc8Dshv9CLSt63DzpLVr60tYO6bOnDrr62sokXDbCbQtvc/ZyMj1m2OQST4pK+LxzLt49AjABeDGtBHEY5DlNDkgC8YUNlCYDcQJuOff+RfqHTquAntudeC0Y0PH6YtPXaWeLZ7+qfjWNIYlD2oF7HqvrRP+63IFVhowXSjSZdOeyXw67oCVFTY9yJSQJuM8TvLead+D2rT2xZniJIOuhlAx3oG+i/SMskg5UpRK1isPuHeWVp9lDrRrlPHaMPuVUp50/4iC009fZ5n6rXVttOfJGDYGRv6AfDbdIK0c1k4ALgA3vs0Akx66hA3ABoQNxAm458x6kfqHT1D/8HH3quPHaerKqQpw+flftx2IbQzMYwnq/KcGtABQOkDDnlYHKtOByP5M5FMQagFN1qeCQe2xDYE0KY+lLnv76QDpgYmlDu+ZGmMhe1rbWlb3avMwyzKBuAmH3I6sT+pIypCilEVma79VPlmnC/yW8k6fjXaEjQd1YsqO+/HUDwAXgBvbZjCehoy2sZDCBsrPBuIE3H//wwoaHDlBB3a9Si2PnqWufP8/Gs6jh3Y8pACX7zlfPLZggpUGIg1YJvQ43j874IY9E3WEwVUgnespEeC6r+o9L3Aa1AnZJaAG5JU2KfNzuryXcVnGzJfhmaXtcMDV4yjqtJR3bClKPlE+TUd4Fs9czE+PAFwAbkybQX4GOJ7Gj7YxZrCB4tpAnID7L797joZHTyi4ZcB9dvbf0vDYCRoePakgl48o8PPJNzwXz5rGXlN9xMADFxNUE+7rd9N7yEAU9cwGqU7d/ut2d2ykHArAbGU5r4Qwp30PTgPgJvOZ5Qx7cD3HXj2sB+uvKMg6nbbT+hGQz2xXljdkSCsnn5vlnLY9eUP7HSZjyBhEyiDlQbyc1lQALgA3ns3A2wAwwctpgkMW2ON42kCcgPvF65+m0ZTjwWW4ZU/uSOokjYydUIE9uaOpk/TF65+JZU1jz186pLlnQMUrd+cLTo531wMrF4iinjVZv2TmgFfwi2EOdKk04+fKWEaVLuRx6tXArb3OGop5PtigUD435oyCRF2POHMcqMeo0yxjky9QPkXBvkgZjLoDe43lWaBt2S8jbyCfOJOs5PL7q8c0XD4pK+Ljud6YbQNwqwJwu6l1RTM1N7thRSt1q0Wik1qaV1Brd/EnZWdLMzW3dBobj2xfxqU8nC5kb26mlk75XMdF+e5WWlGifpkTCvd6PCrpGjZ/MvVR2GRgUw4p19niz9HmFurMNEdNO9flvfkd0o5FFp6fwXllkZ3rT5vD0W3ECbif+9VSGkudoLHjJ2ksJcLxE869m875SjMPDWAK6DXqWbTOSiN7NcrAY2I5lhAYt2rUS+X2GYBb6YCrNkFj8+pupVYFiZZNrBiTnWVY0UItK0yYlu3LuJxwYekyD8fD8oWlm+Vxj43VYgMFzZ8cbE+1o6E2Ramc5yi3Jed5Dm3znDfh1e33itZuDxa7W1eQvM/GXuIE3L+78k+UbchGtsLzREFs1DOLnRVj3UWdnu2qsZZHPaCboG4qVB8A3IoGXMfzFPTMyMU1x00wz0mgN0Z99TcW2b6M5yNjoeVlm4j7Y1TNuih0/oTZpEWnDJhWz2u2dZj5zHtLm3I+qw+h+s1OiniutrS20grPY8u6MD+gZqgzlaI4Abf8bDIKYqOeZdZb+fV1AsvsHUWQxxUmcH/kvEU8EtQBuJUMuKZXKG0yGJug67XRRxl8MA6+ovXSA/mF9ynQjtgYjU006HU1ZPHqCEt3vFwr3OMLK1pbxXELXYav4niD3qwDcqd7vVpaVlCzekUc0m9PNiySFb0RKzsJs2ubbTl259uPtkNpJ2xTtjqd+tI9pG4dnXzsxrFlP4+u3ymr560zFyx2r+w2rH0xT1M6zvVqWWVc9ic6XtmAG933ip4bWAMjwQpjXx5zA4Bb6YBr9Qpp49MbJN87m2QQXl2Pjfn6Ui1usqzzitPfeHX9LoR6MuiNUz+Xdci4fu7LpTdvBzz9dC0ve5yavXO3si4ZTy/Hr4L987qct9l/DWvtt5QN8YpeyNM+kJnjbbctfx6Yz7l8GGDqZw6YarvW89Lz7rJNBqBTe1XNtsx7LXt4+/453E5qcedsZ0vUGqDrDL8CcMN1U9FzBwAMAC4DGwDgVjrgepuhbaEVm6DFW+VteOqZAD82XDfNB0/bl8icV53+hu/c+19UEe3neoY2DT7C6pLpWm7tlXJ04vXTlMHW7zKYtNgYbbZchDQ1/kFbCeresC3TfuS9bb4EzswK+d28DuRGtSGfyTjXZdxn077+QKevKX/+ph8vEvJGzAkAbnZ6CtoVykAfsIE4bACAW8mAq7xF8hW8OWnEJmjZzH3wc8o5XlK3Pkv+dIPk+sWrUi+uoUG0b27I3qYp8wj5uX3PM8zpMl9YPEfAdWUI9NuTS8iCtAr1VrC3M8v5o2xA2p1pk9pewj2ocv4om1NHaqLqlM9kPKxtTo9o351TnXz+Vv9SCae1tOZ1/pb7A8DV446rtG/EYQ+lsAEAbkUDrvvtaNNTZP2GNm+QYjMPAVjfk+Pkl97ZNINlT1AAQvUGq9uRm7KMy8kfla7rcT3DeR9RsAG3lMH3ZKX1EXBboXDrjr86EuDbmRp/6/zh/KatmvecJwQwO1vFz/U5YO3MLbMOeR8Wt8ni9iesfWXHTrv+UR9dD39I1XNE15PdFYCbnZ6wrkBPsIH4bQCAW+mAyxuXglXhSfWgU26QZj59ts+HZOc4gtjozHr1l7hc6GMPsA2A7d4pQxYPHDldyG6ekfW+eGP7kpkzYVgOJbuWLyC36KcJKC7cpPXbky3+CYlFrgx1GrCX5sCHtqBtmTZs3kf1zbBzbaumTQbuZf0yHmL3Wditmpve+iDq8eSJ6kP6MwBuuk4wx6ET2EBpbACAWw2Am8XGhglXmgkHPUPP1WQDAFzYezXZO/paXvYOwAXgVvYrZsA9xhc2MG42AMAtrw0fAIbxqCYbAOACcMdt86umiYa+YmOpRhsYL8Bdu+hMrGv4YAcbqHIbAOACcLEIVPkiUI3ghT6X5gNHMQE3uWQJyaDHlOH29KleAuSWZoy13nGFvsvNBgC4AFwALgAXNgAbKIoNFAtwVz/6II0c3KbC6P5NxGHvjnZafe8ZtHrhGQpw+cqhoE03WU+JRMIN9ZQsxE7Uv4zN/t/FJusTVJ+U0GT5978sX30yoo+WMtY+cD7dT75mL2dAvzn2MVDWKpfsP+LQV242AMAF4EYsjrkZEyYf9AUbgA1IG4gTcKW3tnlLDy16/RDd89IBun3Zx+q6fN5n6NRQmxMG2+gUh6E24nQpU9ZxBWsCajuaqEkBZy7QmCcoMuyZ8KrkSVBNU4fXn46mmsB9et/yk5XrTdQ0UUdJoTNbWTHH0scZOrHpBIALwPUWS5uBIA0LB2wANpCvDcQJuL+fu5aeeWUPvXWgzxp6Ro7TktmTVDjZ9RQtnT2Jls6alP/6xoBphbxsQSzbfCH2xUAr2mforG9qohrPY9tBTTWZADpbGcx85n2IjLEC8Hi0WYp+oY18149CywFwAbj5bwCxLm5YBAqdzCgPGyo3G4gTcHXfuoeOkxk27D5GHPYdGaHHZ3yaTuyao67vt7YUsL4xcAU9pqmUk+YdW3Bhk48TBNNs+UyAY0D1ywWPI7AtS4DVca5De5VlPEUp18PryCHz1FBTsolq3CMI0gOsder0S8KylNWJ19fXUEK3HWhLHqWQ5cJk0n2Tfedy/n30sQvMc3/coIsoXQBwAbgFbACYXFGTC89gH9VuA8UA3IVrN9D819+jq1e9Tdev3UhPrH2VDh4bpvU7j6rw0Z4BWjz9U8TXBxctL3B98yHUB1AD4gIf9OUzGee5IO+deu2w6c8b/xxukupdb26y3gXRwBEGWbdzvMGpm9MTvidagakEWd1WsHzwiIJThy+rc+/pI1CnrEfGpUxhfTfyB/Sq5cS12teUXPoPwAXgFrgBYMHJZcIhL+ylmmwgbsCdsXYzPbYuSb2HP6CTo7306t6tVPfyBrrqmdep69gQvby9W4Udnf3qWjjguvbqeiwdqLOAGMOm54HUAGnmE/eqPu1ljZgTGmL1NZUife5WX5U9ufL5MiTcL5+JNl1g9KFZtsv5hAdVe2pVGaMOi+x+nSJvmEyW8s6cEGUBt9iXY7ABAC4AFxMpholUTdCCvkowQDzKHuIE3PlvbqUt+/ZR19bn6ZXXFtDYwXbaPnSQLtm2g866byM9+fyzdKhvjNa0HvLC3fe+ENv6prya6kiCAWIBYNNHCdgujHzyPlAmwoY4X00TJfn8rf5FBU6rbwqevw2tz5TB8Z56dXlrn5lPymQ8s7QVDrgWiLeUB+BKfSMetabk8gyAWyLA3bFjByFAB7AB2EA12UBHRwdxaG9vV2H79u3EYWhoiAYHB2lgYIB4E8pm07p740Y6Sd00eHArJdddSZt3P0gtO1bRpY8tonNnvUl/mHMPfXJsjJIbP/HCrHl/yapua/vJJmrq0LAhX6sbwMfeVf1lMAVvWXhw1fla83yvbktenXaDP9vF7bO3VcKjk+YfI9B1GOl5waXRX/ccsgfJgTplXqNtD6alLrWcfJVlZTriVvv09An9hOkHgFsiwA0bAKRjcsIGYAOVagNxenB/vmw9vb7nfdqxayM999qttKz9akqunEo3z76aLp31Lv2sbg4dPDpKy9/c74Ub71iXP+C6IOe99vd+vSBF7LFU6SpNQyifda2nevHLBsF8JsA5AKjr94DRAJfgeVhnrqh6hTzKfhRoimMGwtvsfEHMeWZvx5RNzknLs0BbGui5jJE3kE8fm9D5fFm1TEF9SRkQr9Q1opj9AuACcAvYALDoFHNyom7Y10S3gTgB99er2qj29a10xYZW+lXjbfTwnM/THbecS1fc/DRd9NvVNOPWOXSwZ4SWvbbPC9fPKuRXFGB/udsfA670LEOHuesQOotLZwBcAC4A1/CYxDW5UA8W6mq3gTgB9/mW9fT1lZvpP9d10U8XLKfp559HdVcuootvWkU/uuRmSiabafuHR+lXt74aCNU+BiXtvzyugXUVe+s42wAAF4CLSTjOk7CkGxD6CnsvoQ3ECbg8TxavfJHOadpKF9zZSrU3rKULr3meLrx8Ji1+4B6MawnHNW3N8o4iyOMK+ICbpqfxHKMqbBuAC8DFxlCFEx8LLzbfUthA3IDLMq9+cTnNbJhPl9TPppkNd9KaVY9hDcMaBhuADaTZAAAXgJtmFKXY+NAGAAs2UPk2UAzAhd1Uvt1gjDHGcdgAABeAC8DFJ1/YAGygKDYAwAWoxAEqqAN2lI8NAHABuEXZ2PIxRpTBIgYbqCwbAOBW1nhifmI8J5INAHBLCLj9/f3qx863bdtGe/bsyRg4H/8oPP8g+kQyKsiKRRA2ABtgGwDgwg6wFsAGxssGALglBFyG1eHhYRodHVVwe/z4cQoLDMCcj+GWy42XgaBdLE6wAdhAvjYAwIXt5Gs7KAfbKdQGALjjALgMubt371bQ2tvbS2bgQeXnnI/D+++s44f4AAAgAElEQVS/nz/gdrZQc3OzG1qoE2cN89cldAfdlY0NdFPrCj2vm6l5RSt1ZyVbJ7U0r6DW7iw3zwLXDwBulnrOauxQV6HAg/LVZUMA3BICLv9Pdv4f7Bw6OzuVh5a9tLbAz3XerVu35gcW3a20ollAbXcrtXZWl4FjQcN4V5wNqHndTC1yLntzOxPAZnou7CWG9QOAK/QJiM1vH4PeoLc8bQCAO06A++GHHyrvbHd3N5mBvbb8vGDAZe9L1p4dLMQVB0J5LgrQQznPBcdzG4DbwDhnAthMz0XfY1g/xgtw1y46E1AQsAsxrkiHbVSJDQBwSwi47e3t6kwtn6vduXOnF+d7M8jn7733Xp4TkjezZlrR2p1WvrNFvN5s6aRUyrJxyg3O9Ro5xx2EV7hKJgqgDxtkWdiA6VUNzD9nvntHktS8doC2pWUFNau3OTbA5blvm9Ph60e2uogbcF9ZM5eiAsvFcHv6VK+6Zisn8mF+wwYqzwYAuCUGXP4lBQ78xbGjR49aQ09Pj3qu87a1taUBavaT0T+rZ/f6iA2PgVZtio6hMwQ7ZUQe3lA7W6zQnL1MlTeR0HeMaUlsgAE38q2MMVdTJqSaz3ncwgBXP3M+DNvXj+hxjxtw16+eR6njJ61h+wtX0up7z6DVC89QgMtXDoWNS5LqE/rfz3I8QQkv6HRfB8n6BCXqkxFtZq4jK3nVv8ZNbz+rsoEPRb7sKAtdVJoNAHBLCLjbt2+nvj6nwa6uLvWTYZxmBvb0HjlyxMtbGOC6k9b1wHqbFMOs9+Uz/aUT3vy0J6eTWvRGGvDeup5fAcKVNinQHyz0ZWsDkR5cHjcTYCPubfO6WX+oNWzAXD+yhKS4AfflF5qscMvQu3zeZ+jUUJsTBtvoFIehNpWe/3iagOtDZUdTDSVqmqhD64Khs6ae6mv8POntyvpSlFaHrquo16AM6TIaY19UWdAW9F88GwDglhBw+XdtzV9MyOa+tbU1wiOQvXF0t65wPLSBTZK9NxpwU8R5+EiDvqrJF8iffXuYuNAVbCBuG3DeyHgfVNPgIwJoVV7zOcsX5cH15ffWj7Q2/TzmeMcNuKtXzqex1EkvjKZOqPho6iTteWc+LZk9SYWTXU/R0tmTaOmsSQWunRIGZZz7HLxnWK1p6lDQyldTF859sIxZh71MuH7zy2/KEHf9qC+/cYHe4tYbALeEgMs/93Xs2DEvfPLJJ8TeWRn4FxMOHz7s5eH8W7ZsCVksM0yIzlbxc0DOxqjO46adrfUBN8Uwu6KFWgJn8nhTtJ/ljdsgUV+GMc0BLqDLCtWl+/YlALmhv6JgAq15zzoKAdyw9SMHG4wbcFc+v5CGx05EhJP0+IxP04ldc9S18DkgYVDGWW/yvoOatOdWeXKFZzegL1nGrMN5Vl9fQ4lEPSW5nDqK4B+LqE9qmzbqCeRzy6p2WS5Znsv599HHKXRbuBZuR9DheOgQgFtiwJXnbjdv3kwDAwPeF8z27t2rjiWwx1bmyxtw3fN33lEE71iBA7sqXcGsAFz3y2byLK4yTPcVZXpdmLjjMXHRZpXbnTkf9XGiVIq8L5CKL5n5v3trA9wwXTofbAuZ88UA3L6hE/Rv05+kwZHjgdA8fRL1DR1XYfH0T+XnFAjAKOtFgqSMG8cLAlArYDeyPqMO1VZCeYGd+e3AqAe1CmL18Qcpi4ynKJWsd+tw4Dbdm2zkT5MxzB6QjnV3YtkAALfEgMtfINNh48aNdOjQIS/oe77qPHxlEMbEmlgTC+OF8YINxP+vevfu3UVfvOpB+u6tyz2Y1VDLgKsh98k/PRLTmilhkOPC+6m9rCkHVCVIqrO11i+bhdcRhGntvZXe2BTxl9gc4BVyBby3rnzctkoPlndsUpQF3MZkJ1jvynG9A+CWEHD5+IH8zVsGWR4AHfQ9X2U+AC4Wj3JcPCAT7DKTDcTtwWW4Tb5NCnCPDhwnGRhuD6y+UEHunj27YgIXCYMyLsee0yX46niucGnUbwHUcMC1tGUp74yX0Q4gNyZbkTaBeKa1oRTPAbglBFz+PVs+X6sDg6z04PI/d+B7Ttd5+D7/IwqYZKWYRGgDdgYbsNtAnID7tz9rpPtfPKQCH1H49L9cEgiP/PIz1Nn8HypwPJYxSdaLX0oIAcNAHq0H53iAd7zAg8iQOtRz8xnfa4+t6dGVeZ180oPs9B1HFGKxAW/s9NjiOlH0CsAtIeDyT3+xN3bTpk0qMMjquLzKdIZb/qLZRDEoyInFDzYAG9A2ECfgcp0Mub97fKs6g3uwJ0UyMNRuu/ULxNednfsKXjMdr6w+88pjKqHSH2P2qqbDpXu+Nu2Ygr0OR1+WZ4HjBxGyBPLJ3+J14Ff/dq8GbvV7vex1TpPP75ceQ1yhk4lqAwDcEgLuRDUSyI0FDjYAG8jHBuIG3C3bOinx3d+qc7gSbjn+wM/+TgWONz34bMGAm09/S1eGwdVyLAHexgofd6xDucwxAC4AFwsCNgXYAGygKDYQN+DOffA52ntkTEHuvu4xUuHIKO3rHlVwy884VDzgWo9FAH5ygR/krXx7AeACcIuysWHxqPzFA2OMMc5kA8UA3I8Pj5IOew6PEoePD495afysYgHXO4ogjyvADjPZIZ5Xp40AcAG4AFx472ADsIGi2EDcgNtw/3JquG853XHfcuL4HXyvrivUlZ9xuOv+54rSH4BSdYISxn1ijjsAF4CLjQBwAxuADRTFBuIGXIDGxAQNjBvGbTxsAIALwC3KxjYexow2sYjCBsrLBgC45TUemB8Yj2qyAQAuABeAC+8dbAA2UBQbAOACqKoJqNDX8rJ3AG4JAbe/v5927txJe/bsiQz8Dx8GBweLsuFgApbXBMR4YDwq2QYAuLDvSrZv9K287RuAW0LAbW9vp4GBAQW3IyMj6h848D9x0GF0dFQ94/sPPvgAgAuvGmwANjChbQCAW94AAEDD+FSyDQBwSwi4W7dupeHhYdq9ezcxzNoCP2NPb0dHRzwbW2cLNTc3u6GFOksADJ0tzdTc0hmP/CWQt5InOPqGDWw8bQCAC/sbT/tD29VtfwDcEgPu0NAQdXZ2KtDt7u4mGRh++VlfX188gNvdSiuaBdR2t1JrZ5ENnttc0UItK1ZQa3eR2wL84kMEbKCsbWC8AHeg91BZ6wXghb0BNlB8GwDglhBw33vvPXW2ls/Y8lEFPmcrA6d99NFH6sgCH2coeAKw93ZFK3WXEAK6W1fQitZu0teC+1BC2SFr8Rcc6Li6dDwegPvx9jW0ZPZn6eNtqwpfQ7H+QIewgQlrAwDcEgJuW1ubOn5w+PBhdcaWz9magZ8dPXqUYgHcVCe1NDcr4DTBQh0j0EcX1HGCbmpd0Uwt0sMrAVl5gzMddeA6XM+t8uRKuHbq18clAu1gAZmwC4hpV7ivLoDNNN6lBlyG26VzPkvHevbRn28/A5CLtRVraxXbAAC3xIDLxw8yBT62sH379pgmpg+WdqhkCHahlIFWnJ1lCHbKiDw8WTpbrNCcCkCtgF23jKw708aI5wAl2MDEt4E4Afebv3uWokLTQ/fRk7d+htY+9FUaG+6m9Y98jZ6Y+ZkCIDdJ9YkEJbyQ57/HVf9eN8+yVQwnmP8Tf/6P9xgCcDPzZiYe1c/J/UuEDeqWLVu8X0z45JNPiD26OvAX0Nh7y7+gwIC7bdu2mADXnSSuB9aD3MCXz/R5WQZZfWa3k1r08YaA99b14goQ1v01jyXwvQe1bh18fEHnxxULGGygsm0gTsA9/6519OM1h6zh58s30ZMz/y+lenekhT/d+jd5rjkMuD6YdjTVUKKmiTpKCp1BGTBfKnu+YHzjHV8AbokBl48fcGCw1edw9+7dq7y6ra2t6hmD7vvvv5/nohxuIB5wKtjUIBv0tGpI1Vc14QL5w+p3jkPoIwj+VbfjlFMyNGvPcFhdSMdCBxuoBBuIE3AvmLeeosKSP/6Bls45g95dNpVOHHmD2l+eRk/f9UVqWVKb51pqwqV5XwobHY82S9EvtFEJ87vc+wDALSHgbt68mXp6elRgmGUvLoeNGzd6V37e1dUVD+B2topfMnCOKigPatrZWu3BTZFzzIB/BUGCqQOvkd5XWafn4XDa9LzGbroPz/LoQ1gcC2G5LyKQDzYaZgNxAm7Lw/9FWz8ZpTc/HkoL27pGaW9vita/OJeevuMf6OSBlbRy/pfoublfoLHRkSIArgOe9fU1lEjUU5LXNnUUwT/SUJ/UdmFAaiCfW1atjR3UVCPLczn/PlGfzLMfWg5cw+wU6ZVpGwDcEgMue2ePHDlCDLgc58CAq6/8jKGXjywUPukMr6p3rMABT+VlTftJL/eZl9c1fPOYgvGcz+vaAFh5bDlv4EiEhucwqJXplTnxCh9b6AU6LH8biBNw/7Lo+wpsh04ShYYTJ6lt/R20Yt4X6JU/19JfHjyvgHU0CKbBIwoOfNY06d8rd+49qA2cu5X1yHiKUsl6cupw4NavT4+tkd9zHujnuGIdgA2E2QAAt4SAy/DKXtxNmzYpqOUzuRz4nq8MujrOZ3HDBg3pmNCwAdjARLCBOAF35X0XZATc0RPH/3/23sVLjuLO861/4J6z93iOzx5m7zIe1th3vL73emZnXd4d2+OZ8c7aHmMM2MbG9jB22eOxPR57wAYMAiQhEKJ4CNALGTUg9DKgVoEegEQDlgBJoG69uloSrUcjoX6r34/qbvG75xeZkfXLqMx6ZmW9vn1OnMzKjIiM/MU3fvHpX0Vm0dx0N3W1raHUzBhxmeLtZEFr+iEzGW01wFMBrTyfokQsQhbwiryu6K0dneXIrEd5q92iLOC2hL6Evyh+HNSu7QC4IQJuIwoM91y7zgF9h74rVQNBAu6mh67OCbgTM+M0M7yP5ga20+RkL3GZ4u8hG1wa5zwA1R9w3SCs2udR3mq3cR1Abgn9ifFc/FioTdsBcKsEcHnJAncGC5AfQPPabzRx4n5r06mg39BvWgNBAu5T8W/mANyLNDHdSzODu2lq/BhNzEwTl9FtKXybDS7Nc/xZR2z1elwNsjKvlS9zKUK+SxTMuvRbHuRx6K/wvobN6tFmANwqAdxXXnlFrctlkfE+Q665X48CxD3BsUID9auBIAF39eJv+wPu7EWaTI1QariV5vq30eTkeRqfvUhcpnh9ZYNGj3Ou5QcaPLlvjbyufBFKPzzG+dIPlen1vBwJVssk1ENmsi6//frVU/F9CZs0ou0AuFUCuI0oPtwznC40UN8aCBJwH110nQtwx2Yv0vjsLE3MTtHk9ADNjB6guaHXaXrsKE3MTKkH0bhM5TXGIKqjufXd35W3NeyLPkhrAIALwK2CCSAtSAxO2AIaqB8NBAm48fnftwB3dpYmU0M0NdVNU5NdlBpto5nhN2juwk5KjbTReGqcxuc+UIDLZSqup0SsAj8QUT8aqnj/Yd1z5cdQkX0AwAXg1qx44fgwiUED1a2BIAH3ntuvp9Ur76KnVt5MB1qWUNfBZXRi31J6d//DtH/XfbT56Xm0ZtlvaPmDN9KyB6zEZSqmEWcpglyuUN39VTFbFQkwaC/0lE0DAFwAbuUmADg12B4aqGsNBAm4/X3nidNAXxcN9R6hod7DNNTXToN9J2ig7zT1951T53U+vc02AeIcAAkaqF8NAHABuHU9wcJ51a/zQt9Wf98GCbjo7+rvb/QR+qiaNADABeACcBFFhAaggbJoAIAL4Kkm4EFbGkuPAFwAblkmNjiSxnIk6G/0t5cGALjQhZcucAy6CEMDANwQAXdkZISOHTtGp0+fpq6urozEx0+cOEFjY2OATkTUoAFooOY1AMAFyIQBMrgGdOalAQBuiIDb3t5Oo6Oj9N5779HU1BRNTEw4iT/z8QsXLtDx48drfmLzEhuOwQlBA42lAQBuY/U3xjf6u5o0AMANEXAPHTqkgJZBVkdyz5w544rk8udAI7mdLdTU1GSnFuoMISrW2dJETS2dBqR3UktTM7X2swOQ+3AI1eQQ0JZ89dhPrc16XDVRU3Mr9ec1tgrUvuf4zVJHfys1O+MsRSldPu/2GfevyysfUrj/AOAa9sxLIygDPwQNBKEBAG7IgDs+Pk5Hjx4NJ5KrJjsxKfW3UmtnmQcOX7O5hVqaNczq68lJWe7r89gGMaBRRwg6UuOqiVrkWHLGVi5t5zov2u87fvOtg/PJduZbzm6D7/VFG3MAGwA3f1th7MJW0ECwGgDghgi4Bw8eVOtrdST37Nmz5Y3kcvSl2MhNjonLbyD2tzZTc2s/6W06n5xc5X6wgk5fD/XCFuXQgBW5dcGta6zk0nau86LNvuM33zrMfOZncS3XPdjHfa+fo5yoKyjA7ejoICTYABqABqQGcs1xANwQAbetrY34QTMGXBnJ5WUJk5OTznpcXpvLn/l4aWtyeUJrUsBpCkEtI9BLF9RyAo+JW05wdtTKWu4gosJiMkuluA47csv5XXAtJ1e5n/9kad4DPsN2oWvAjGq69G+NN2dJkBpXltZbWpqpqYnHjZf2edx4jSmrPv6H0X2fdh2dvBzBWiaRzqPrt8rqtjS3tipfoD+7lxAVev38dRcU4LrvP//roxxsBQ00rgYAuCED7vDwMJmR3FOnTimg5QfQdGLA5eMMxMlk0pjgChGsBa48sXlHnfSEaK/XE2tnGYKtMiIPT+idLZ7QnHJBrYBdBQGyDrlfyL0gL5x1hTXg0rhXW0xt82f5T6Z5nuvwA0x9zoLY9Pi16nS+neF/RBU8c35Zv9w3z/FnnQq9vi6XewvAzW2jdD8gL2wBDQSpAQBuiIB74MABFZE1I7mdnZ0KZBl+ZTp58qT6XBrg2gNGRZ40sIqHT1QESK+X5QlRR5I6qUVHYO2yTvSHywgQ1oI0lyXw53Q+OdnKfQxobT9sa0ALaizoMeLVXlPbWT57jSu/f0Rd4zdLnYUAbtHX97pv72MAXG+7YKzDLtBA+TUAwHUzpeTLQvfJ/ov4CZcBd3BwkBhwuXIdye3r6yOGXDNxXl6iwK8X86uzkOMOcLomaXekVUOq3qr6Xfn9RMmTrniq3NnXMCAnZbnvVx+OF9K3yBuWXni8iH8UnSiovr6p7VyfuVy2CKquN6XWtVv/MGarU56T+1yP+VnXXej1dbncWwBubhth7MJG0EB5NADADRlw+/v7yYzk8jKEoaEhBbMMtJz4Mx9nyC0acDtb7ddysXisiVmt1ctYW6sjuCmylhnwWxA0mHJZnhjl16weYpR1OpO+hAE5ucp9j7qc8jgHx1eFGlBLAgzI9X2Lgql18zPfnw9g+o3fDFCVdfrt83XkOWnXQq8vy2bfB+Bmtw/GN+wDDZRPAwDcEAGXI7UctTUjuRzN7e7uVuc4ussPoXFePs5AzK8VK24Q8IQmoqrOsgILPNWSg4xXetnnnLy2+MyvM43zvF43/aBLWrBO1Ng1ufpNtOlyxd0vysNuIWnAHA96OU8qRc4DnGqMmFo3P2drr9/4NeuQn/32reu425bt2nzO7/q5yqXPA3DTtsDYhC2ggXA1AMANEXBZ3Pz2BAZcGcnliO0777yjHjDjn+llsG1tbVWRXM535MiRIgE3XDFh8MLe0AA0IDUAwIUepB6wDz2EqQEAbsiAy51rRnJ5GcL+/ftJvxeXHy7jz3y8t7eXDh8+DMDFsgVoABqoOQ0AcAE0YQINrgW9SQ0AcCsAuNwBMpI7MDCggPb8+fN04sQJ9VO9DLh8nJcuAHAxaOWgxT70UCsaqBTgvvjQn9TcPwO10qdoJ/xPrWgAgFshwGWB6Egur8tloH377bddWz7OiR84qxVBoZ1wftAANKA1EDTgvrbll+SVXt2+mDgdO/giMdxOT/eorW4HttAkNNB4GgDgVhBwMeAab8Chz9HnjaSBcgDudGqG/NKWh/6EODHg6v3S7Z2keDRCkYidonFK6uUyiVj6eCRGiVzH9flUgmK6PnsbjScplYxTNBKleJLHCefR+xg3pfcjbNhoNgTgAnARHXYmHTjARnOAuN/yar4cgDs1nSKvtHHxf6Tp4b0ZiY8X3c8KOCMUSwg7JeMU58/qnIDaXMddfiYfeM0nj2iXq34cL7rPYcfix0uV2Q6AC8CtGzHDoWFSgwaqSwPlANyJ6VnS6berd9Pn/v1JlbbuPk5P3PkfVZo+84SzX7wmrMitC27lBM7RWxnN1ef8juvzapsPvOaTp7r6u3hb4z5gu+A1AMAF4AJwXRNP8IMMjgs2bVQNBA24L268mUYnZlXScMtbnRhyV978H2j62J1qW5LdzQhthp9gAI2QWlrgOud3XI4DP3iVx+W+jhjrpRIicuy6trwG9kvqf9i15tkAgAvArXkRw4lhIoMGqlMD5QDcwdEZ4nT349sV2OrPvGXQ5e3KX/6H0v0aA65XhNYFPun1ue5Ir99x3U8WBDvreiN6GYSEWr/9FKUSMQ+w1nVjC38ADbAGALgA3NInApfDx8CCc4UGoAFLA0ED7paNNyuAZYjlaK2O3Gqw1bC7d+9rpfu1nBFcoXOVV0NqHsd9HyDzgVq7fgnEkVii9HuE74YN61gDAFwALgZ4HQ9wgJaADfRz6GM9cMB94k7qG065kgRd3ufzW564M4B7zbEG19BTMh4lL+j0Pi5BVmpUHhf7hcC20S74AGlf7DeSHgC4ANwAJgI4jUZyGrhX6D1fDQQNuBufuJPOX0ipyC1vZeKHzTiSy8eCAVxrKQBHTV3LD/TbEhJx+3VerAcLhtV6XL/jLvAU8Op7XObhfa/1vtBivlpEvsbTCgAXgAvAdU0wjecE4PjR5+XSQNCA+8QTd9K5AQtw9dsT5JYBl89zvsDuyVwe4KzLtaDTWTbgLBnwOy51JuHV77iRx2yHcz1ZHvuB9TvmheDGUIVsCcCta8DtpJamJmoSqaUTDhAOEBqABsLRQOCAu3Ixne6dzlh/q9fi8jlOgQJuhSZnaDQcjcLO9WtnAG7dA24ztfbbAu5soaamFuosq8NmqBbXLOu16ndgwumib+tBA0ED7kobcDXI+m05Xz3YD/cAPwANFK8BAG4jAW4qDPgM4xrFCx7OAraDBsLTQDkAt7N7inIlAG54fYzxBFtXqwYAuI0EuBzBbW6lfh1V7W+lZmf5Akd2+6m1uYlcyxhkmYz8PLAtoG1paXYthVDLIlo6EUXRtsYWWmhADQQPuA/RypX5pWqddNEuACE0EI4GALh1D7hiDa4LOI1Ia2cLNbf2U4qBVuTrbNHA65NfAW6TVVZN4Ea+BpzU4bzCcV6wc/XbOWjARZ9Xf5+jj9BH1aIBAG7dA669HlZFX8X6W1c01oZgBbYMqDpfJ7XoiG/W/HLNLQC3WgY32oGJptIaAOBCg5XWIK7fuBoE4DYK4KZS1N/anI60msArIq06n94qB+Gb3wRa83PjDi44VvR9o2sAgIsx0OhjAPdfuTEAwG0gwNXrZa23KjCIyqUFQoQMs80t1NKsI7l8zi+/CbTmZ1GvgGgMetgFGqh/DQBw67+PMY7Rx9WqAQBuQwGuFcV1HjQzlx04a2+th83kWlwlYM/8mUDL63bxkBmcXrU6PbQrPG0CcMOzNXQNW0MDbg0AcOsacN2dDfHDHtAANBCmBgC40FuYesO1oDepAQAuABevb8LSCWgAGiiLBgC4AA4JHNiHHsLUAAAXgFuWiS1MEeNacJrQQPVpQMMtb6empmhyclKliYkJGhsbo9HRURoZGSGehIrtv+c3/po4meVfXnF5xjEzDz5Xn2bQJ+iTIDXAvqWnp4d6e3upv7+fBgYGaHBwUKULFy7Q0NCQk4aHg4PBeqyL7L9IkB2EujDgoQFooBY1UG7AZbAdHt5N5/taaPO6mxygZbj94OIQAXIxbmpx3KDNwekWgBsctANw8TWvM8nCSQXnpGDL2rRlOQGX4XZ6Yjed722hzrPbFeB2v99O25ZeRtsevkwBLm85laafBMUiUYonA+6DRIwikYidYpQoxHcm4xQtuU18X/r61jYaT1LKVXeZ7r2Qe0XeEvUbsG5rrD8AuABcDKAaG7SlTdiN7fBgu/D6v1yAq+F2eIjhdht1dj1Hg/1dtHnJpXRxvM1KY210kdN4mzpefL+XAfIURAqoTcYpnihHv2Rre7Zzui355NF5sS1eY7BduWwHwAXgAnABuNAANBC4BsoBuGm4fYW6e7dTZ9eztOSOrzttX7fgEuI0172W1i+4hNbPv8Q5V9wkWgbI4+htNE7JsmsuW9uzndPAlU8enRfb4vQFu5XTbgBcAG6JEwAGaDkHKOqGvmpVA0EDLsPtknmfpyXzPkvdPRy5/T0tufUv6VjnSrrl7sccP7bmlg/T7MmFxNvz55LO8eLs6Ia8REx8rR9LUCqVpHg0QjEZgRUAm5mf9cx1RkgtCciAXKs+vXzBqtdqQywWpUiEI7+yTfZ+gpctiKUG9jV0PRHVVjmWZB1+x408KvKs719EoDPuQdaH/eJ0B7sFYTcALgC3xAkAAzGIgYg6oKN600DQgLt00RXUfmoHtZ9M0JJbozbcLqfOU/dT1+mFLshddeOHqKtnKADfZkCeA3PiOAOtAEiGWhfwqjIiv/qcBtl0XutYJvhyWQnEsi7rnBMRznsNrV1OrMOVMG2tOTavI9YiJ2I+gI5xXG/juJbvB4ALwA1gEoBTq2UngLZDv+XQQNCAy218Zu0t1N65gZ567OvU8e6j1HnqPuo6PZ/On71JJR3JPXKqh25e+WIAvk1CXopSrofDNPBxHh3RTFBMLj/wzC/0ZkdFFVyaa3O9YDoDlo32pVKUBuzMc+l+9jsnj4t9V/TWjuIKqE/XK+7NaT+OwT6V0QAAF4AbwCRQGfHCacDu0ED1aqAcgMv9/VTT7dTx7iPUefJe6jp9B3W/9+sMwI3+ZGXwgOsCUI62asBNUTIeVRFNvVW6zJJf6pbLqAiwK7/sVwGaOQHXioq6iJUAACAASURBVAJnRmNlfbxv1qnPy+Ni37dtuhy2sk+xXx16AOCGBLgdHR2EBBtAA9BAo2ggmUySTu3t7XT06FEnlfpDDytW3E1dp26n82dupIH3f0ozqS6V3jvXq/5hDwxwxXpaFb3V0VkFfGnAVa/XisYoFtWRXDva65U/ERevHZPLEuS+BAQBmp6AK5YvuEDULJetTn1OljH3xXUQnUVgqAY0AMANCXDxH512oNhCC9BAI2igXBFcbbt7H3qQBt7/CQ2//480M9VKEmrlvs5f6NZ6T6yAWPuBMvXgloJZj3Our+0tYM3Mz+CoH9aKuNbv6gfQ9MNh3pFYEzyjZD2AZtVplbHGmPOQm6tdfE7WIcejPC73U/Y7cv3aLevAfqFaQ/7yaAaAC8DFf6I18J8oHGB5HCDsWj67lhNw733wQfryNX9BB/ZeTQf2fpWGL+wNHHBrQxsGhMKXYT6DBhwNAHABuI4YasOhl29Cxv3DttBAcBooF+By5Ha670c03fd9+vLVf0Zf/vZtyofxQ2UcudUpmIfMgrNHebQFwC2PXau939G+fPodgAvABeDiP15oABoIXAPlAlwG2vaj36H2I18njuTqie61g2fUg2UMtpz4sz5Xv1sAbv32LSC21L4F4AJwG2ASgKMo1VGgPDRUqAbKBbjcDoZcCbeFtg35oWdooP41AMAF4AJwEb2DBqCBwDVQTsAFnNQ/nKCP0celagCAC8ANfGIrVZQoD8cGDdS+BgC4td+HGIfow1rWAAAXgAvARfQOGoAGAtcAABdwVMtwhLbXvn4BuADcwCc2OIbadwzoQ/RhqRoA4EJDpWoI5aGhUjQAwAXgAnARvYMGoIHANQDABZyUAicoC/2UqgEAbl0Dbie1NDVRU0un5+TV39pMTU3N1NqPgVTqQEJ5aAgacGsAgOu2B/QBe0AD4WoAgFv3gNtMzc1eEGvDLwDXE/7hiMJ1RLB3/dkbgFt/fYpxij6tJQ0AcBsAcFtamqm5td8Ncp0t1NTSQi0AXLdd8FU17AENBKKBSgLuyysuD+QeamkyR1sBn9CAWwMA3AYA3NZ+jta2UKczcfdTq4rq8nER3e1vpWZe0mCnlk4WC+dtImvfFg/DcXMr9XN9rjLyGm6hYeDBHtBAY2mgnIC7463jdO+zR+gHD++m65f+gf5p6R/U57dO9BHD7QcXh9QWmmsszaG/0d9SAwDchgDcFHW2CEhlKFWAKgHXWrLggKwCVxt+VbQ3vY43XZcsn6JUZ0tmpNiBagw8OfCwDz3UuwbKBbjLt3coqP3F6r20YMNBJ+090U/bll5G2x6+TAEubzmVZOdEjCKRiJ1ilAjEn+HndUvqk0D6AP6nEfoAgNsggKsirXbU1RNQFdC6I7DufPpcJ7V4Rm/tyK/PA22NMJhwj5g0oIG0BsoBuAy337pvJy3Y2KZSYl8XHTs3TH3DU7R5yaV0cbzNSmNtdJHTeJs6XlS/JOMUjQioTcYpnkjfX1F1KjjLB3DzyRNEW1BH8f0I21W77QC4jQK4aqlBM7V26ugtD04Rgc0KuCniNy7wOl69VcL2KFPtgkf74JShgXA0EDTg8rKEr9+9k259ulWl5948o6Kzp3rH1Hb24ge0bsElKs11r6X1Cy6h9fMvKT6Cy9HbaJySgUcM84HXfPKE048YL7BzrWoAgNswgGstIeD1tekHzgTgKtg1ljHIdbsMs80t1NKsI7k86K1lDen6tCMw69XrfOVxnRfbWnUeaDe0m00DQQMur7n9xWNv0W+efEelkz2j9E7ngNr//Z7TdP7CJLW/N0xrbvkwzZ5cqLbZ2pf7HENmhKLxZCYkq+iuuXTBgtJYLEqRSJSi0QjFZMTXAWYDXjPqsq7rLI2IJTKvHzh0Q8u59QAb1ZqNALiNBLgqimsCqoZP84ExcVw5U+ths4x36qoobvrBNOu8BFm/fTiLWnMWaC80W4gGggbc2CO76boHWugfH3xNpQOd1pthdrf30NLnjzrH+fOqGz9Eb3T0BgCGSYpHLZBNw6oBqImYDcEWmDpAzEAr4DQR08Ary8v9FKVcdUUpnoTmCtEc8kIvUgMA3LoGXIhdih370AM0EJ4Gggbcq+/ZSV+9cytdscBK317yEu091uNAbO/wJPExPr+z7SxddffLzrmS+92OsirIdUVc7SiuAlkDVlP8Wa/hTVDMWe4g8uVdV3j9VrKtEF0OTnewZUm2BOACcEsSEJwhJh5oABrw0kDQgMsR3KsWv+wA7r899geKPfyKShteP6H82O9eanfOc36vdhV7LBmPWhFZBaUaXGXfC3C1wYTLcERXb61ri3wF1FVsu1FO9hH2G0kPAFwAbqCTQCMNHtwrJgtowF8DQQPu0heS9M0lu+jqu19SaWJ6ll49/L7a//4Dryg/9ujWI+rzN+7dSSu2d5Tm2xJxsUTAWqpgLT9gQPVamyvAVUfeGGCjMYpFJRDLfAXUpevEtrR+hf0axn4AXABuw4gdMOIPI7ANbBO0BoIGXH6LwhfnbaV/evg1lV4+eE75roHRKZpMzar0s1V71DnOx/lLuycLPj0f9jKXFnguUWBN2Wt4xVrclFq6INbXetaVIl6zq67tKgudltansF8j2Q+AC8AtcRKAw2gkh4F7hd7z1UDQgMvXfWRrB3114Yv0k0ffoHnrDtD2A2fpdO+Y2t6/5Qj940Mt9I0lu1S+fNuJfNA0NFCfGgDgAnABuPjKChqABgLXQDkAV0PuFQtfpB8/uod+/OhukfYQH2cIBrDUJ7CgX9GvhWgAgAvAxWQAuIEGoIHANVAuwOUJjpcfLH72MH3vgVfVg2e8vW/z0QCWJQAgCgEI5IVeqlkDAFwAbuATWzULHm2DQ4YGwtFAOQEXfRhOH8LOsHMtawCAC8AF4CJ6Bw1AA4FrAIALOKplOELba1+/AFwAbuATGxxD7TsG9CH6sFQNAHChoVI1hPLQUCkaAOBWMeBOjQzRaPf7AFBE16ABaKDmNADABZyUAicoC/2UqgEAbpUC7kDPeXrn8RV0vGkZde3aXnOTW6nCRHk4N2igtjUAwK3t/sP4Q//VugYAuFUIuN3nztFLv99Er654lCZbXqDOjU0AXETwoAFooKY0AMAFINU6IKH9ta1hAG6VAe746DDteXoxHUseo/0tLdT2dBPtX/ZAkROb8Us8kQjFErUtWDgc9B80ELQGMv2E9ZO04te0PH+aNns7ALjZ7QMdwz7QQHk1AMANEXC/fts6+tq8jb7p6tvW0nP3/YgGD6yifdvW0rFkB+187jk6f+pkCYArfhIyEaNIRP4mennFhcEL+0IDtaABBlzhJ3SkPBmnuPMPsU8enddjW0nAfXnF5UX6zFroL7QRfgUayEcDANwQAfdri3fSt7a855mubT5Nzyy/kQYPraHhNxfTqR03UWLZzfTTBxIlOGpzUjI/Y5DkM0iQBzqpbw3k4xeSFI96QLAH2GpbVQpwGW4/uDhEgFyMW61FbBtTCwDcEAH3yiW76NpH/pCRvv3Ia7Rp6Q002LaahvfcQ6eev4E2L7iGrnvoZeIyxQ9OY+LiCG40Tkk9KSXjFI1EKKKSjuzaZeIc7bXO6a8ruR2JmM4foUhMw7ddJpGuj5dCJONRzzpSntdtzAFYfN/CXrBdUBow/IT2D64t59E+Ir/rBg24Wx/6LGVLF94/TNuWXkbbHr5MAS5vOUEn+fUX7AQ71ZsGALghAm7z8m/Rq8cGadvhPld65cn5NNHeRFP77qWBXbfQaw98l1545wztTPYTlyledDwpeQEpD2RjUkvEyAJZu4yGV99lDbK8XUbDsyoTsetLUcpVhyxnnZMAXfy9wjnBdtBAcRqwx6/wFeZaff7HttBxGjTgJh78HLWPkW/avORSujjeZqWxNrrIabyN+HhxdtG+S/vQwgDf95rqH/zCouG+dal/QnL3X/byxY8bFcRQc0W2Nkifny2fbAd/Y6DtXtizI8VotVz2Qb2yT8PfB+CGCLgvrriC3jg9TuNz5KRTyTbqemcFjXZspMk/3EbvLL+ehsfTebhM8YNEOBblVIWDdkVRbUfiOCrpfEUd7ExteLWiuzqfkceEZ/nZ97rhi794u6KtsF09acAcv/LeLNAoFG5ZH0ED7ub7P6/g9lTvFPmldQsuIU5z3Wtp/YJLaP38S4r3nx4+M70mWdqo0vtG/5ntdkXiA2wrX0cHNaSPz7iebJ/cT5H1bZ6Yl5yyCUro9d8F30/hy2ngzwLUhdOHla8TgBsi4G555MoMwN22+g7qO/Ecdby5hvY8/AMX3DIIc5niB5/bmfB/285E5es03GVckV5XGelEspRRYhfnXXVUfgAUb1u0HbarFw2I8emanOQYL/xegwbcTff9tQLcV94+TxtePE6/23KUHljfRgse30dTMxedtOaWD9PsyYXE25I0yv/MOwBX+P2XdG1XP+S6ttl/5udc5Ys775pPigXcrOV0u/h+vCBYn/fYct/pbyELsqVHXShf2jiqoP0AuCEC7qaHrnYB7tkznfSDa79OiUdvovY925yorozwcpniHaXp6ORn3vf62lHm4cEuPkuHr0C1iAiuqi/XdcU15fUrOFCK7wM4TNiu2jUgx5toa4mQEDTgPn3v3yjAPdc3TjJNz1ykDfdeSff/S5QWXf/n1H+2nVbd+CHqPXu4BN+pfZ+Xr9KRR/0VuoYvK9qtn12wlnl4HTPsrXyprkt+HW/n83keIj2ujPrMfnPVr9ua43mKnNc0//kx2uDy1fKc3Le/EcwFoub9qLotuzoBGzk38Xm+55r450SMN5fNcDyt7+JtAcANEXCfin/TBbjHDr5Nx9ve8gRbDblcpviONpxJyn7wSw98l+PTD42ZZeRn4ayjMYo5T1XLPHpi0PDr8TnndWV9cr94oRdvQ1wTtqt3DXiPMfmQqIY2ByjymIyDBtw1d/9dRgSX4fbRH36OTj31I+pNPkFnXriB9sy7mk4lD9D05EgJvlP3edrnpdclG/bSzy94gZjXMdc/7VyXgFrlG7XvtM45kUiuyzOSaedz1lCnIdYVoOA+02119Z+8n0KuaV4nDenudnrU79lWbXNr6+jPF4C5Xm6D3sryXsfkeew3gl8H4IYIuKsXf9sFuBpis225TCMIEfcIhwsN1JcGggbcVQv/lwLcnqEUcUrNXqTfx69WYLvqV/9Am37+Hdr/xC+pY+X1tP3XV9K/fumjwflO+59yBbnmP+gMawxh9nHXPwFexyTgqvMSFK3IqgXTEgxZG+ZnrRfjuKrThmT7+vofFLXVwKiAWUOphGq9n+uast1GG7ICtKhfttVVRt+bfu5DlJH57HtI//Ohy5kRZn0c20byswDcEAH30UXXFQy4XKaRBIl7hQOGBupDA0ED7iPz/14Bbv9IijjNzH1AD/3sM3Ru7T/RwKFHaf73PkWb5/8jvbLkh9T+8Peo6cdfpMcX3RiY/1QRRQdkJdy5+0tHHiV0uY8JGCwH4KasqHMaxj3a6rquhEHRNgWS5md9r3xc1uuXj/PLc3Kfz4m2SnA19vnNCNKejo/wBVyzfbrd2Dq2M2xcj8cBuCEC7v3zv18w4HKZehQe7gmOFhqobw0EDbgP3P6/FeAOj8/S8PgMzc59QPEff5qe/8W1dPx3MRp861b65Zcup1Xf/Tq9NO+79Oad19JPv/jx4v1nIk7xpO4jC8Ss6CzDk8/aXBsaGGhdkVx7eVi6vI5IWnU58OYCTxMGzc+6bcZxV1TUqt9si3objmupmmyP3uf6jbodKJJQnC2fHYHV1zLrc7VV3w+XSVDCuZZsg7nPkM3HJGxjDS58q6UlAG6IgHvP7dfT6pV30bIHbsw7cRmIVTg+x+nhGHQBDVSzBoIG3Htv+4oC3PGpWRqbmqW5ix9Qy5PfpOXXXEVv3XUNvXHnN+jCH35AP/3cx2jDj75Jz994Df36yk+X4D8ZnPRX+PoZBVtzCsyMc66v/G3g8jrmCXm6rmxwKeFOat9op/mzy15ttSOnaslCQc9TpK/rhnizDfwPQNy2n3lP+l55K8+l69bLPfTSCucfAMd28h8O49kSniPY7nopBuaMEsaA6JMatCMAN0TArebJCG2r7YGM/kP/VZsGggbcO2/6Ks2/6at0583WtuvUUZoYH6FbvvEJWnr9X9G2G6+mZ392BY22/D395K8+Rou/+Rn6+Zf+n4ad3MuuBwZnJzJbTePPjC5XU9vQlrLrUoA4ABeAiwlADIgwBx+uBWdfzxoIGnCz2epXX/0YPfCDKC3/+pW04tp/oO7mT9Iv/vpjga7BzXb9Rj2n1hZXWaRU/Zx8lbWpUfVR6fsG4AJwAbgAXGgAGghcA2ECLk+k/EBZ7At/Qj/4/H+m2390DeAWmg5c05UGNly/sKAIABeACyeAiQAagAYC10DYgIvJv7DJH/aCvepdAwBcAG7gE1u9DxrcHyYGaCC3BgC4uW0EHcFG0ED5NADABeACcBG9gwaggcA1AMAt38QNKIJtoYHcGgDgAnADn9gw8HIPPNgINqp3DQBwofF61zjur7o1DsCtEOAeeGUBtbYs9EwHXrmTRi6cA3giqgYNQAM1qwEAbnVP/oAz9E+9awCAWyHAfXvXAhob7fNMh3b8mva9dCsgF3BTs3BT744T95cbDgC4uW0EHcFG0ED5NADArQDgnmlNUPNvL6edD3yJplJzGendltup7YVf0Js77qDhkiK5mb8uk/5FmCyi0r++U/JLvP1+eSfLtQG1gFpoIGQNZPoJ/dOu6j2nzq95GT+HmqOfALjwc4A3aKCSGgDghgy4/V2H6IU7/l8aH+yiXQ9+iV6Kf5EOJO6i8ak5J53acw+92zKPWp//N9q97c4SJjsDMBW45pqkrMkuLxDOMcH5/445Bn0lBz2uDf25NWD4CTGu+aX5xfoCAC505tYZ7AF7hKsBAG7IgLvz/i9Sx0sLabL3bZUG391Bb675DnW2bqXRydmMtHPzb4MDXOd3vLOJzH+yK3xwBllXtjbjXOF9A5vBZloD/uM0EYtSPKnzFbatJOC+vOLyEvxmYfcJHcFe0EB1agCAGzLgnmvfRdvmf5K6376HEr+9jHbFo3Ry16/plUeupOHx2Yy045nbSnDUxsTFEVy57IB/S9z19SPnj1DETtbXlFYdsViUIhE7+ptRjsXNv/+dLmtFfezrJ9LX0V99wiFUp0NAvzRivxh+wongusd0oWO3UoDLcPvBxSEC5DailnHP8OFpDQBwQwZcFt+x11bRszf8MSVu+zM6sHUJbb3zE7R30y10YWwmI23ddHuJgJuGzojr97mNSS0RIwm06agN54vY51g4PuUYnl3167yRNFTntUQiLU4MVNgCGghDA9YY1//Y8jZzWYIx7h0I9m9fJQB329LLaNvDlynA5S2n4jVk2yXDr1n3bK1PLj7CXXy7/G3uX2dmH2f9h0UFMcp9b5ltytRdMfeau4zqO9Wv2drA57QNsuWT13P/U1jI/fByoKx9kseY8+9/2cbG2Qfghgi4/HDZwYS1pvalxFLqH5mhvqFJevnBr1Dn4d3qMx+TacuG+SU6aHuAKocl1t+6orA2BDsDXg9qHghykKco5VfOPu4eoEZZsy4M2BL6tnGcFJx2ufvaHKfe1yt0Ag4acDfddBltfeiznqn/3CHavORSujjeZqWxNrrIabxNHS9OQ5ZdolHpD7Vt+Bz7Ta9zOk81bc0+ttvvA+/F2avQ+zXaZM5R5Zof+DrON5lGG1zXlOfkvp4HxXzqlEtQImHboeD7YTiuFT0V2teVyQ/ADRFw96z5J0rc+lHqattKG//1/6RN//ZHdOLwbuodnvFNz61bWAIEuQcl/9fqAKjv4HOX8QZcr4FtCdiKaugIUI66HKdQGfGH48Rxb7BztWvAHKfe7S30gbOgATfxwOeIITc1M+eb1i24hDjNda+l9QsuofXzLynZf/LyLMdvap+lvrGKiQift82qR/sefew7B4R1L2abzM/laYdrHswadJHtkfvcLvOzV1s5j/9c6akNz29CverGMU/76fFpbwG4IQLutgV/QadfuZFemHc5Nd/8J2o/Me8TdPpUJ3VfSHmmTWsXleyg3csN9H+IPPi8vhIxB67XZ69y6QGXdiBeZfX10/nzESrywF7QQLk0YI5Tj+soGCps7AYNuM/GP09TqVna8fDn7FcrzqrPzqsWp+fo/c43aM0tH6bZkwvVtjTNaLvwVoKKjrTp87a9lI30kjCd3+sra69jKeJ/IJxlIjKyKuqNxuNuqBbnnGckjEnesoHRVpXHaod8XiL9rIXOL/PY98kQpiOgnte3y8Zjzv1k/IOgrq+vIer1uW95b952yveafD9Sx0YbXLaT5+R+ilL5gKhnHsuejj2kLfnabE9tW1dbPMYkzudkIwBuiIB7MHE7tW64jvoPPeSk/U1fp13Lv0PnBlOeaf2Ti3N2or8TNwZlKkUqwqoHkMs5Rew1tGYZ87P+esZwxjxQnQfUtHM3y5qfMWj9+w62gW3C0oDfuOTj6XFeyHpC7rugAXfDki/QxNSsSjuXfd7ZH5+2jy3/axqfmqWe9w7Tqhs/VILf1HZP28UVvXYgJH0+I6Knn2nwghyvYy5YMevV34jZ/ttZFiHzWdDlgJOrPr4fI686L+GVz8vAhchvtDdtC5GH69P3rK6l5xMbBl3/IEj7pvUlITajvU7duqx5T1b7nedA1Hyk5yGzjDxul3N0bp7TMJwtn6xf95G4f8++4OtwnfJ6+p7MY+764RfztwcAN0TAnRwfpddWXE3P3/Zx2rc2Rv3HErTl1o/TieMd9F7/tGda27QkAEedvyAweGAraAAaCEIDQQPuk/f8LY1OzNDo+AwNjYzSa6u+QCMTMyq9uuoL9PbO56l56bW07ZGf0XtH9gXgNxlAbMBxoNaKtMqop/qGzAwWMDBxNNI+7gJPr2M2IKaDBJnXtfrEaJMDZjYoimtadWlYEuUc4JLRTPO8/Mz7oh6/AIm+5wyYlnXJsWUcV3YR9+11b352Kuia+l64LUYbHNuY54x8sq2uMuL+FGRrQBbHxT1k/tMo+8Qo43cdHPcd6wDcEAFXTxrTUxO08Rd/RJtv+i906K0X6UzftG9qejzu23m6PmzhCKABaKDaNBA04K6+64s0ODaj0oWxFPX2dtOex/+G9vzub+n4wZ207b5r6cj6m+jc739FO2/43/TorT8r0XdKqLHBg195qAFPwpECHglObj26n02wzrmOucoLyOHjzvW4nGiTq4z7eplaEOU0ELnKm+fdn/WyM71V9bvKy+u7y7rarK+ttmY+vm87Wu1Xt+u4sJO0i2fdun18TdlPZht0Pt7Kc3Kfz4m2uu5Jlpf/DLmPqyUOvm8rke0zymW5VmafoywAtwKAy0Jc8/hSWrf+8Zzpd6sfLNFJQ+QY+NAANBC+BoIG3AfmfYm6L0yrZxXOD6XovNrnz9P08orv08zeW2nVr/6BVt1wLb37+L/T0m//N3phdSnfgBlQoyJyPl/jKxiS5zLt7YJDG1ScY1y3BlkFcTryx23ItkQh+zXTujfuxW5vOoLodV63Qa8NjVEsKuHLapsrOu0Jl2bd2jbGcY/7zqg7q51Ee11wqq/HWwnF/NlogwRIeS0zn6utov5EghJOHbJuc5/tyMekPbWd45R06hB141jBLATArRDgDg4OUL4p7aQgdtgCGoAGakMDQQPu4lu/QucGplU6K7a8/9ztN9GBO35I069/h+Z/71O07PvfoLYF19MD/3xFwZNiWl8SStjmDEcSSIzzCnrEmlJeLmBDsWu5gNcx+UM5UQZJAWsif/aHzHKt+xRt00svHGgy7sUEOt0++RAYl/W654yyZt1av3w8S5s867Yip8qeLjuZ1zA/62taa2TT4Gy2gf9h4Af5uF2iD9Q9ZWmrtqPR5sx/IKz26+vzPzjOPzZcB/e1aWNdN7YFj2UAboUAN+1E0wMPx2ALaAAaqBcNBA24t//mClLp1/aWP//6CjpycDfFF/yAFnzlL+mted+i9zf+Ff30cx+jx77/Vfrl35TymrAq1KICKAnZVdjGagcxtqGOlldVW83oMvq2VF8IwAXgFvxfUamiQ3k4Lmig/jUQNODm0gyvub3xi5+kNdd9jXbO/+8Kcktfh1td/aRekVWVcFZddsqlFRU5rbJIqerbKmtTLjtW+3kALgAXgFtV/8XX1kRR7Q4O7aucnsIGXO5rXnO77JZf0I+i/wctv/X6OvBt4it59bU5orcY05Ub07VmewAuALcOJgEM+FpzPGhv/Wu2EoALXdW/rtDH6ON8NQDABeACcBHBhQaggcA1AMAFiOQLIsgHrZRDAwBcAG7gE1s5hIo64QChgdrSAAC3tvoL4wv9VW8aAOACcAG4iN5BA9BA4BoA4AKY6g2YcD+1pWkALgA38IkNTqC2nAD6C/1VDg0AcKGrcugKdUJX+WoAgAvABeAiegcNQAOBawCACxDJF0SQD1ophwYAuA0BuMarZqr6PYo+v0CjXnAuf1mmFIfg9es1yTwmeNG2YttTbLkCAEy9T9H1C0HWL/DoX88phyNBnaXosT7LAnDrs18x1tGvtaIBAG69A64CqvRvmSthJuMUT1RykApQzAC3bOeCarN5Df6c7Wcu9XXNcvp4sdug6zPbUe76zevhc604/qDb+frrr1NbW5vrn0QALsZD0DpDfdBUIRoA4NY14FqR2/TvYVfL4MgGXtnOBdV+j2uofwRyvUTdo1wGoBfSxqDrM69d7vrN6+FzIc63nvKuWLGCPv7xj7sgF4CL8VBPGse91J6eAbj1DLj5QJsd4Y3YX2mnYdiGo3iM9DnrK24PaE7EKKKXPbjq08Bo1RWLRZ26dJ2RjJ8m9IMyedyvbfYA9GyDHJyyLn3cuC/POmQ5j/1EnKLCjurnIO3P6eUBuhxvraUDERXzTQAAIABJREFUyhbaDlmua9mPbepecpLuM30vequvZX921W1E9UsCdX09bBt5ElyyZIkLcisFuC+vuJw+uDhEvG3k/sC9wx81ugYAuPUOuBo8PQHGgiwHkBQA6XWuNoBp8GKIjdjAyvv6eCpFvObTqsMAqkSMLLCz6sqEPC8HZNThtFset+pz2iDblpL5UpRy2iCvZeRR15CAa5x36pDHzf1IGvJVeyL2vVttcGznap+sg9tnfHZd16hP2N/ficn6eF/3U4pSrr6WtsG+vz1hm1y2kZBbCcDdtvQy2vbwZQpwecspV5v9zqf9mu53OZ7sY4YvzKzLo4zj03S9oi7nn14dHDDy+JX1O45xXnT/Z/ZliX3h10c4XrY+AuDWO+BqKPUaRMr5uR1p2qmbjll+5n1dLkExDdGqPhGVZGetQEyWZSdhfpaOw++cPC73jfp825DrGgy4Ntz71iGv67dvtEfZ3S+vPK6hMw/72e1L/8Mg703ui/pVGd1nVp50X8sy2MfEVpoGrrrqKvr0pz9NYQLuqZER2rzkUro43malsTa6yGm8TR0vqk9NePUYd/wtTfZxKMaglw/Wx8zxWfHnJErTQFH21rbAtmzA12j9AsCtZ8C1v8p2IrSm4zCdarZorAGl2rHrrRo4HvVZA8p08uZn6Uz9zsnjcp/Lis++bchxDVlO7rtsJq4jr+naN9qjyudZLq/rpu+Dbc/LG3z7V7bLo24AbtqWjeb4y3W/YUdwmw6fpltefoce35mgmalRWrfgEpXmutfS+gWX0Pr5lxQPCzxm9D/vqRTxeIvF4xR1vj0R/xS7/ITUlRz78rixzzAtrlWu/kG9ht19+w356kErANy6Blz99bgBQU50gJ2vOOeCINMxG5+V849RLCqjglZ9mRENo6wErwwHY+bVjkYel/t8Xn7mffF1fkb9Zn79WdhB1edVh3kduZxD7+v6/D771aHL5bou50sn1z8Y4riVx7yWuEdXX6frk3VjH3YpRAMSbrlcGBHcudmL9N57B+nk+wdpduQsXZwcoTW3fJhmTy5U2+MnT7jGSyH3k1IBAj2ONczymNI+T+6b38DIPFGKi/X5mf6RdcZ1eY397PVa6/KjFI2Ksc1+wAFm6QP4OtZSLP0MhPPPsfIH+tsj3XbovzC9wF7VZi8Abr0DLjs7l/MSa0Uzzmlnrh1uts+2o3SiGfbgNq/luUTBWrfrerjKgTPL0WsHzFtrQpCOWu57tNWzDdL5mNeQ95nvfcg2yH2P9mQAePp6HEV12cGz7Ub9PHnltVbPKOeqO92GanNKaI/Uam3sV+ItCjc8+jb9Mv4K/fzuPXTtvFfp/eFj9M6p5dQ78j6tuvFD9PrRfvrNvMUlAK7xfIEdYU3E7LHjWsJgjDVj/bwTnVVj0G/speHTAU+X75DPFPD1tG+0gVb44vS3M7JdVv2ZgC3zyGvUhvbgL9BPfhoA4DYC4DrwiIHgNxBwHNqABorXwNatW12vCGNbljuCe/rCIG1+5ZiC2/f62ujs8EF6pv1nlNhyDR0+eoC+O38fffdHS0oCXBUJZXAUMKu/NdFbpRvXP4/yn1YDHl3LwHzsbdelIDfvevk6OvIqnouQgKzq0nnEtX2vIfJgDilNR7BfRewHwAXgVkR4gAlMHtBAfWug3IDLUdtduzsU4P5yxUHq6t5Pjy38M1o070v0o99upG/dsI0W/uy+0vwbw180Tglef6t/HIePxeLph1IZXvzgUQKmghwriurU5QM+DM/qAd2867XWCHN01gXe8vp+dfkd92kbxm19j9t66l8ALgC3tAkAThD2gwagAQ8NlBNwv/zz52l4Yoa2H+6mdW+eocdaOumL/7yZDh06RD/8lxX07Zu30jeu+y1t2vhQiX2jlw3IZQUcLeUorYyGWse8v/4XSwn8YDIRp3hSg5NcSpCtXtkmG7KjXs9F6HyyXn0t3vpdQ+bBfj2BX6PcCwAXgFviBADH1yjOAvcJrReigXIB7u1r3qGOnnEaEoC7/JUT9OCOY3TT6r30dvt5+uY/3U5Nqx8JxLepaKrxhgO1dl6seVV2UfCqH9RyvyJR/siNd/RWQ7Nc3mDrLUu9aSjmvDaMu9rF9WrA5Tzu6zht8bwG9F6I3pG3+vQCwAXgBjIJYHBX3+BGn6BPKqmBcgEuR2/nLl5UgPvS0R5av/cMrWx5VwHu57+3gXbvPUyv7Hoafs0jql5JPeDa8EdhawCAC8DFRICJABqABgLXQDkA99DxHurqH6eRqVnqHJykLYd6aO1b79HK107Rgy+eoF8t30vf+NcnAr+XsCdmXA8wCA2UrgEALgAXkwHgBhqABgLXQNCAO3/VfvrI/7eA/v66OF3zL2von+ftoFvi++i39++jq37yGP31dx6kv/z6Q3TZZxfS8u8dDvx+ABylAwdsCBuGqQEALgAXEwHgBhqABgLXQNCAy3D7xx+/hf70U/Po8v9+j4JahltOH/3LhfSnn7qN/q9P3kof+tg8+qOP/Dbw+wlzYsa1AILQQOkaAOACcDERAG6gAWggcA0EDbiY8Euf8GFD2LCRNADABeAGPrE10gDCvWLCgAa8NQDA9bYL9AK7QAPhaACAC8AF4CJ6Bw1AA4FrAIAbziQOWIKdoQFvDQBwQwLcjo4OQoINoAFooFE0kEwmSaf29nY6evSok8bGxmh0dJRGRkaIJyFM0N4TNOwCu0ADxWsAgBsS4EKkxYsUtoPtoIHa0wAiuLXXZxhn6LN60gAAF4CL6Am+noYGoIHANQDABSzVEyzhXmpPzwBcAG7gExscQe05AvQZ+ixoDVQCcM8ef5V+v/i/Uk/XAfg1/NMGDTS4BgC4AFw4gQZ3AkGDDeoDLLMGwgZchtvm+z9Np468QBsXXQ7IhV/D3NbgGgDgAnDhBBrcCQBIAaTl0EA5AHfg1EF666Fv0p4lV6j0zuqf0PhQL5078RptWPin9OpTV9Fo/3F6ccVfAXLh1zC3NbgGALgAXDiBBncC5YAb1AloLgfg7rn/GpoZOUsXp/pVunByD/3h0Wtp3Z3/mUbef4PGe/fT9FAHjffso77ObbThrsuo/3yySB+XoFgkQhGRovFcdXGZKMWTXv2f7ZxXfhyDH4EGStEAABeAW6Tzx8ArZeChLPRT7xoIGnAHTu6nPYs+TT3776Chw3fT2OG7aPjtO+jczhvpxWX/i7Y+8j+oY9evaPLcy3TslV/Ryyv/lnY+8S2amhwv0scVA6TZymQ7h/FQ7+MB9xe+xgG4ANwinX/4YoWDgM2hgdrRQNCA+9bSL1PfkTU0cvIZGj39rJVOPUPj51pocuAovfrU1bRj+f+kydMb6YWlf0Fb7vlkCXDLdi4GSLOVyXaudvoVYxB9VSsaAOBWAHD1y8/l9tixY3ThwgXAJpYLQAPQQF1oIGjA3RP/e5ru3e6bpnq20e6N36UXl32Gdj7+D7Tn/i+XaMcsQJqMU1QsXYglNPQYZUS+aDzuXr4gzkUiMUoo3VvlY7EopY/purGtFbBCO6tDqwDcCgDuu+++m+F4Dx8+rH71p6uriyYnJzPOY8BUx4BBP6AfoIH8NBA04L625O9o+twzvmmm71WaHU1S8vV7aKL7LXrtvr8v0Y8ybLrX4Fogax13oFaBql53KwHXnS8ZZ2j1ypeiVCJG1vpeq0zutb759QG0Cjs1sgYAuBUA3BMnTrheocMTwenTp+nQoUMKcvmnPIMRZSe1NDVRk5OaqbXfZ8D3t1JzU5bziKoF1Cc+9od9Yd+8NdBPrc1iXDe3Un9eZdkf5DvGC/AdPtcOGnB33f03NH3mibzS0JGHadfdXyxRUxJWxbhVQKsjrtbxRCxCafi1IZbzReOUdOwj6nNFb22IjiWKXBYh2uZcC8eCmUNhx1q2IwC3AoB7/PhxmpqacqWJiQniND4+Tvy77cGIyj2h9bc2U1Pek6HfwHbXGUw7/a6F47AvNODSgPpHtIlaOoVd+lupVX3ONTZznRd1ptx5i/EdQQPuiws+T9Ody/JKQ62L6cWFf1OiHxVAKsExMMB1Q7LVzz7XlNfHfon9KnWOfZd/qTNtAXArCLgcyeVo7dGjR1X09uDBgwp6+XMwonNPUilj0iruGmadcBDF2RF2g90K1YAVuXXBrWtCyjU2c52X7THzmp9lXu/9oAF36x2fpemOJXmlC/vvoK13/nWJftQPNvm4jtimKOUCXlnGnS9ziULEXpYg7SfLy+PYh7+ABgrVAAA3JMA9d+4cceT2tddeU8sQeJ3t6OioSiMjI8RpeHhYrb89cuQI7du3T+Xv7e0twUmbk5L8bO23tDRTU1MLdbrg187X2uIsb2hu7ScLkMVXoy2dJbQNg7XQwYr8Da4ZFb3lseplBx6z5tjMNsZ1HQzNXnXaPsBZ0mR+1uX9t0EDbvMtn6Gpw7fT9JE7cqaBPTdQ4vZyAa6GWr0+V6+rZVsYgJqIOe/Rzf6QWYQiWKKA+cRzbPuPMcwJ2W0DwA0JcBlax8bGVOKoLS9HOHXqFPEDZ/wGBV6WwImP8wNnnJffqsDnihexe1Jyf83I55rIAlcWicxrnWvSANvJoKsnQZkvu7iKbzfqhe2ggQwNMOBmXWJkjk1rHHuPcW3f/ADX7Tt02ezboAG3c1+Cnvzpn9Han3+Snr0pmjU9c/P/oHPtb5bgO7PfW0bfAExga2ig6jQAwA0JcBla9bpbfj0Yr7WVkVuO3g4NDanjOi9DbmkPnNmg6kR2NKSy8/aaDPUDKIWcw0SAyQ4aCEUDWSO4uca0cd5ey5t+ANWK/qaXP2TzHfn1d9CAq208OT5KF7pPZ00jgz1VN9nq9mObn35gJ9ipVA0AcEMCXH5DggZc3s+VOC8vYWAYLr6TTVCVA8Y8Jz/LfS4jP8t9WR/2i+8n2A62y0cDha7BNceq+ZmvmV8Et5j+KRfgFtMWlMlHX8gDndSXBgC4IQEuP0Cmlyjks2W45SUK1Q+4ctL026+vQQMniP6smAbUcqF836IgxyP3mfmZjwFwK9aX+Eq7hOANfBB0m1sDANyQALetrY0GBwd908DAAJmpp6dHvWGheCF7TWhaFOY5+Vnuc373584W+2EWtUZXnvPb19fEtvi+hO1gO1sD5vICsS7Xf2xyWTk+c+mpkLzedSGC620X6Bh2gQbC0QAANyTAbW1tpe7ubiedP3+evBJ3iE5nz54lfjgNgyGcwQA7w87QQHAaAOAGZ0voEraEBgrXAAA3JMDld95yFJeXKuSbGIr5F84g7MKFDZvBZtBAZTUAwK2s/aF/2L/RNQDADQlw2dnv379fvduWYTdX4nfmcv5GFyjuH04aGqhNDQBwa7PfMN7Qb/WiAQBuSIDLguGHxt555x0Frgyv2RLn4/z1IjTcB5wmNNBYGgDgNlZ/Y3yjv6tNAwDcEAG32jof7YFDggaggXJpAIALbZVLW6gX2spHAwBcAC6ixHhdDzQADQSugUoB7snDz9PGRZfTuc43Ar+nfCZV5AF8QQPVoQEALgAXkwDgBhqABgLXQJiAOzs7S5xOHXmBmh/8DJ0/vZ82LPovgFzoOnBdA16rA17z6QcALgAXDgCTADQADQSugXIB7lvbfkVmOt2+mbqS22n9gktp97praLT/GL286rO0YdFHAbnQduDazgeukKfyIAzABeBi8GMCgAaggcA1UC7A3fPCDZSamXOlvvcP09o7/phGzu2h8Z59NH0hSePde6mvcyutX/iRIu8tQbFIhCIiReNJSiXjFI1EKZ7kCZzz6P3KT+iAKvQBNJDWAAAXgFuk80+LCAMKtoAGoAFTA+UC3NcTv6Gp1JwrzcxepD2b/522PvJXlNz1K5o69zIdf+WX9OKKz9FrG2JF+rh84DWfPNCGqQ18hibC0AAAF4BbpPPHAA1jgOIa0FmtaqBcgPtK8800MTXnSjOzH9Dc3Af0RvO/0/Zl/5MmT26g5vh/VXA7PT1VpI/LB17zyQMN16qG0e7a1i4ANyTA7ejoICTYABqABhpFA8lkknRqb2+no0ePOmlsbIxGR0dpZGRE/TR5ISDx8nO/pdHJWSeNTc3S+NSclabnVCT3uXv/b0os+yKlUtNFwi1P7H7wKo/L/ZS9fEEva4hRAktfSrB/bcNVIZpG3vL0NQA3JMCFgMsjYNgVdoUGqlMD5Yrg7njmNhoen/VMY1NzxMsVjh94hs6daaWZmZkSAIvhVcOqtY0l2NYSav32U5RKxEit2QXkltAH1alt+Jza6BcALgAXzgcTEDQADQSugXIB7gub7qDBsZmMdGFshhhwJ6atdOTAtgAA1+sBMh+oVQ+fuYE4EksEblfAVW3AFfqp8v0EwAXgwgEDbqABaCBwDZQLcLdsmE/9IzM5E+crDTIkyMrJWh4X+wpwsSyhNJtLO2MftixNAwBcAG6Jk0BpAsQAhv2ggfrUQLkA97l1C6l3aCZn4nylaUvAq+sfIHnc3I9gWYLLVvWp7dJ0BZuEZT8ALgC3xEkAgzWswYrrQGu1pIFyAe6mtXfT+QupnInzlWYvCa9Se/K43DcfMosQlihIu2G/ND3CfoXaD4ALwC1xEsCgK3TQIT800wgaKBfgrn9yMZ0bSOVMnK8R7Ix7hD+BBrw1AMAF4GISwFdq0AA0ELgGygW4a5uWUFf/dM7E+TDxe0/8sAvs0ggaAOACcDEJAG6gAWggcA2UC3CbHo/T6d7pnInzNcIkjnsErEID3hoA4AJwMQkAbqABaCBwDZQLcH+3+kHKN2Hi9574YRfYpRE0AMANGXC7+kYCn0gaQai4RzhkaKC2NFAuwIUOaksH6C/0V6U0AMANEXB7h8bpx2veoINn+kKCXH7CF+9lrNTgwnXh2BtZAwBc6L+R9Y97r7z+AbghAi4L/lTPcIiQW2nANV6hg6+BQ/rHpvKOBc4dfQDAhQbgB6CBSmoAgBsy4IYLuQDcSg4uXBvOvZE1AMCF/htZ/7j3yusfgFsBwGXhhxPJlYBrR1MTcYpGrN9LjyVSlIxHKWJ/jsaTdoQxM2/6XObLzLkeazBb5WKxdJ26brzwXNsIWzj+xtAAALcx+hnjGf1crRoA4IYEuEuadtPiNX9Q6flXLZDUkHvIXpPbNzymQHHdtoNO3uWb9pbwtbYJuBGKROOU5KUCiZgCWwdc1We9XpfLibzqN9ajFE/yQLbOOVDrcc6pU+XV5eAEqtUJoF3QZjk0AMCFrsqhK9QJXeWrAQBuSIC7bNNeOtLZq9KqZ/c70MqQ+9M1e2jX4S76l1W71HE+r/NyuXw7MzOfCbgSNvmc32fzXIoSsQgpqFVAq0HYGmjOuQygzawns40YrLAJNFCPGgDgQtf1qGvcU+3oGoAbMuAuWv06PfZcGnB5sLx1/H267qHt9P2HtlL/8Bg9sPYNenDdmwpyqwNwkxSPAnDh2GrHsaGvKt9XGnCnpqaI0+TkJE1MTND4+DiNjo7SyMgIDQ8PE09CQffXyysuD7zOoNuI+iqvUfRBffeBBtyenh7q6+uj/v5+GhgYoMHBQbpw4YJKQ0NDxIl9EZK/Dcj+i3gNmkc37aVD7/aopQfy/Mj4JC169i36+aqX6QcPPU+n3u9Xjvnu372u8nM5mb+w/VIiuBFylhq4orZcpw27vNQh45xfVJgHkozo+u3X94ArrP9gC9irdjVQDsB9bcsvySu9un0xcTp28EViuP3g4pDaQj+1qx/0HfquVA0AcP2BtVCYzwq48bV76PW2s7Rg5St5AeudK3ap/Fyu+E4uBXCjJB8Wc9bcOlBrPagW8V3mYA1OXr6gHjSLJQC4eE1aCVqGsy/eD1TGduUC3OmZOZpOzdH0zCxNzcw6+zOpSdq29DLa9vBlCnB5y6k0u8l/xNPPLlgPz+qlWpxH+0Peyn/ype3NfHYQIeM5Br/ysi7sl9avsF8j2A+AGxLgLvrda5TYfZL+eeFmenDtnpzpl0teUPm5XPhCNJw6wKwCfQAHHL7uYfMgbV4uwJ2cnqPJ6dmMtHnJpXRxvM1KY210kdN4G/Hx4u9L+ELXt1XWt1dx9QYZkSdlv5lGP8zr8p3ufN5tyicPdOptO9gFdnFrAIAbEuDesXwXPbmjo+DE5cIXLZxs+DZ3D0xcH/aodQ2UC3DHp2ZpYmqWeMtp3nP9Ko1PzdG6BZeoNNe9ltYvuITWz7+kRP8pfCG/aSYvcBVlALgl2h9+oNb9QCXbD8ANCXB/OG8T3RDfVnD6+aLnKuAg/Bw0nE0lByuuDf3VkgbKAbgvbryZRidmaWRiVm1/vbGHVr86RD9b3UP/vrFHHVtzy4dp9uRC4m3p9pK+kPfFswkOvMo8rFHzs9ZtPseNPCpqrJc/6CURuj5sS+9f2LCebQjADQlwz3UPUjGpu28oACeNQVzPgxj3Bn1XowbKBbjD4zM0ND5D//L0Wfr9vlF6o3OSHtx+QUEuHxsem6FVN36I9u4NYnmXAZwp640yvAY3/VyCO4/68RzfSK+GVWtr1SHL++1b63+dB38duIb2q1H7aFN16BKAGxLgQvDVIXj0A/oBGghHA+UA3C0bb6bB0Rn67uqTtOPwOB05N039Y7MuyOVznIfzlt7XEjiF3ezIahpQJbj6RVp96nJFfEUeV/TWrl89rCvaAdANoI9hz9LHSXXaEIALwIWDwCQBDUADgWugLID7xJ3UNzxDX3u0Q0VseWkCp8/f0u4kPsd5tjxxZwD3JIDT0IiK1Ga8HSbbRO9Xlzwu9s2H2ozr1yuU4L6yaQjnCtEHABeAG8AkgEFXyKBDXuilETRQDsDd+MSd1H0hRd1DKfq7+CEHcjXg8rGeC9MqD+ct2c7ywbJE3P65ctavtVTBWjIgoDQrhPrlk8fNfa81vxg/Jfdr1n6CfevFvgBcAG7pkwCcBWwIDUADhgbKAbhPrFxM7w+m6PzgNL0/OE2fuWu/E8Hl/fODKXWct5y3lInaeretfCctw6dYiuAsF5BQmg2O/PLJ43Jf/5CO1zWzXQfnSul3lK0f/QBwAbglTQJwBvXjDNCX6MsgNVAOwF25cjGdHZims/2cptT2L27bTZ+at4fODkzZ56zjnDfI+0FdGB/QQG1pAIALwMUkYESe4MRqy4mhv6qzv8oFuF1909TVN2WnaTrDn3vTn61z0wTArU5dYLyiX8LSAAAXgAvABeBCA9BA4BooF+Ce7p2m0z1TdLpXJPV5ms7wuV7eTgFwoenANR0WmOE6wfwTAMAF4MIJYCKABqCBwDVQLsDlyGy+CaAQDCjAjrBjLWoAgFtFgHu2f5hWvXSQVu04QGt3tQY+4dSiQNFmOFZooDY1UA7AhRZqUwvoN/RbJTQAwK0iwGUBbNxzjG566nVatvWdAACXn8gVT+C6fn0HA64SAw7XhO4aRQMAXGi9UbSO+6xOrQNwqwhwj3b10283vEXN+96lFTvaAgJc+ZqbsERovOoGX/8G0Jdh9R2ug8kqGA0AcIOxI/QIO0IDxWkAgFslgHvwTB/99Ik36EzvsIIhXq5QuqgrBZqVum5xg6B0O+O6sCE0YGoAgAtNmJrAZ2giTA0AcKsAcBluf7zmDTrVEwTUygHkBZryF3hSlJK/1KN/Ez0Rp6i9tMH6pR67TuO30a3fYedz1nVisShFjCUREedl6LJd2A9zkONa0FslNADAhe4qoTtcE7rTGgDghgS4S5p20+I1f1Dp+VeTTnTWC27XbTvo5OVyurMK3zJ4yjW4MUqo5QJ8nPf1Vg8IO380TknOp4BWL3GwzjlQ63EuDcOcV5fTdWNbeP/BZrBZ7WoAgFu7fYdxh76rBw0AcEMC3GWb9tKRzl6VVj27X0GrF9yyqPi8zrvod6+XCLg+oMmR24yHzjLBNBGLkIJaBbQakK3B75zTkd+kdgqZ9dTDYME96P7FFlrIrQEAbm4bQUewETRQPg0AcEMG3EWrX6fHnttPfnDLYn9g7Rv04Lo3FeRWFnCt5QwA3PINQDg32LZeNRAk4HZ0dBASbAANQANSA7l8JwA3JMB9dONeOvRuD93zuBWR5fW22dbcLlr9msp/1+rXyhDB5Qir/xIFZ6mBK2rLZexorrN8QUd0zYhtts/ynNwH6OQarDgPjdSSBoIE3Fq6b7QV4xQaqA4NAHBDAtz4U3vo9baztGDlK3kB650rdqn8ty/blVd+7wHFACnX4EYoGk9QPMpbax1wMh6liF5z6/GwmLPm1oFaXZ9c+pAJqrx8QT1wph4yk+f99qtjQHjbEW2DXaCBQjUAwIVmCtUM8kMzQWoAgBsS4C763auU2H2SfrzwObr/qT/kTP927/Mq/81Ld5QAuIUOFgmfhZZF/iAHJuqCnmpdAwBcaLjWNYz217aGAbghAe4dy3fRkzs6Ck6/uu8FAK5680NtDzQ4SvRfo2kAgAvNN5rmcb/VpXkAbkiA+8N5m+iG+LaC0/duWQfABeCGqIHqclCYMGq3PwC4tdt3GHfou3rQAAA3JMCtB7HgHuD0oAFoIF8NAHChlXy1gnzQSjk0AMAF4CI6iAgxNAANBK4BAC6gpRzQgjqhq3w1AMAF4AY+seUrPuSDo4IG6lcDlQTc0aEe+DX80wYNNLgGALgAXDiBBncCgMz6hcxK9m2lAPf00e20bsFH6PSRrfBt8G3QQANrAIALwIUDaGAHUEkAwrXrG6wrAbgMt+sXfoQuDLxHG+66DJAL34b5rYE1AMAF4MIBNLADAGTWN2RWsn+DBty/+83vKVuKr3yEnrrjUnp55edoeqKfdq3+Aj1x+6UlQC6/F1z/sI21df3wTeh+A+8pr6Sece3a85UAXAAuADf0iar2HAWcO/qsUA0EDbhfu3cnXbu9xzP9YPPb9NTtf0ypoY6M9PQd/6lIH1dtQFlt7cGYKHRMIH+4mgHgAnCLdP7hChWOAfaGBmpLA0ED7pVLdlG2tO7J22j9wsto3zPX0GzfHmp/6ce08d7E5aaDAAAgAElEQVRPUsu664v0cdUGlNXWntrSI/xH4/UXADckwO3o6CAk2AAagAYaRQPJZJI4tbe3q3T06FHidOTIERodHaWRkREaHh4mnoTygY+Wx75Ch85P0RunxzPSke4p6hpK0a4XFtPGRR+luXNbaMuDf07PLv4ETU9N5lV/Zhu8gDJJ8WiEovGkVWciRpFonJL2t0CJmFjSEEvY17XrScQpai954KUOyXiUIvZnp75UZt6Mc0kbVJLp+iKRGCXwTVSR/dx44Jep9fq0AQA3JMBtFEHhPuvTUaBf0a+FaiDoCO6OFVcosB2fI/JNs3PUtmsRNS/5BL264XrasfyrJUAPw6YAVgci+TgDpd56acMGVQWjdj0ahBmKIwYku+qOpKFZQWyU4k49XvspSiViaegG6JbQ5159iWOFjv1qyQ/ABeDCGWBCgAaggcA1EDTgbnnkypyAOzU7Q3PT3dTVtoZSM2PEZYqfbCWkGpBjQ2rGQ2f2cSsy6wOjOkqrI7Guz5nX5KiwdR1xzhW9tSHciRgbbYW2S9AAbFn8+Km87QC4AFwMfkwA0AA0ELgGggbcTQ9dnRNwJ2bGaWZ4H80NbKfJyV7iMsVP0AIoTX14Aa6CTr1UgJcyBAG41pIIb8DV16o8SBRvY7QdtiufBgC4ANwSJoDyCRODHraFBmpbA0ED7lPxb+YA3Is0Md1LM4O7aWr8GE3MTBOXKV5HfoDLxz2WKDD06mUIvksLuE/NeuVn3hfLF1zQnCWfA+BmHj/Irm1tFd+nuO9Gsh0AF4BbwgQAZ9FIzgL3Cr0XooGgAXf14m/7A+7sRZpMjVBquJXm+rfR5OR5Gp+9SFymkDa781qwqR8Es9bNJlwPmakHxTTUpqxoq8ofjVGshAhuLJZ+AC29DELCa4pS5jIFtURB5vHbh47d/Qx71Ks9ALgA3BImADiGenUMuC9ou1QNBA24jy66zgW4Y7MXaXx2liZmp2hyeoBmRg/Q3NDrND12lCZmptSDaFym1PsIt7yEUmgwXNvD3vVmbwAuALfGJgA4oXpzQrif+tR00IAbn/99C3BnZ2kyNURTU900NdlFqdE2mhl+g+Yu7KTUSBuNp8ZpfO4DBbhcprb0BcCtrf6qz7FbL30AwAXg1tgEAIdSL84H91HfWg4acO+5/XpavfIuemrlzXSgZQl1HVxGJ/YtpXf3P0z7d91Hm5+eR2uW/YaWP3gjLXvASlymtnQGwK2t/qrvMVzrfQHABeDW2AQAh1LrTgftbwwNBw24/X3nidNAXxcN9R6hod7DNNTXToN9J2ig7zT1951T53U+vYXeGkNv6Gf0s6kBAC4AF4DrPIEMB2E6CHyGJorVQNCAW2w7UA4ahgYaUwMA3LoGXP66S/4Sj35lTBWI3fUanSpoDyAX/+iEqAH1k64ZL+Yv5etpc6zrHweo3NgC4FbO9gA62B4aSKmfAe/p6SFOfX191N/fTwMDAzQ4OEgXLlxQaWhoiDjxz4Yj+duA7L9I9QjLPWG6X2kTtgNwt6V6bBS2HXC9hu97/ufO9RoprQk5RuS+Pp9tW2h+rquYMtna4D4HwHXbo+F1H+I/kLA1tMcaQATXH1gLhfmqB9xyT2jZnUp5J9Ps18Zgh32qRwP8j2Y0niS9TfeNHCNyP5+2F5qf6yymTD5tsfIAcPO3VVoDKANbQANBaQCA27CAa01u1gvF7Z98NF4cnvGC8UScovaSB56gHRG6yumfj5T1y2USEYpkvJDcfGm5rkO8OD1S+a9cnftFJCLd97BFgbYQP+GqIrlxSjo21MDJWzFmXEsZuLweH3Ii1GXlMd63j8djpH+wwBq7PtfIOZZjed8vANfsC3yGD4UGwtQAALeBANe9RMGa4NKgan12oFZNdHrNrj0Z6l/syTin86UolYip6JQ1sYqfnNQTbVIPcK5Tl5P7og7+6UvX5K7LYhumk8C1AtSbC2oF7CrIleNA7svrZwNcAcXqp2S5HNej/6m0xlbEdU6PQZ1XfPYdy7I9/vsAXH/bYEzBNtBA+TUAwK17wPWa9FhYxgSqoNUdGeIHYSzgNfKmUuScU+XkNfRkapbJ8tmvDvt4GsLLPyDgdGDjcmrAXJag/ul0/omTY0Tum99wpMeb8w+pOZ4zosK6X2W9ct/nGl7ftjh16zq9twBcb7uUU1+oGzaHBtIaAODWPeCKiIxrYvKa3PIFXI4i2fDrAcbWADPqz5iAxXnfOiyhKgjAEoW8vxqGg0s7uOqyBWs+Dad6yYB3RFWMD9e4zRbB9RrrZj3ys9zXgOv2Ad5jOT/7Bgm4HR0dhAQbQAPQgNRALv8OwAXg2uDEk52O2JqTnXXOiaS6gNQ450zGxuSZDXDVObmcIXMCNSNfuYSN85k2hE0qbBNecqOX+TjjRPyz6Boj5vjRbS8j4PqOQ7+26DZ5b4MEXGjX28awC+wCDfhrAIALwE1HBu0lAVZkSUaDrAnOeiDNikClvxrVMCwiUz5fa6p3fzrrAY1J03Vte5kDA4ET8fKKLPkLG4Metqk2DbD+nX8SHcBNqbcpeD146R4vufqTx5MYgxF9LWOcuSDaWmqkxpheJuE1Do0y+doVgJurz3A+Xy0hH7RSjAYAuHUNuEENCnOSDKpe1FPMoEUZ6KYWNADAhU5rQadoY/3qFIALwE1HcEVUyT3oAbhue9SvQ8B9om+D0gAAF1oKSkuoB1oqRgMAXAAuANcX7OFUinEqKAPdsAYAuNABfAE0UEkNAHABuHkALgZpJQcprg391aIGALjQbS3qFm2uH90CcAG4AFxEcKEBaCBwDQBw6wcUAH3oy1rUAAAXgBv4xFaLAwFthgOHBoLVQCUBd3SoB34N/7RBAw2uAQAuABdOoMGdAMAuWLCDPS17VgpwTx/dTusWfIROH9kK3wbfBg00sAYAuABcOIAGdgCAMcBtuTRQCcBluF2/8CN0YeA92nDXZYBc+DbMbw2sAQAuABcOoIEdQLngBvUCnIMG3L/7ze8pW4qvfISeuuNSennl52h6op92rf4CPXH7paVDrusHZ/QPaPj1L16piLHvp41qOW79eqLzI0oZv67o185CtM157R9scs2vhdTh1478jwNwAbgAXNcAzH/wwJHDVtCAvwaCBtyv3buTrt3e45l+sPlteur2P6bUUEdGevqO/1S8j1NwK3/V0YKD9C/SmRO2+dnfPtAObBO6BuxfKjR/iTSe4L7Ipd1c52V/Wnmj0Qi5rpXzGrKO0vcBuADc4p0/wBC2gwagAR8NBA24Vy7ZRdnSuidvo/ULL6N9z1xDs317qP2lH9PGez9JLeuuL7KPLJh1T9D6p8n1T4ebk775ufRJOnQI8ulPtKPW+9JHz05/59JurvPSPnbeRJyirghxIXXI+orbB+CGBLgdHR2EBBtAA9BAo2ggmUwSp/b2dpWOHj1KnI4cOUKjo6M0MjJCw8PDxJNQPvDU8thX6ND5KXrj9HhGOtI9RV1DKdr1wmLauOijNHduC2158M/p2cWfoOmpybzqz2iDinZpkJUTLIMCR3V5so6Q81VvLJGOgvHEbp9LR3s1HOsyum5r0o/FohSJ6GPyetjP6BsHymCbvG3jq2e2ob+W07r0glMeC16aTedNxOSynvTxvNtdQl8DcEMC3DA6E9eAs4MGoIFq0UDQEdwdK65QYDs+R+SbZueobdcial7yCXp1w/W0Y/lXi4NbnlQZCFzRJ60tGQkzJ2z+HKGILqeWOGgAMPImYmTBr1XGBcIlTOrV0v9oh9ZLlWx99azbZ+jTht60Ls3zXC434LqXPnjVoa8f/BaAC8AtfgKAE4btoAFowEcDQQPulkeuzAm4U7MzNDfdTV1tayg1M0ZcpmjQ8o146QguT8jmhJ3ls6pPR2/trYz6JoOf4Iu+d58+RX013Ee+etb3lEW7Sg/ivJeWI3K9rcjLZfkfvQpoHYALwC1+AoAThO2gAWjARwNBA+6mh67OCbgTM+M0M7yP5ga20+RkL3GZ4qFMRmo1BOhlBj5R2WzA6wsYBgz42LP4+xBtR90l6KHW7eijZ0cTpg5zfWZ75BPB1fkYgM06y2tTAC4At4EHfHkHFyYk2LeRNRA04D4V/2YOwL1IE9O9NDO4m6bGj9HEzDRxmZL6wLXEgPXME3S2NYXmBC4/m2X1+JB59DX0mxvkObmvy2JbUv86cNcgdlR6lpFW6x8277comHozP7PN8gVc/Y8hf3OhtV1+mwNwAbilTQCN5iBwv9ALNJCXBoIG3NWLv+0PuLMXaTI1QqnhVprr30aTk+dpfPYicZmSAciGAv0wmflWBX6IRp3z/ArWgALzq92cZWR5uV9+OCjZbhgnpWuvHDY0NajXi6dSVJCWs7bNW6vJOD9ICcDlh2trLZH9F4FjgPOFBqCBRtdA0ID76KLrXIA7NnuRxmdnaWJ2iianB2hm9ADNDb1O02NHaWJmSj2IxmUavR9w//BFjaoBRHCDA2kAbtb/6OBkGtXJ4L4bU/tBA258/vctwJ2dpcnUEE1NddPUZBelRttoZvgNmruwk1IjbTSeGqfxuQ8U4HIZ6K8x9Yd+R78DcAG4mAAA5tAANBC4BoIG3Htuv55Wr7yLnlp5Mx1oWUJdB5fRiX1L6d39D9P+XffR5qfn0Zplv6HlD95Iyx6wEpcB6AB0oIHG1AAAF4CLCQBwAw1AA4FrIGjA7e87T5wG+rpoqPcIDfUepqG+dhrsO0EDfaepv++cOq/z6S3gpjHhBv2OfgfgAnADn9jgWOBYoAFowA9wx8bG1C+Z8UMWQ0NDef+SGTQFTUED0EAhGmDA7e7upp6eHurt7aW+vj4aGBigwcFBlS5cuKB8EPshTrX24FeY7a3ONbiuJ4D1uxvzGCTqSctCn3b0fnLSFCQ/qel+EtmjHLdbPWGcR1ud6JtHPc65QupBXrPP8BmaKEQDGm55OzU1RZOTkzQxMUHj4+PEgMs/08sTCk8wPAkVUjfyQovQADSQjwbYt5w/f96BXAbc/v5+B3IBuPlHeKsPcM0XiyfjZL3vrtDBkS845pnPhFf7tSXpnwRMEb9ORH7OR8yZvypU6H0if352hp1gJ7cGXn/9dWpra3NAVQMuw60JuKOjoypSwoDLkRSegBh8YVO3TWEP2AMaKF4D7FPOnTun/oGWUVwAbv5QKyPE1Qe4DJLiHXfFD5Y8wTXjV3x8xMlAK9rFMBuLxynqRGz55dGFRo/5Wvm206ddiPYCMqCBojSwYsUK+vjHP+5Arh/gyuUJHD3hrwt58mHQLd4/YTzDdtAANODWAPsUBlxO/E+01zIFRHDzh93qA9yMX92xBOBeImBAIcOn6+XjfF78froLQtPHrSUHdl2JOEXtMt5RWAmwep/L6iUUcl/+Aop1vfTyBut6sRi/PJrL2tdXv+nO+xF7mQNfo7C2Oi+8durQg8erLrON+j50GWzhfOtfA0uWLHEgtxDA5bVx/FUiT0iI5Na/TuAL0Mfl1AD7EA23XV1dANyAflSiCgGXB1IayBwwlEsEEjGKRtPLAdJLA0xYlBFVq85MeLWhUkdn+ToOtLoHdRqyExSz8ydi9jVk+2xId9quljPotljXS7dDt9lqn1PGVZ9uh9FWV706D291nbyf7b51m1KUYpvGk4hIIRracBrQkNva2kp6/a1eosATj1x/y5MQf13IgMtRXIZcJNgAGoAGStEAR2zfe+89OnPmDDHgnj17VvkVjuBykg+aIYJb0xFcAWoK4OyHu3hfQiVHXNVnBjgNahLs5L6OVnpFKY18LjgUbWHw0dCpt6n0uts0ZHtfywXHrp/9s64fjcrfitd1GMc82pau126fE7m2baJs6HHftm31T3mmf7bTuGcAX8MBXzkjFdVa91VXXUWf/vSnfQFXr8HlycUEXD058XreU6dO0enTp9UkxRMWJ56s9NeOehLkrx+rIen2+G337NlDx44dcyWvY2YefHbbDPaAPfw0cOLECXr33Xfp5MmTju9gn6GXKABw8wdauf6W9/Vf1f5UL4Oj9WYCDbI6esqfY5QQ4OuOXBrg6gd6GdBolJOAZ18rwetvEzYI8rFYXEC2hlM3VKZB1KyfP0dURNrrDQzq/iP6DQ5mWSs6q9riuj9tK++2KMhw5QfUVit4oV3l12a2CC6/RcFrDa6M4DK88oQEwAXE+EEMjkMbXho4fvw45QJc81VhiODmD7zVB7iJOMXVelSe2CyA01+dqyipsTQhFpNfrUsAlPuZdaXBwcxnfpYTrNWeSEYEltfKSqDlOjSUmpBp1p/+zBCs7zXdvnSU2AJ4kUdCKkeV9TILdVxHtd02TNdrtdHreuk88t6xD7vUnwY03DKcFrIGl78y5MgKR1k4+qkBl6O3/DWjGb3VEVIdteXlDdWQdHv8tm+88YYresuTtNcxr8kbxwB1YWqAYbEWE0dvOzs71bc/2nfwP808JtnHAHDzB9oaiOBa4OV8de48IKZBUYObx2cjGsvA6P7q3V23FYVNA6YFMOZn96SuIqoaJO3orrqObCcfV5CpHxITbTba6I462wDN9TOwOssNNDxbbbMeULPqdiLJYt1yJBqjmLNsg9vvdd9mG/XDbe77BdTBHvWqAb+3KOh1uPI9uHqJgn5NmLlMgQH20KFDrjV0emkCn9MAqaGWJ65qSLo9fts333wzAxq8jtUiWITZZo7SIcEGpgY03JrLE9hn8JjUgIvXhBUHudUXwZVLArBvrP/MDt/1CiK4L0B2OTSwdetW5xVhXL+O4HoBrnzQjL8i5FeFmVHcw4cPO2tv5ZpbhlsNkBpqOSpTC+mtt95S6wN5ItbJ65g+h23aTrAFbJFLAxy5ZbjltfsyeisBl/0MABeAa8BgPUIBALccoIM663GsFHdPGnLNH3uQ63DNKC5DKwPs0aNHnQfKdNRWRmH0V416wuJJq9rTvn371ATMk7BOXsf0OWzTdoItYItcGtAPpZpvTzCXJ7Cf4De4cJJrcM2v5PHZDcKI4NZUlBiACxgtDtxgt/zs5ge48nVhPInwJKNfGcbAyvCaTCbVelwdsdVfL0qg5civ/F15PWlV6/btt99WT3bz2mKdvI7pc9im7QRbwBa5NKDBVr9tRf9jrL/p0b5D+wz2OwBcN8Rmg3oAbk0Bbn6TNGAGdoIGitOABly5TEGvxdVR3JGREeIoroZcnnw4wsIP1OilCDpay8f15KSjL3KC4nqqOb3zzjtq2QW/m1Mnr2P6HLZpO8EWsEUuDWiw5SVNGm7ltz5egCv9RTa4w7kaeE0YJuriJmrYDXaDBorTgIZcc5mCjuLyA2cMuTyBSNDlh5Y02Gqo1TCrJxsux4nrqIak2+O35R+/4IflZPI6Js9j320v2AP28NOABlsNtzpyq/2I/AeZfYn2JxpytV/B1juqiwguIrgNsHa5ONABIDam3TTg6iiu/lUzfieuH+TyhMMPlOgJSU9EPPFIoOUoMCeupxqSbo/f9uDBgyqyxBOwTl7H9Dls03aSttBv0cC2On7gpJr6QX/rA7j1htRS4B2AC8AF4EID0IDQgARcDbm8TEEvVdCQy1Aoo7n8QIlehiDBVgItQzInXV+1b/nNEHri1VuvY/octtXx+jf0Q+31g4za6n+U9dp8/Q8zIreFQTAAV0xsiNg1ZsQO/Y5+NzUgIVcuVdCQK6O5GnT5gRKegBhuGXw12Eqg1XXJ+iu5r9vjtz1y5EgG4HodA1DVHlDVW58xINZq4rW2cr2tXuKk/2EG4BYGtjrqC8AF4CJ6Bw1AAx4akOApAVBHXXU0Vi814CeideTWhFtdXtdpAnW1fm5vb1cTr56Aeet1TJ7HvgUrsAPskI8GOFqrkxfYAm6Lg1v2xfovUq0OFu1CdA0agAYqpQENpHqrQVVDrozo8hPTOnKro7acn8vq9s/MzBCn2dnZmkgdHR3qLRA88erkdUyfwzZtJ9gCtihEA3o5gl/UVn87pKOT2OYGXwCuR+RGT0bYAqyggcbWgAZbudWQq7cadvmVPzpyy8ck3JpgOzc3R7WQGGblxMv7XsfMPPhsvZQfdoAdCtEAR2t10utt9RZAmxtoTRsBcAG4TnQJMNfYMIf+9+9/Cbh6XwOu3vKrgHi5AkdvTbjVEVsNtRcvXqRaSPxuXz3h6q3XMX0O2zSgwBawRTEa0EArtya44XN+sAvABeACcKEBaCBPDWi49dryOy310gQ+z/8w6OUIJth+8MEHVAuJ3+0rJ1re9zpm5sHn6v4BD/RPbfQPQDY/kPWzUxUCLv8cbYQiIsUS/pEVRJ1gG2gAGghTA15wy8cAuLUBDYA79FMtaMAP2nA8f+itUsCNUjxpT9qJGEUiMUrkGWFJT3QMyqKevMsXWw6QkbY9bAFbNI4GNPACcAFOtQBOaGN16hTgmj+45mur6gfcVLHAGXa5xpnQAW/oa2ggUwP8y1X64TK2j1yeoNfb6mUJ2vFW+/bEiRPq1WdyQvE6Js9jP/iJGjaFTaGBwjWg/WsVvSbMAFOO4EbjlNQR2GScos7yBR3ZTVI8ml7WEEtwHenPkVhCrYdLxDKPpWyAjsWirmURaomEXQ6TeeZkDpvAJtCAWwMA3MInIEzasBk0AA2USwNVCrheIMqTSSb8RuNJSjEEZ8CokVcDstrKcxYMq3oyzrknMEzosAc0AA34aQCAi4m6XBM16oW2oIHCNVClgGuvnVXRWh2lTVHKFb21IZjB1j6ehlQPGGZ4Vet5NTzr9bkSdn3KueAYE7zfBI/j0EYjawCAW/gEhEkbNoMGoIFyaaC6ATeVomQ8Sg64msBrgCfn5aUF1lsXDHB1leUlDQDcRoYR3DtgPGgNAHAxUZdroka90BY0ULgGqh5w3csSzOUEmZN0GogNwJVreRXsAnCDnuBRX6YeYZPGsQkAt/AJCJM2bAYNQAPl0kANAK4VxXUeNLOXIzjvyeUlCq6lB+klDc5DZWp9rngQLRqjmG8EN0Xuco0zQQPG0NfQQPEaAOBioi7XRI16oS1ooHANVCHgFj/BYHKG7aABaKBSGgDgFj4BYdKGzaABaKBcGgDgGut4KzU54roAM2igtjUAwMVEXa6JGvVCW9BA4RoA4AJw1TuCAVe1DVfov8r3HwC38AkIkzZsBg1AA+XSAAAXgAvAhQaggQA0AMDFRF2uiRr1QlvQQOEaAOAGMLEhelb56Bn6AH1QaQ0AcAufgDBpw2bQADRQLg0AcAG4iN5BA9BAABoA4GKiLtdEjXqhLWigcA0AcAOY2CodOcL1Eb2EBiqvAQBu4RMQJm3YDBqABsqlAQAuABfRO2gAGghAAwBcTNTlmqhRL7QFDRSuAQBuABMbomeVj56hD9AHldYAALfwCQiTNmwGDUAD5dIAABeAi+gdNAANBKABAC4m6nJN1KgX2oIGCtcAADeAia3SkSNcH9FLaKDyGgDgFj4BYdKGzaABaKBcGgDgAnARvYMGoIEANADAxURdroka9UJb0EDhGgDgBjCxIXpW+egZ+gB9UGkNAHALn4AwacNm0AA0UC4NVCHgJigWiVBEpFgiy+SdjFM0EqV4MkseQCwidNAANFBmDQBwMVGXa6JGvdAWNFC4BqoUcIsFVobjYssCkP//9u41uakjCMOwlsWCWA6b8Wb4wQLA3IuLgeJipXpIK7LSjq3YB59pPak6NWYCztHbX3W/jI+Uhz4B89+XwZkzQHCPH0CGNmYyIANLZYDgLnyqM/PAdu+EUwZunwGCa1AvNah9X9mSgeMzMIngPt0+ebTZPnry9PePWc8ebzePnmyfDjnNU9uDRxsen/mRLHmXARn4YxkguMcPIEMbMxmQgaUysFLB3X8G9/H2bCey8XWIbO7F6UoK7uHXtz95cUqFlQzIwF0zQHAN6qUGte8rWzJwfAZWKrjXPEcbJ7ebzfbqm84I7l0Hsz9P7mTg7hkguMcPIEMbMxmQgaUyQHD9CPeP/QiXRN1dojBcL0OCa1AvNah9X9mSgeMzMJHg5qMJueagc4JLejILVll4uAwQ3OMHkKGNmQzIwFIZWKng7j+DG28uO7vyJrOnTx4VbzL7PdjOHv/9Z73JzMms03kZ+IMZILgG9VKD2veVLRk4PgMrFNyHO4Fx+oW9DMjA/80AwT1+ABnamMmADCyVAYL7B094/u/g9OdIlwysPwME16BealD7vrIlA8dngOASXD/GlgEZuIcMENzjB5ChjZkMyMBSGSC49zDYnK6t/3RNjdRo6QwQXIN6qUHt+8qWDByfAYJLcJ3eyYAM3EMGQnAvLi62X7582X779m0w/fHjx/bnz5/j+vXr1/by8nJ3ZfNd8/rs2bPt4WCt9g5/j18fP4wxw0wG7jcD2Vs3S59u+P5O0GRABjpnIAT38+fPQ3K/fv06BPf79+/blFyCe7/DiwzgKQMy8F8ZILj3cHLTeWh7baRUBm7OQIjt8+fPt58+fbpyiktwDeD/GsD+nXzIwHIZILgE14+nZUAG7piBt2/fbl++fLn9+PHjOMWtHlNwgrvcICMJ2MqADBxmgODecbA53br5dAsjjLpmIE5uQ27j8YRYCa4hezhk/VomZOBhMrAT3GjQLgxkQAZk4PYZiMcSXrx4sX3z5s32/fv32w8fPozHFOIEN5/D9Qzuwww3UoG7DJx2BnaCG006mnXny+C+/eDGCqu7ZqBzL4nXdn5+Ph5LeP369Ti9TcGNU12Ce9qDlVipvww8fAZ2ghvNurvk3nVg+/MPI33dRcnrm+8v1tErbxLcw48K8wzuww880qEGMnA6GfiX4Ebj7noRiflEQs3mrVnXPpKvK95U9urVq/F4wrt378bnxXoG93SGJ1FSaxlYdwZ2ghuNOhp2nEp0vXIwWef6S0zXPHpd8/aalNvDxxPyY8Li+ds4wfUxYesegARFfWSgbwZ2ghuNOiU3mrcLAxmQARmoMxC9MnpmvLls/yDX0VUAAAcVSURBVPR2X3DjkyMIbt/hSYzUVgbWnYGd4MZH3ESzjqbtwkAGZEAGrs9A9MromSG3+eaykNt8g1k+fxuCW/2verPxrn2t/re81Z5Bv+5Brz7qc4oZyP66iSYdzTqatgsDGZABGbg+Aym2MTTyo8FSbvPjwQ5Pb/ffZJaNd+1rJbPV3ikOT6+ZNMrAujOQ/XUTTTqKFaLrwkAGZEAGrs9A9MromfGmsjy5vbi4GJ99u396O/Nn4MZwqGS22jPo1z3o1Ud9TjEDO8GNJh3NuvMVA8mFgQzIwF0zkGKbcpufe3ud3O6f3l5eXmbfXf1ayWy1d4rD02smjTKw7gxkg93E6UP8iK3zFcPINR+Dzpn02ubtOdEz4+oqtzEcKpmt9gz6dQ969VGfU8zATnCjSbswkAEZkIHbZSCetc2PA8tPTNh/7jbeXDbryW0Ohkpmq71THJ5eM2mUgXVnIPvYJn601v3KgWT9PZhxwGHJDHTvJ/k4QsptPG+bz9ym3BLcdQ9AgqI+MtA3AzvBjZOHaNQuDGRABmTg5gxEz8yrEtvZ5TaGQ3VaW+2RhL6SoLZqO2sGdoKbpw/W36cwOOAgAzJwmwzk59xed2o705vKciDkWslstTfrAHTf5E0G+mYg+9hmv0n7+ufuw9mxwEIGZOCmDMRpbV4htPtXNtkZ10pmqz2S0FcS1FZtZ81A9txNNmfrP4MKCyxkQAZum4F9qc2vs8HOulYyW+3NOgDdN3mTgb4ZyL67yYZsvXr6ggceMiADx2YgG+vsayWz1R5J6CsJaqu2s2Yg+y/BPfix4rEDze8nQTIgA5GBTv9UMlvtzToA3Td5k4G+GcheTHAJ7pXnBskaWZOB22Ugm2jHtZLZao8k9JUEtVXbWTOQPXmTX1gRQAABBBAIApXMVnuzDkD3Td5koG8GsosT3CRhRQABBBAYBCqZrfZIQl9JUFu1nTUD2cYJbpKwIoAAAggMApXMVnuzDkD3Td5koG8Gso0T3CRhRQABBBAYBCqZrfZIQl9JUFu1nTUD2cYJbpKwIoAAAggMApXMVnuzDkD3Td5koG8Gso0T3CRhRQABBBAYBCqZrfZIQl9JUFu1nTUD2cYJbpKwIoAAAggMApXMVnuzDkD3Td5koG8Gso0T3CRhRQABBBAYBCqZrfZIQl9JUFu1nTUD2cYJbpKwIoAAAggMApXMVnuzDkD3Td5koG8Gso0T3CRhRQABBBAYBCqZrfZIQl9JUFu1nTUD2cYJbpKwIoAAAggMApXMVnuzDkD3Td5koG8Gso0T3CRhRQABBBAYBCqZrfZIQl9JUFu1nTUD2cYJbpKwIoAAAggMApXMVnuzDkD3Td5koG8Gso0T3CRhRQABBBAYBCqZrfZIQl9JUFu1nTUD2cYJbpKwIoAAAggMApXMVnuzDkD3Td5koG8Gso0T3CRhRQABBBAYBCqZrfZIQl9JUFu1nTUD2cYJbpKwIoAAAggMApXMVnuzDkD3Td5koG8Gso0T3CRhRQABBBAYBCqZrfZIQl9JUFu1nTUD2cYJbpKwIoAAAggMApXMVnuzDkD3Td5koG8Gso0T3CRhRQABBBAYBCqZrfZIQl9JUFu1nTUD2cYJbpKwIoAAAggMApXMVnuzDkD3Td5koG8Gso0T3CRhRQABBBAYBCqZrfZIQl9JUFu1nTUD2cYJbpKwIoAAAggMApXMVnuzDkD3Td5koG8Gso0T3CRhRQABBBAYBCqZrfZIQl9JUFu1nTUD2cYJbpKwIoAAAggMApXMVnuzDkD3Td5koG8Gso0T3CRhRQABBBAYBCqZrfZIQl9JUFu1nTUD2cYJbpKwIoAAAggMApXMVnuzDkD3Td5koG8Gso0T3CRhRQABBBAYBCqZrfZIQl9JUFu1nTUD2cYJbpKwIoAAAggMApXMVnuzDkD3Td5koG8Gso0T3CRhRQABBBAYBCqZrfZIQl9JUFu1nTUD2cYJbpKwIoAAAggMApXMVnuzDkD3Td5koG8Gso0T3CRhRQABBBAYBCqZrfZIQl9JUFu1nTUD2cYJbpKwIoAAAggMApXMVnuzDkD3Td5koG8Gso0T3CRhRQABBBAYBCqZrfZIQl9JUFu1nTUD2cYJbpKwIoAAAggMApXMVnuzDkD3Td5koG8Gso0T3CRhRQABBBAYBCqZjT0XBjIgA2vPQLZxgpskrAgggAACg0AMMCdcfU+41FZtO2cg2zjBTRJWBBBAAIFBgOASoM4C5LX1zne2cYKbJKwIIIAAAoMAwe0tAARPfTtnINs4wU0SVgQQQACBQYDgEqDOAuS19c53tnGCmySsCCCAAAKDQCW4sefCQAZkYO0ZyDZOcJOEFQEEEEBgEIgBdnjKFXvn5+cuDGRABladgWzjBDdJWBFAAAEEBgGCS+T9ZUYGZs1AtvG/APfNKJMlLjHNAAAAAElFTkSuQmCC;imageBorder=#000000;clipPath=inset(0% 10% 3.65% 0%);" vertex="1" parent="1">
          <mxGeometry x="50" y="170" width="668.6" height="653.7422222222223" as="geometry" />
        </mxCell>
        <mxCell id="9snhWBf093I3BnCHHLgs-61" value="" style="verticalLabelPosition=bottom;verticalAlign=top;html=1;shape=mxgraph.basic.rect;fillColor2=none;strokeWidth=1;size=20;indent=5;fillColor=none;strokeColor=#FF3333;" vertex="1" parent="1">
          <mxGeometry x="400" y="260" width="280" height="30" as="geometry" />
        </mxCell>
        <mxCell id="9snhWBf093I3BnCHHLgs-62" value="" style="verticalLabelPosition=bottom;verticalAlign=top;html=1;shape=mxgraph.basic.rect;fillColor2=none;strokeWidth=1;size=20;indent=5;fillColor=none;strokeColor=#FF3333;" vertex="1" parent="1">
          <mxGeometry x="60" y="210" width="310" height="30" as="geometry" />
        </mxCell>
        <mxCell id="9snhWBf093I3BnCHHLgs-63" value="" style="verticalLabelPosition=bottom;verticalAlign=top;html=1;shape=mxgraph.basic.rect;fillColor2=none;strokeWidth=1;size=20;indent=5;fillColor=none;strokeColor=#FF3333;" vertex="1" parent="1">
          <mxGeometry x="1070" y="750" width="90" height="30" as="geometry" />
        </mxCell>
        <mxCell id="9snhWBf093I3BnCHHLgs-65" value="" style="shape=image;verticalLabelPosition=bottom;labelBackgroundColor=default;verticalAlign=top;aspect=fixed;imageAspect=0;image=data:image/png,iVBORw0KGgoAAAANSUhEUgAAAnAAAALICAYAAAD/is27AAAgAElEQVR4Aey9a7QeV3km+K35N786PatXevWsmVmz0tM9mfQiq1dnjgaps2AZlh1IIG0YJ4wNAx8hR2OTyCYBDxCwudgcYScgYQi4ERfTdBIyRyRRQIJgO8Tm4gv2iRHHQRxJ4OuRdbOOZF2OjiztWc/e9Va9e9fe9dV3/+p8j9YqVdW+vPvdz35q11PvrvpOa3Fx0Tz00EPmhRde4EYMyIGMA6dOnTKp7eTJk4YbMSAHBseB1LWGdN6beG8mBwoOPPzww0b+te655x5z5MgRXiQUb+RAhANVN5ZB5FEEDE4EEMvxYzmIa0Js8KZd3LSJBbEQDkCvyb/W448/zht35MYtYHHPC0c4IDcW7tPRSWJDbPrhgFxr3HPeJQfSHMgF3BNPPEEBRwFHDoyBA/3c6FiXQmkSOcCbbvqmS2yIzaA4kAu4Y8eOVd68/+qL3zCf/vB/sdvcO7ebN/7G28yHrr/NbL56i1lcfNx85/7vmmt+o23evflD5upfb5vbbvxkXh51B+Uw7ZD85AA5QA6QA+QAOTDtHMgFXCcgPnHTXebj7/282fqHnzI3bnmf+eFjPzSf/fTnzLt+/73m/PnzBgLwmqvebL6x+5vmwe8/ZDa/aYu5/V2fsXVQt5N95vNiJAfIAXKAHCAHyAFyoB4Hagu4O276krn1hjvMu3/nVjP3wT+2ou3o0aNmaWnJ/OhHPzJ4hw7H8gLxtW/7fXP9NX9k5t7xafPJm75EATeGpTleBPUuAuJEnMgBcoAcIAeaxoHaAu4jiLz93vvN5+68y9z5qR3m2WefNXfddZd5xSsuN//q5/8n86/+5S+Y3/zN15ldf7PLPP300+ZDN99i/stdf2b+nzdfb26/8bMUcBRw5AA5QA6QA+QAOVCLA3fffbf55Cc/ae64447ohjyUmTTR9cUv3mWW9u9P+oW8L941mFXJ2gLu+qvfb5dGz5w5Y06fPm1uuOEG8y9//n8wL/nFGXPZf3ytufwVV9n9v/03v2I+uvU2c+7cOVvuK3/x/5l3/N8fSHZmx44dZufOnV4+InlIH/TAoJ1PfOIT3oa2Bt1ON/b27NlTu69///d/b7785S97/qJ+mIZzlE35ARyq8qUesAnxkrxu9t30sRu7LMsnZnKAHCAH1icHINAQDDp+/Hh0QxAJZSZt/CHQoF9iIq4qr5d+1BZwH7juk+b97/6wef75582uXbvMz/3cvzC/+tJXmVe/8rfNq1/5enPFK68yV1z+W+aKy99gfvHfzJhHHnnE4MvWN139VnPDmz6YBBkdhUj4wQ9+kJcZpoDTwgVtom2d1guIo6wDf3V7EGthWniuy+O4GwGnhXRMLIa2B32OsQkF/qDboL31eQPguHJcyYHmcgCRN4i3qjFEmar8ceXFhFosrV//agu4G2bfY279wG1m//795qqrrjL/9l//srn6yi3mql+/1rzm8reYV19+jXnVK7FdbX71pa81N9/8QfPggw+at8/eYN581duTIEMg4CathcKoBBzAg4jTbfcL6LDrQ7BpsQvfdRrycF7lR68CDjY7icOqdnvJo4Br7gTcy3izDsebHCAHwIEmCzj4rwWbPh4kv2sLuCefeMpg+RQRuH//y//BvH3zH5qP3PR5c/ONnzLv/cOPmRtvuNXc+AfYbjF/8Ps3md9pX2s/aMCHDnt2p39GBAIEgg2iAhEe2/FgCVUiZRAPIiBQVsqjDuyIsEmJmJRwgU1pQ4MrwkjqSftaICFP0sU32AjrQIjAXymLPqNcKFB0Gd2O+KX7LXV1mj5GG9Ie9tJm6FtKwKJ8mCfn0g7swp70WbcnPoufcq4xk7rIkzEQG6gnx9jL+Iod7jnRkwPkADmwPjnQdAEHXopww30Tx4Pmam0B93d77jYHDx60Au6lL91obnzH+83HPvTn5kM3ft68/10QcX9s3vPOPzbvfddt5h1bbjbXb/lDs7y8bJdSt31se9Jx27FMzOAmDdGghYM+RudxE8dNH+kicJAGOxAVKIM9bv4hWKgXSxcfRLChnrYvgkPsoXxMTIioQTldB2XRN+0f8lFOixvkS5+krXAPW1JG+qPTdB/QptSv6g/siD9SHvsQe10Ovmr7oe/oF3CCnbCPggPyYBP+C0a6/bBumMfz9Tlxc1w5ruTAYDmA15nqbJOEOwVcZw7UFnBXv/IPzMwvXWFF3M0332x+89ffYD7yri+ZLVdvN2+58gPmjVf+kbnm9e81V7/+XeayX329+dznvmDuv/9+8x9/+dfNqze8NRcSIUFEPCEdN3oIEC0ckAahoDcRBlIXggACQKeH7eAcYgH2wjwRIqHQkLJhPX0OX7VvIk50GbQnbeBYCy7dphZfoY/6XGxJ/7V9yRNBpH2TvNA3jbduJ+ybCEeUQT+lrziP+S7+hX0MfRJb2p74oetKGvedL2xiRIzIAXKgyRxouoCT6Bv2+niQY1JbwF318neYb997n1ldXbVK/pf/3b83H33fF8z7N+8wb7vqI6b9WzebN171bvPaV82ay17+avszI3gB8WN/cofZ/NpbS6JJOiE3eTkXISBirOoGjhs+8qWs1NVCQ+xiHwoXpKG+Li+2ZB+rJ3ZE4EgbIkRidUQ8Ia9fAYf20Zb2G8c6Tbch/sle/Jdz9EPb0ukaB0nHXvcV56iPNnUZqavHMFYuZk/s6LqSxj1vTOQAOUAOrG8ONFnAxQRbLK1fDtcWcG+67Cbz11/9mv0q5Kc//am5++57zOtec4152+v+yLz5tTeb11/xh+ZlL/1t88rLXmMeeOBBu3T65JNPmg/efKt54yve593YtdO4yUNASBpEANLk5i8iSZfRZSEIIEiQJmIM4kLK6H0oXFAewkrbRl2UE5uoH9aTc9QTP1EOx9K2lJH26wg41I0JKbEhe/it20I66qINaR9pOA9FFdLhm24Hx7qetBP2T9KxR3ldB8fapowFyuIYbUo9XU5swk+NkU6PlZd87tf3JM7x5fiSA9PJAfxECH4qJDX+hw8f5s+IZAqulQJJ0t/+mk+bl7/kjeayDVeZa992gzl79qx56qmnzF999W/Mze/7sPnQzR8xX//6Hpv2s5/9zLzmldeYy1/2evOSX7jMvPWKrclBgBDRAgrt4WavhZEILdzgYyIF+agHO8gP7UkfYFdsYK/bkDJiQwsf1JM2xD85h7gQmygnoiasgzLSBmyLKIEdlJU8HIs9KSN5so/5KAJI+y1pYk/awb5uOzGM4Eco4JCmbep6YR81ZvBNxgvlxFfspb+SpvsmedxP5+TOcee4kwPrmwON/SHfu2r8kO8XR/xDvlte+5/N2175KXPVzIfM7R/5hDl16pR5+OEf2L+8ACUMMbdz51fN4uKi/Xhhtv375g0bPmLeetk2c8OVg/9R3mFdvBATKeE0rDbXu91QwK33/rJ/6/vGwvHl+JID5MAkcKD2Euq1v/YZM/uKT5u3Xfan5mUvudp84KaPmN++8q3mZf/hSoOI28MPP2xe8dLfMrNvvsFsefu7zMZfusq8+Vf/xMy+4jPmul/7z3k0ZRI6XeUDokgQHFVlmNfdxQtBTEy7w4wcI17kADlADpADVRyoLeA+9s5d5vdevcNu113xWfN//R9z5g0bbjFX/u/vNddc+Xvmt//T28zLf+l3TfvlHzdXbfiQefPLbjNvf/VnzdtfvcN87Ma/nXhBJMuSjL4N7oLBMiuWP4np4DCtupiZR5zJAXKAHJgeDtQWcCTF9JCCY82xJgfIAXKAHCAHJpsDFHAvTPYA8QLi+JAD5AA5QA6QA+RAyAEKOAq4iV/eDknLc05k5AA5QA6QA9POAQo4CjgKOHKAHCAHyAFygBxoGAco4Bo2YNP+xMH+86mbHCAHyAFygBx4QfSb6fhDvgSLFww5QA6QA+QAOUAOkAOTwQFRcBRwjMQxfE4OkAPkADlADpADDeEABVxDBopPPJPxxMNx4DiQA+QAOUAOTAIHcgEnB9wTASJABIgAESACRIAITBYCly5dMmsXLpnT5140x05eyJ1r5Uc8IAJEgAgQASJABIgAERg7AhcvXTKraxfNydNOtD33/JqRTZyjgBMkuCcCRIAIEAEiQASIwJgQQKQNou3sqhNuR1cK0SbiDXv5RwEnSHBPBIgAESACRIAIEIERI3DhxUtWtGGJVJZJDz+/ZrBp4SbH4h4FnCDBPREgAkSACBABIkAERoAAom2hcMNy6ZETa+YwNgq4EYwCmyACRIAIEAEiQASIQE0E8EEClkkl4iZRN4g3CriaILIYESACRIAIEAEiQARGgYBE3CDeRMAh6oZ33bBRwI1iFNgGESACRIAIEAEiQARqIHDxkrGCTYSb7LV4o4CrASSLEAEiQASIABEgAkRg2Ajor0pFtEnk7cQLF+xvukn0jQJu2KNB+0SACBABIkAEiAAR6IBAuFwqAg7vuz1/yok3/CgvBVwHIJlNBIgAESACRIAITAcCJw/da04d+EtvO7O8x2Bbfe5zXnpYrtP56vEfVYKI5VL5LTcRbbIPxdtQBVyr1TKprbIHE5IpvvfiTqput+mptlN2UuWRLnVi+6p6dfPEbt3yLEcEiAARIAJEYJIQOHf4e+bkgTvNmaf/IhdsEG5Ix2aFHPJqbLBzcu+Hve3IP95uUiIuFXWTZVMdeYN4G4mACwdnGm70qT52mx5iJ+cpO5If26fqpNJjNkadNsm+jRoLtkcEiAARIALDRQDi6sWzT5mLF1fNxRdP2u3FC0fz47Vzh23+2gtLVoiJsEPUTqJ0sk9F40IBd8mko25avE2EgAP86/3GnOpft+kpqqbspMp3wrwXe1VtDSpvUv0aVP9ohwgQASJABCYHgZ/c9zZz9NF3mecev9MulUJsQbSJoFtd+aEVaoiundj3J7Ysyh9+6Bp7jLQ8erfyQyv2UMcKvKf/wkb3UEb+yd8slWXScI9lU3ywAPE2kQIudZPW6XKs9wKA7HWeHEse9pKm92F6rHwsLbShy8ixlAnPU+lSDnspo/ed8lG26p/YipXReXIseykv53ovedhLeixN8rAP/+k8Odb2dFpYl+dEgAgQASJABAaFACJqEl3DPt+yyNvqysP5cqpE3/Qe+eXth14ayuNf1ZKpRN60eFsXAg4dD2/q4XlVGZTV+eG5zeyxDamr7Uua+Cj7MD113slWVT3Ji9mQvJQ/gkuqbqpeym7MTmgjLBPLF/vcEwEiQASIABEYJAJ4R02ib4iaQYxdvPAjG4FDJE4icFgmxRIpoml4zw1RuDD6JpE7LMnCDupI5E7+mkIYcZNzibxNvIAD+OGNuttzbUPqyl4Gd9DnYrdqL23KXsrKuewlHfs6aXXKaJvartTVe11W0rtNC+uF59oHsR0rI3mx8jqPx0SACBABIkAEBomAXQrd8xpzVG3H/2GzkQ1CTT5MgGCzAg4fKxxwS66yfGrF2qF77dLp80e+a2STpdbUl6Yi4CDcZJPl04mMwAH88Ebe7/kwbIY+1SGN1JG91JFz2Uu69lvy9F7KSZqc63o6TR/H6uh8OY6Vq5MWlpHz2L6qLcnDXurqNB4TASJABIgAERgGAoi6/fDrrzL7vv3Gyg3vyqW2WF2URTpsQ8xVCTj8hQURb42IwGEg5GYtez04YVqnc21P7HSq022+2K3ai03ZS1k5l72kYx9L0/mpMp3qdcqXNmLl6qSFZcJzsa/3ncp0yte2eEwEiAARIAJEoF8ETpxcNt/97l+bv/zbefPQQ18z//TY1+0ex5021As32MH2/UfuNbAN8ZYScBBvEy3gUjdlSZe9HoQwrdM56nYq029+rA3tsxyH7fSSHtqQc+zln6TJebjvlC/lY+XqpIVlwnPYD9PC87BMLF/85J4IEAEiQASIwKAR2PvTo+aDO+4xX9n9gDl6ZMk889SPzOP7FszBg49FN+TJ9ujigwbb9x59KN+++Q/fN3/6lW9bm088ezIp4PDe28QJOLkJ630KcCkT5ofp4TnKS1psr/PFtpSre65tSF3sO/2TsmG5VHqddqRuuA/b0OdSVqfFjlPlJF3vdX1Jj6VJHvbhP50nx7pMLE3n85gIEAEiQASIwCAQ+ME/PWPe+6ffNDt2PWyeOXLECjgRbhBy4SZ5IuCwT4k4CEIIQ7QRRuC0eJuICFwvYPJm3Qtqk1GHYzcZ40AviAARIAJEoHsEEHmDeNv57b3m1LkL5szqaXP67LIVcYjEHT/2o/z48PI/GWwi6GJCTkQd8lD/uUPPmO89sNeKuKcPnTTywQL2EnmT/TDegXv22HnzzJHzOTDlcEqe1f0BBUD3mE1SDY7fJI0GfSECRIAIEIG6CJxbXbPCCpG3s6tPmfMXzpnTZ9cM0nGMnxLRf5EBf6UB5/ipENkg9mTDu26yHT15zBw5fsocPvq8eeqZo+bvHvyxFYmwiw1C0YnFNdvmypm1/j5ieH7NQKw9deS8efK5VfOzQ6vmp8vFJpgMRMDJjR97/msmAjKGzfSeXhMBIkAEiMA0IwBRheXNwyfW7PLmydMHzenVE/bY/kmti6vm0qVL5tKlF/MNf50hFGGnzpw12E6cPGOOnTxlN4g3bBBy2A4+86RdZj167Alz/sKyt6FNbBB01o76KwxVPyNy6Hgm2jLBFoq2oQm4aSYN+04EiAARIAJEgAiMF4Hbv3y/+ep3DpiTqxfN0RfWzPKJVSui7J/Qwt9FteLtksHfLZUNafhrCvI+G5ZdsfR5/PSaObpy1jz7/Fkr4CDaEI2DKMT23LF/tF+kfuPbX7dfp8oXqos/+a45f+Gn2bYcFXL6j9g/l0XaEGWT7YlDLuJGATdePrF1IkAEiAARIAJEYMgIHHz6uH337eDhM1bA/WT5BSu+EAETAXfhxRetWINg05sWb064OfEH8aaF2/GVxw0E2/v++DPmt35vq/lP13/Cble887MGG84v33ybed3sB2wZlHVizgk5+IIIHCKEsjyKJdKnlHiDiKOAGzJZaJ4IEAEiQASIABGYDASwfIoIHKJviLwtPn3SCji8C4eoGkSaW+o8Z49xLhs+QMAXpHhvDZE7CCxE3yDe8D4chBsibLPv/pi58sZPmWtu+2vzO5/7jnn7l76fbzh/42fuM//nJ+81V8x9zQo6iLk3/8FWG6mDkIMtLMnCP3yIYMUbBdxkEIheEAEiQASIABEgAqNHAB8u4MtTCDhE4SDgsMwJIQZhBhEHoXbu/E+8L0dFvCEf5RCBO376rDl55qj9EOLgkw/ZaBqE26s++klzxZ23m5v+6hGz9RuL5pavPZbvkYbt//3Lh62og5h79e3fMJe/77+aV7zxJmsDQlBEHN53o4AbPU/YIhEgAkSACBABIjBBCODjhW//8Fkr4CDesD3x3FM2CoeoGoQZRFrVZoXembP2vTVE7iDeEHWDcHvFp2+34u3Kz99hbt5zn93e8KU7Dc5/47MftxuOIeog5P7gzx+0UTpE5C679at2aRXROC3i8mVULqFOEJPoChEgAkSACBABIjAyBPDbb/gNOAi1hZ+esAIOkTi8x2aXRF9YsxE2iDSJyMmx3uPrUS3eLvvwbebln5qz4u13v/JfzSe/80OD/Vv//PPmnbv+xkDEYUMaonIfu2efedOX/9xs+sQt5rc+/2fm9Z/eZX7lto+bn7/pneaX3voOu6QKEYcIH5ZT+Q7cyCjChogAESACRIAIEIFJQkA+YMC7ZRBrIuDwIcOTx87ad84QhZNInFsmleXSYo+PDPCe3AsvPG4jb1q8Ibp2/Vf/3Hz03geseIOA++g9f2ePIeokKnfD/D1W8EHA/crHPmB+8aPvMf/6Izea//5DN5h//v7rzL+7+ma7nIp34iDi4DM/YpgkNtEXIkAEiAARIAJEYCQIiICDMINgg4Db++QJowWcROFEyIV7vPeG6BuE1cc/9wXzqj/6ExtFw9Iplkgh4BBpg3BDtA1ibu+hF8w39j1ntz979KDNQxmUFwH3ktvf5wm4//Y9s2bDVe+2X7PK+3D4oEF+QoRfoY6EMmyECBABIkAEiAARGDcCIuDkAwYRcHgPTpZRJTrnvjDFV6Zqs+/InbVLp/gdN/xECKJnEGH4aAGCDMJNizdE3544sWpF3H0Hj1sRB1EHoYc6WHaFjZiA+++uvdaKOFlKxQ8EU8CNm0VsnwgQASJABIgAERgpAqGAe3jpWL6MCgGHqBzehYOIi234UhXLmYi+4TfesHQK8SXvvkGUIeqGDcLtwSePW/EmAg7niMDJ+3DYoy4EYEzA/TfvaptfeN119qdJJAqHd+FExPF34EZKHzZGBIgAESACRIAIjAOBmICDiNPLqCLiIOTCDR8TQEjhZ0cQfYPoCgUcRBmWSyHaZIM4xDIqBBzyJEqHiB3EHoRfSsAhCocf/MUHE2hfL6OOWMDtN9s3tYz8Lc3Wpu1m/zhGceLa3GM2tzaZ7ZVg1CkzqI6Nqq1RtSO4xNvbs7llNu+RMthHyu3ZbFp+IV0hXicoEZ6i3WqbYY2qc+Xz/u1mU0c+VdlSeYO0pcwO71DhUGokkde4PpY6NlkJ3eLZbfmOvcU4q/tMK7y+OxoYToEB95PzR/fDlBJwWErFe3AShYOICzeIOQgoCCn85QT83psIOLz/JkIMETYINQg22BPx9oNnThosoSIyB5FXZwkVEThs/8vl19ufKkH0D36MPgJnyRtcSPu3m+3ejbP7AXE1EhNzr+Yq6w2jrTo265SpdLyLzFG1Nap2pOuJ9kJxlnF1k1LU+7dvMvpcLBb7hO2igH+ENjZtNps3dRLufrX0WZftJw0Nyk6ygSFnVPlflSduVZWpypP63HdGYNg49mK/lzqdezq0Epw/eoI2FHDfffywwYYoHN6DExEnwkv2IubwFxcg4PDxAn54VwQcfg7k9m89bkUcBByEGkQcRJtsOEc6hB4EHKJveAeu6iMGEXBYRoVoRPRPvwc3ogici7xVBjB6Gg6pNMqLbxht1bFZp4zg0e9+VG2Nqh3BI9GenQyLaDDE2ubt282mnLDgbyehlbAtTQd7EYSyD7J7OO2u/XQDg7KTbmG4OVX+V+WJV1VlqvKkPvedERg2jr3Y76VO554Oq4TMG7Lvv51B9X9QdvrvUcxClYDDb8NBwFWJOAg4/IUGvP8GAYc/i/Vrn/60FWEQZfjpEPxUCJZJIdb0hjTkS/QNAk7ef8MybPgzIvg9OPywL0Tcv7jmbVY0ioCTnxMZjYCzEY3NJh1sc4O+efMm02pl5WwdCYMXdW3YWMLj9gaLulJOLUkl6utBLdvSuTj2l3w374m3FbeTEXn75nzJ2IvgKP82bd/uLaFW2pNlVlUfS9K51pDlvxrt5liH3RYbWVtlfyKCHFGsbEm8XL7UQJaQYbQHS35uDDVGcTvhmGSmPDwKvhiVHuJceKUFmhzDN7Gjj0GLwt8Cw+q+FG3hSNrIbHmvElTZqZFnxywrJ1wp8dh5U8YX9cJrKbDl9b0L3mkAOtjw5gFVr+xvlqnslca4Ki+3LX2M9V8KJfKUff86lHpun/Q9L5b50MV1C5ul617GHH4VmXkrPnfL9VPY+/VwXbjrML9e1fXvv4LgyslrM/E5VPCHm/VxKI113kttL0+ssI3yIe+rr/MCp6yt6Bzm8kpl7RiFuGR+enyS+Uf3AcdTPn+EcHRxLgIOPyOC6Bqib/irDNjr34QTIaf3KC8CDn8p4ZW37rICDn8S69qvfN0uiWIPgYYf7kUkDqJNbxBwWDqFeMOyayr6BvGGv8zw2o/fY/7nm2/xBJz9Ud/sLzKMTsB5N6kQcXcB5ZOBXMQyGe3ZHFm+yi4cW0Yfw3ZwHq2vfQjKS1a4tGbTE2VLeSinBCVseYKgmDzxFNWKvrOk2wqPi/pucpUIUad2pRxgiuGKjui2BIwgPcDGv5lInZQdnd/KhZ/fDylT3a4rFbST98thIfexNM6AQvDcYzbnQjTDyutrdVsiYtN9CUWbmoxtZ5zPcTud8mRstY/uRlFcWxpXOdbl9THy9TmOBSe5wek2U3yXdsRetY1qX8WG3258jH1/0+Mf9lFsa7/DduU81ZewrpzrtiStsJW/E1maL5RPwm/NS6RtKpb545EZHw+foy4vjn3gs7RvuQGRgXwtNlR57WPeXZVv0/Q5jlM8cnnxsc6NZ5xVgiz3rZNthbHHez1XOhsFTplNub9ZASZ2YmWzvDq45Djrvk37/BFg0eVpKOAg3mTTX6Rq4SbHWsDhowIt4PBnsfDDvBBk8qe0INIg2CDk5h87ZDccY7kVZbDJT4iE0Tf8RQb8jVQIOETh8KO+WLaVL1Gfxhezz62a0Qm4/CKKIQ6iC+nlxqAvwPCCljyp00V93bydJENbqkD2NFRcrMgL2rJJRZStEGJhOXUOu3LB2+ZUXh171i89YQYCRGOp/c36I0/Ddi+zofVD/qvrj/hQiB7XnQgeXtuqnuer7oebNAtfs7HO7Hhj4tnOxhP9QnoVztJd7GVClb2lobshejfDVFsa58xuIQp1Q3CruNEixwqLfBwC7K1rIhLq5qly1l/B2/fD9jmPPCSuJd2viK2ij6pN20x4nrXdlY0a/sJeaoyr8jzT2ld97BUqX/uVfQnqdpprNM62qvLDtiPzVJzfezZvMtsRBbJYhA8FmS+V/qr2Ated0Iu0j3JZv3L6Jnz3rteqvlbl9TSeujNhH/W5Pq66BwXlSv7qOayibDamHi6pcdZdUPOSJE/V/CGd7nEfE3Df+MFTeRROvkiVv5Gq9xByEoHDF6hYQoXIwt8yhYCDIMNSKEQchJkIOUTcsKz62QeezLc77jtosOFPaIXiDX+NAUuzIuAgFF/y5ts8ATfaJdQs3O5f5HoEAqJHJhpb2kvXk1TN+rrJpC1dyB3bCySPPFS1VeGTvtDRdtVNJxe7CXue787HWjfSSL1yb5Gi+ujV0f4UQsQTJBXly22pdq56m7IAACAASURBVGwm7GdipYMdb0y8sqoVpKdwVsVc067sHrz/Jmv9qL95u//+W6otjVnYF68t9Dm4GdpzEVkVmFS2oeup45S/XroeV1XX+q3OvTquU7V4p/vflQ1V0aun/EV6aoyr8pRpj+8ljHVBhQWSPZ9cuQIPVc8rp3xXRXwfkKHa8urrSmJLHqBwvtnsKfU7qxOxU/ir2tNN4DhSLy/SScDlTWOVIfUgotvWx6iszkv9Unm5Q0GdynRdXx9X9Tkop/2zbWEM6vTTOVZrHiv1YYrnDw+L7k/Ora4Z/C1UWUKFeJMNkTiJwskP/OLnRUTEQcA9c2zZnDx9MH8HDsucb//S9+0fpccHDfJRA0ScCDmIOUTdRLTJHn8LFUuu8uez5E9owR4EHGy/+vZvlCJw+IhhxAIu8aSWf4Uauyha5WVTTBYyWdtJpSpqEKmvxztpSxcqjguREviatBOU8y505MlFnkVgJBJVy55f359gO7frPfUVXSyOtA/62MM8m+Tsl5QiPrJxjo5RYb44cv3I/dE3iqp2MwP+mMTG28fJTZbCmcILd+Qm3iKCilRXv1j6LtJyn3MzFX3JywT45OnhpK/6ojHJ/MnbLuVJ3+CLHDvbeR1pM4mvrovC+tz10RO4+cOGLhfWk0YlveB+NXdVvUp/C3v+GPv++nnKdqmPgp0uI77rPN++3xdVN+m7KuP5ELbl2imNob0EN5WWTjdvrno1osDK9zccv9A3xck8C3Vw7cteMuK2/Os1xFHOw7r6HMeF//XGU3zCXtsKz2N5qT6Lr2JDlUtek1JW10Va8SAs801snF3JaZ0/wrHJ0ejpQP6YPZZEId6++p0Ddi/vwkHEpYTcM0eOWAGH5cwr3vlZu8QJsYX34PAxw//60XfnIg7ROInIaQEH4YYNX61i2RXCTcQb/nzWaz/5N/YP20PA/dpHd5uXfXDe/OJrbhznV6gZzpbc6ulBbvSlC0uegFRZe9eQmyzem/J/ggFPkt6SYNhWfteRMU/bkhKyPOCW8QqR4reVshOSLjjHpJ5FYvyXcWva8/qnJ4WgnRBbr55amradRl3gqO2l/EGFLM/Dtqp8jmx24Hx1L/m68StMJewo3DxhleqXKu/jHPqSCemcky7fjnXhlEuMtlXVl6It2ItN0PZmZNupstM5z/3yiStX/AoKzotryXUnga+9R+hrKbDl9V3zJCgX8q6AIIvoiD9VNrxKxW9IBte+vk5LY1xr/H3f/etb++CWx9LzjO6LrpfGuijl+1ASGx7u6rq16ard8LxowB15dlS9qvFCTa8e2kdkuuCy5W9+7ai+KPz19epjrMqX/NB5mYCJzpu6o6gj/HJ7d80FtoK2fJ9ifUZoPm4jPofFy9rrMoFLGWdZDnD9m875I8RRj3V3x5eMMR/ccY/BF6f4Swsi4DqJOInIHTx83Ao4/KTH5ZtvswILS52ImmEpFUuiiKhhWVQictjf9FeP5KINwm3rNxbtBmGnxZv8bMj/dsvtVhxeMfc1s+l9f2H+x02/a44f+5H9KxDj+R247nBmaSIwpQhUTVZVeVMKF7s9vQhYUVk8WI8HiEm7Jqv8qcobD3qjbBXi7cKLL5odux62UTf8rdNQwOFcInHy+3A6IoflVCyjQky94o032egYPjRAFA4CDkINgg0iTjaIOhFsssc7c9iwhPrP33+dQeQN4g3CDXtE3mT5FO+/TchfYhjlcLEtItBEBKom2aq8JvaVPhOB3hGwEbM86te7nf5qTto1WeVPVV5/KDShNsQb3oH7uwd/bG7/8v0Gf9AeYg3RNx2Bg2CTP621fOyUOXHyjDl15my+4UtQ/C1ULKO+9Lo7rNjCcqeIOHxBKsuiEHMi1sI9xB42EW/46ZDXf3qXmfnonXn0Dcun+CsMf/m38/kXqPxbqE1gG32cUgSqJtmqvCmFi92eIgTUUrRdIh139A3QT9o1WeVPVd76ptGlS5fM6tpFK8KWnzthl1HxDhyWRiXqtvfAssH24yeeybeDzzxp8N4bNnw8gA1/zgp/jWHxJ9/No3CIlmEpFSIOAgxRNWyIsIlQC/d4bw5ROwg+/NYb3n2TL08RgcPPh0AgbnjtDVYwhn9Ga3Q/I7K+ucHeEQEiQASIABEgAhOKwMVLl2z0DdG0w0efz6Nw+BoVgu7RfQe87fGfHjDYEIF76pmjBkJOtieee8ocPfaE/YsM9k9qbb7Nii0spSISByGGqBo2CDRsEGuySRrem5MvTiHcbN2P32OXTvHTIfLu2/cfuTePvuk/ZE8BN6Fko1tEgAgQASJABIjAYBCAgDt9ds0uh0Kw/eyny+Yrux+wS6lYUoVYgzDDJkINe5xD8GHDX0CQDdGw8xeWzQsvPG7wVxkQKYPoQiQOQgwRNbzLJh84iFiTPSJ12JCvxRsib7AjS6f4k12I9kn0TX4+ZPR/zH4w40ArRIAIEAEiQASIABGojcCFF4sInAi4x/ceMN/8h+9bEYcvU//0K9+2om7nt/faCN339v7YVG0uQrfPPLr4oF1KhYjDsidEGJZRIeBwLiItttdRN3xxivKIvOFnQ/DhAt61g3g7unLW4N03CrjaQ86CRIAIEAEiQASIQJMRwPtvFy+Z/B04+0O4zxw1P/nxk+axHzxut+89sNeKN4g4fOCADaJONknTe3zNaqN3+xYMljnxVSpEHKJniKIhCgdBhqVVWV4VwSZpiNjpqBvEGz5aQFTv+Mrj+dLps8fOU8A1mYT0nQgQASJABIgAEaiPgIg3CLhQxCES9+RTz5kD+5+xYu4njy8ZROWwibDrtEedZ5/cZ39W5Llj/2hm3/0xs+Gqd3tCDmIO0TUINdlwjnRZLoVww8+F4Pfe8F4dIm/yd09z8cYIXP2BZ0kiQASIABEgAkSguQiIcJM9llLxNSp+TgQ/DYKPGhCRwztuEHTY8NEChJ1seF8OIi+1odxzh56xP/B77vxP7E9+IBqHZVBE5CDOEJULN6QjH3+oHsINS6b4slXeecP7dhBv+HDBLp9SwDWXiPScCBABIkAEiAARqIdAGH2DeFu74G8i5vCBA7aVU6t2g7ATcSc/H6L3+DpVNog/5OEP3Z84uWwFGIQc/lqDjci99ga7LApBJxuWSSHa8BMh+FABwk2ibvLOm4g3Crh6481SRIAIEAEiQASIQMMRiIm3lICDiJPt7OpFI9vpcy/mog5iDh8SQKhZ4aaidTpih2NE4/AzI3iHDV+pYjv45EPmoYe+Zr773b/ONyy5Iu/k6YO2POphQ0Tv4NPH7fbEsyeN3Z47Y57INvkClT8j0nCS0n0iQASIABEgAkTAR0ALOAg32WIROBFv2EO8WeF27kW7xIqInAi32DKrLK/igwh5fw57vBu3//EfmycO/Ni+I4f35A4v/5O3IQ352FBWv29nbfz4Sbds+7MjZTF3aNVQwPljzjMiQASIABEgAkSgwQhAvImAE+Em+zoCLo/AnV0zJ0+/mC+pyhKqCDlE2yT6poVcTMxB0B38yf58wzk2LfrkGPXt+3Y/O2IOaPHGCFyDWUnXiQARIAJEgAgQgSQCVeINIq4bAZcLuWwpFWLOCrozxbtyR1fWbIROonTyXpx8EPH0oZOm1nb4jHk62PDum2z8iCE55MwgAkSACBABIkAEmo6ACDiJuIX7ngUcRFy2iZAL9ydeuGCwPX/KbcdOXjCyOaEHsbdmjpxYM4exPb9mnsu2Q8fXDDZ8uKA3CrimM5L+EwEiQASIABEgApUIiHjDn80KhZucU8BVQshMIkAEiAARIAJEgAiMDoFLxmTvvaXFG0QcBdzoxoQtEQEiQASIABEgAkSgEgH5aAE/2CvRttieAq4SRmYSASJABIgAESACRGA0CCD6Jn9poV8BJz8lIh8w6J8V4TtwoxlPtkIEiAARIAJEgAhMAQI6+tavgNPCTY5FuMk+/HhBzvkRwxSQjV0kAkSACBABIkAE+keg+HChiMLFlk4ljUuo/WNOC0SACBABIkAEiAAR6AsBCrhV87NDbvvp8qqJbQJw66677jLciAE5QA6QA+QAOUAOkAOTz4FcwMkB90SACBABIkAEiAARIALNQKC1srJiuBEDcoAcIAfIAXKAHCAHJp8DIi8p4ChgKeDJAXKAHCAHyAFyoCEcoIBryEDxaWjyn4Y4RhwjcoAcIAfIgVFxgAKOAo5PW+QAOUAOkAPkADnQMA5QwDVswEal7NkOnyLJAXKAHCAHyIHJ5QAFHAUcn7rIAXKAHCAHyAFyoGEcoIBr2IDxaWhyn4Y4NhwbcoAcIAfIgVFxgAKOAo5PXeQAOUAOkAPkADnQMA5QwDVswEal7NkOnyLJAXKAHCAHyIHJ5QAFHAUcn7rIAXKAHCAHyAFyoGEcoIBr2IDxaWhyn4Y4NhwbcoAcIAfIgVFxgAKOAo5PXeQAOUAOkAPkADnQMA5QwDVswEal7NkOnyLJAXKAHCAHyIHJ5QAFHAUcn7rIAXKAHCAHyAFyoGEcoIBr2IDxaWhyn4Y4NhwbcoAcIAfIgVFxgAJujALuxIkT5tixY9yIATlADpAD5AA5MGUcWF5eNs8991zPkU8KuDEKuOPHj5u1tTVz6dIlbsSAHCAHyAFygByYIg688MILBiKu14gdBdwYBRyibxBv/EcEiAARIAJEgAhMFwLnzp2jgOtVvY67HgXcdF2s7C0RIAJEgAgQAUGAAm6MEbR+BSAFnNCYeyJABIgAESAC04UABRwF3HQxnr0lAkSACBABIrAOEJgQATdv2q2WaeXbBrN1oYdPiRe2mg2tHus2UMitpwjcns3F+G/avn8dXFrsAhEgAkSACBCB4SEwQQKuEF4LWzeY1oatZmGkogoisvCh3+XNUdQfjIDbYza3Npmxaqb92832PULyCfBHXOGeCBABIkAEiMCEIjCRAm5lZRxiahxt9hBlVKJ23Qg47+LYb7ZvGrOg9PzhCREgAkSACBCByUOgAQLOCat2e4NptdpmHgLGLpUWS27teRFCgQjzymV1rQBaMFs36PqoV5y32vPB76pkdre282XeDVsX8jLz7VjdrM48lnVdPvy00cXsXNvw+5T5Ot+ujERWCzgIocKvzTbCFaYh2lWUablCxuzfbjapdEk2xkXHNm/eZFqtzcaZ1GWzNBO2A+JnkbU9Rfn4UinKiZ3Ju2DoEREgAkSACBCBSUBgIgWcv4TqxFUhdtx5Ltq8994y0WTfn9PHK2Zlvm2cDSfeCnsJ8aciXS4i2DK5sIOwEjFZKifLsM7PfCnY1mllPjh/ChsJX3sWcE5AlQTSns0mF2k5+zJhlb92hvOWyUWbFXMSEXN5hd2g7p7NxuYl22mZ1qbtxjbl2c2dMXgXrrBfpPOICBABIkAEiAARKBCYIAGnIkGeOArEjRVsOpq2YhABc4JOlfWib5ltRNYi9d37aqquJ8og8MK84DwTZ+4jDC3g5LiDjZSvJT9EbLp9MgJnxVEkipVF1nyBFIiwSF2IKifoYmX1uLWcQKzTDmJyuV0QMiE6C67yiAgQASJABIgAEcgQmCABp8WOFiqBWIoIsLSA84WeFWqR+n0JOM8eonvSj8DvKhHo2dB9rz7uWsBlg75/O5ZAq0SZL/4KoRUTcH5ZfWVVtpMJNicMId4kyqct8JgIEAEiQASIABGIIdA8AWeFkETc5H04EWpaNOFYLVnm0axel1BFmEFUqXb0MqcVYlJOlbFtV50nfNW2c/8LUZcUcDWiWRBXLhIXiDL7rpqIOwTG8M6aiLR4WT+i59PMb0ctj2q70SVX3w7PiAARIAJEgAgQgQKBBgo4EW2ydCeCKRBWEDxWUEk59Q5bJgLld+fkfbr8Y4TURwz5b9NpMaY+iNjQNu1eInApX3sWcBhgiK2i7zbSBaGUp4koc0uZNl1efMuWQF1ZHRkLBZwIvKId+45dtB1X130A4coXzbmIYOGbE3oQf/xHBIgAESACRIAIlBGYEAFXRJX6+/00CCuJxg3K5uTaSUfgygM9/pSI+Bu/U/SACBABIkAEiEAjEVhfAq5DxKo/cTh5Qo4CrpHXHJ0mAkSACBABItA3AutDwOVLpXo5dfIE16AFJAVc3/ynASJABIgAESACjURgfQi4yAv+gxZLk2ivWQKukdcHnSYCRIAIEAEiMJEIUMA1WPxBwB08eNBcunSJGzEgB8gBcoAcIAemiAO4/x86dCj/q1DdBppElba6rcjy/S/xPv/88+aOO+4wt9xyCzdiQA6QA+QAOUAOTBEHcP+HDuhVT1HANTiC1+ugs17/4psYEkNygBwgB8iBcXKAAo4Crmf1P07ism1OnOQAOUAOkAPTzAEKOAo4CjhygBwgB8gBcoAcaBgHKOAaNmDT/LTBvvNpmxwgB8gBcoAccByggKOA41MXOUAOkAPkADlADjSMAxRwDRswPnnw6ZMcIAfIAXKAHCAHKOAo4PjURQ6QA+QAOUAOkAMN4wAFXMMGjE9dfOoiB8gBcoAcIAfIAQo4Cjg+dZED5AA5QA6QA+RAwzhAAdewAeNTF5+6yAFygBwgB8gBcoACjgKOT13kADlADpAD5AA50DAOUMA1bMD41MWnLnKAHCAHyAFygByggKOA41MXOUAOkAPkADlADjSMA0MScPOm3WqZVr7NmLmFHtTywpyZafVYt3Ig4N8w7AZ9HJr/QTuVfWVZPqmSA+QAOUAOkAPrjQNDFHCFQFqYmzGtmTmzMFKhUSXSqvL6Ifmw7PbjE+uut4uW/SGnyQFygBwgB0Yi4FZWxiFsqtqsyuuHFMOy249PrMuJjhwgB8gBcoAcWG8cGIOAcyKn3Z4xrVbbzCMqZ5caiyXX9rwQLRBEXrmsro3qLZi5GV0f9YrzVns+WNuvstsyRfvwI7TtfJtvh/ZjbdZtJys3186XnWfmFgKfBRPu19tFyP6Q0+QAOUAOkAPdcqBrAXfgwAGT2orGfeHiL6E6oVMIFHeeiybvvTFtRx+vmJX5tnE2nMAq7AkJgvLe8q3Ow7ESbV77KdvSBvahrWLpuJyXasf5kAvNeQg5LVBXkpinxoLpaZ4SG2JDDpAD5AA5MMkcKPSU1hv+cU8CrrPhTJDkUTAtRrTgkeibzl8xiG45QafKetG3LPqFyJpN9+s7/1RdT7wFoitSP28/kpf33YosicKJaAvbVOcRW3k7nggM/Cv57g9g7g/LMWJJDpAD5AA5QA40ngMQlnXu7UMUcCJqQsGhRA2IVlfYRMrZDqbSS6JI+6F8iNTPhVUkr9wmonTSV2XXXkTqPGIrb6fkq6rHi7EWkeuQnWX0NcBj8oEcIAfIgUnkQHMEnBUvEnELBZ0WMjhuZcummnSpZU5dV5fHsc5zdv0lXInoJWwj+iZf1VphVkPA1e5n6F/oO88n8YKjT+QlOUAOkAPkwCA40CABJ6ItXI4EEbTQCsu1TP7OWCaO5HfnRIwhwmXTuvqIQcSYENEJPN+2E3Y2baZt2nkEzi3/Fm1W+a/bCcqF/WYUjlE4coAcIAfIAXJgKjgwZgEn4qffPYSNRMP6tcX6g3gyoA3yiBwgB8gBcoAcGB4H1oeA00uVfPKYiicPTgrDmxSILbElB8gBcmDyOdBsAWffK8Pyp15mnHzQeWFwjMgBcoAcIAfIAXKgHw40W8Ax2sZoGzlADpAD5AA5QA5MIQco4KZw0PtR/KzLJ0ZygBwgB8gBcmD8HKCAo4Djkxs5QA6QA+QAOUAONIwDFHANGzA+9Yz/qYdjwDEgB8gBcoAcGDcHKOAo4PjURQ6QA+QAOUAOkAMN4wAFXMMGbNyKn+3zqZMcIAfIAXKAHBg/B8Yq4N7zlUXzz669x7Te8s3khvzrvvhDPhlQaJID5AA5QA6QA+QAOZBxYGwC7tovPJYUbTFBB7FHxT9+xc8x4BiQA+QAOUAOkAPj58DYBFynyFso4v7ZtXfXEHD4k1obzNYFDWwsTef3clzTJv5CRKtlWhu2moWenppqtmP/JmrY71761aHOwlazoYRvhzo99Zs2OTmSA+QAOUAOkANVHBibgAsFWp3zqo64vJjgiaX1S4o6NlGmZdrz/bSl29HHoc2qvLBsN+fDstuNDyzbmffEiBiRA+QAOTBtHJhoAfeWHT/yllk7D05McMTS+iV6HZt1ynTyQ9vQx2G9qrywbDfnw7LbjQ8s25n3xIgYkQPkADkwbRyYWAF313eeNW/ZsXfAAm7BbN2Av53qtjw6ZpcGJb1t5mPLfqrMhq1b/aValddqoT6Ej9hrmQ1bF+zy73y7SGu157Ml4VAk6XM59u0VdeWClXLZuedPGAWMY1D2LdZm3XaycluzJeRWgcG0XWDsr3CUe3KBHCAHyIFBcmAiBNyVn1jwhFpMvGGJtXPHA4FhhZhKwztpuXASIql8lJ9v54KraA9lCiG0sHWDaeXvgqXqB+meKNR5+hg+6fPUsfgu+7Bc4euKFXPyfpwTbyIoi/6Jnar2Y3mpduBPq8DavguYEMYeLtoPHsfHh7gQF3KAHCAHyIEVMxECrr3jR+aL33nGiriUeBuIgMsiU56ACaJVNjoXijyU8T5EUIIpWV+VEZEiHzXY6JyIqrCcPk8dhxevKmf98cUSoms22hjJyy+Cbn2L2Mrb8UQofFX+CRbc13ggCceZ5zlfyR/yhxwgB6acAxMh4CDOIOJ+dvRsadlUf9zQefJGhEmEUXaziwgNF0GrIWqEHLBRKeB8weT8DESL54f2MyjniR2dp4/DG7nK89px5XJhFcmzvnrpNX3z6gTteH1AnvJPMOWeky85QA6QA+QAOdAzByZGwEGo/dx11T/q21nArRj7LpcSW/Y8jKitrBiIOBeJg7jo9I6WKyPvzJWXUGP1A9GCCJf4ZcWPCE23rCm2sYQbX54N7Hmk13m+r24JVQSma8uLQMJO0jdtNxRiVe1U1XNir85YsgyxIgfIAXKAHCAH4hwYm4Abzu/AoZNOpMiHCrloEqGSf1wgombFOJET+8BAgaaWGKs/YpB3v0IRo/za0DZtHSlUtlvttvpAwrdhxah+tywXcX45vz8iFKUvKFv01QnHtG9+m3XbCcoxAtfzExYnLuEt9+QCOUAOkAOaA2MTcPjLCnp5tNPxdV94jDfBXLCRxJrEPCYfyAFygBwgB6aNA2MTcAD6ui/8sNbfQn3PX/DPaE0bMdlfTsbkADlADpAD5ECaA2MVcByY9MAQG2JDDpAD5AA5QA6QAykOUMBxWZJL0+QAOUAOkAPkADnQMA5QwDVswFJKnOl8SiMHyAFygBwgB6aHAxRwFHB86iIHyAFygBwgB8iBhnGAAq5hA8anq+l5uuJYc6zJAXKAHCAHUhyggKOA41MXOUAOkAPkADlADjSMAxRwDRuwlBJnOp/SyAFygBwgB8iB6eEABRwFHJ+6yAFygBwgB8gBcqBhHKCAa9iA8elqep6uONYca3KAHJhUDpw4ccIcPXrUHDlyxBw+fJjbgDAApsC2zrhTwA1YwD3//Alz9Ngxc4wbMSAHyAFygBxoIAdwD8O9LCUiIDAg3E6ePGlWV1fN+fPnuQ0AA2B56tQpK4briDgKuAELOAg3DMKFCxe4EQNygBwgB8iBxnEA9zDcy1ICDlEiCA0Kt+EIVwhjCOQU/pJOATcEAQfxJgBzzyUQcoAcIAfIgSZxAPewKgGHJVNG3oYj3iCKgS0w7sQZCjgKuI4k6UQi5vPmRA6QA+TA+uFAHQHH6NvwBBywpYAbsDirM0HhqYURuPUzkdUZc5bheJMD5MB64gAF3HDFWR3xSwFHAcfo2hg4sJ4mcvaFwoQcmD4OUMBRwHUUD3fddVfHMoOePIbdZucI3H6z69YtZsuWbLt1l9nviYwHzI4tO8wDXhomEKTfanbt15NJLE3n93qc8mHFrDyww/le8ruXtlL+V7QPXMSHDMNbd+3vk0doT43Jli2m0ub+XebW0ljU6X+qX122X+JGnbabUqYuRuG10JT+DdJPYJXh0DMnU/6kxiFVflDp5WthxwNVttcjBlX97S3vgR3F/KbntlT6eATcotl5yy3mFrXtXBy/kKoTLRtGmYmPwEFM4d+gRZq2FxNsw2yzUsDZSXaL8Sak/bvMrmCCwkXllbE3bDVR5TfwWFpvF7jGDMdpH2K+9dpm2v94+yLe9M3bCWI9KYV96Xwe+oHzLWbLjgcGzs14v0bXfmcseh1LXS/sj87rfFwHo/27bjVbBvIQ0dmfOGb99TFus1tfhutDfBy69bHb8t32qdvy3fnTPwbD9a8Wj7x7jPInlb6yYl8D6vQRw+BFCwTcnea+Q5loO3SfufOWnWZxAD/PMXhfhy8sKeBWVswoRKK+iNICzgmNsjCLTCgQeiXxoC68EQi4ldo+RPzP/euUF+tTVifafgJDK4xjUctO7Ut+xI++bYrtYB/t1wjbrz02gd9d1Yv0p5v6tTDqs41u/ImWHXf7GJ8h+xAdh354Uadut33qtnwdH1SZvjEYsn9Rbir/S/mYQ/UDsJT108cXgVMC7nwg6KZMyDVawEF4yaYFEo4lHXvJ65QmZWVfVU/akH2sjtQP90kBh4kgujSaXUBYFswjCv7F5NqITQQ6zYkbWZrNhaJtV8LnInJcvR07bjVbrE+xuqEPqCN21BJjLfvoY6yNzP8HgI2zXUTSwvZXjBWVUQx12czmrmypN1wOrfDXX552/jocQ7yyNvbrMpFxjLalfZXJU+zJeYFXfBzDKKjzwx/70KY+z44V7mjHRrVK4yC4y9j7HNpVwhm2payKYnpYaP9jvtfBqNyfgs+hz9KeayvHFDc3fd15Pko/i7Eo8B1EH/VYq+PaPqBOGQPH4Sxdja9/XRXjk2MRbbdiHKK2Xbv9jYPuk8LFCpEYV3T5yHHUz5idkDMy/jEM4FfMRpgGfwqs84i+h7VwsxjPNH7ap8KuG8Os79H+ahxRTuyk0ydCwC3uNLfs+ZjJNwAAIABJREFUXMx+a86JuZ077zS3SFTORuiKJVdZbl3ceYuR4/OhCEQda/OQue/Oct3zns3xRv8aK+BEMNn1VWOsYBOhFObp5dBUeUnHHvXxD/ZCW3IueXIu9bQPYkPSZF8p4HKBpi+c7FjfSLIbSzHpooyenKS+SkP9TlG7B3Zk73ahnhJh0bru5lbtg2rf8zmwn012vi3p05ZCuMIPPbnk/mb9xcQXxdBNnMVEpoSDZ7PK3/CptGyz8F/ZCbArllxUGQ+bOriiv+X2/Zut+OvKFb5FuGFvftofHIe4B3zIx0HX075nNoRzVThb7qoblb2BZf4H+Ml1BGHl98n3w19Cdb4U5d15FK+gvc7j1Q2+XfbRjouMF/Z+HwsM6vig67r+5w+EHfHWdfUYB8c5jxR3tO1snPsfh0KcFPPBJGGQ8CXgluNygG3VtRDFT65zNRbJdlLjUnAMfC/GJ50+PgFXiKpcqNnIm3s/7s77DilBp4SaFV5Z9E4Lv8Wd5s477zRS79B92bEuk0f2gogf6ubtDX/JNFzmbbSA0wIpFF06L5/wg8iclNF1UVaf6+NUXsqOpOv2cVwp4PKbYnHhhPWL8wfMDk+shBNBMOHbiTS4OLM0iRzYvb3hBrZidWWyrvKhK/uppz41QYU3MJzr9m17MTuYUMVO0Ddts66/tu81bVr74pPyN9lWNm66X9rH/Kau2o/0OxcekTzHoQocSu1VlE32o6JOaD/io+9/wNsk92I39uA6QN2q9rodr4itKL6Rcp37GMwD1obuY/YgErFd9kGPhz52bVT6kmo3OQ5yrQW2uxn31DiENuR6mCQMUr5kOPoCKRiLSN18bMK+Z/ZK83eddkrvMSdEZ+LhenwCTi2halEWi6RJJC4TYHnkDfXuvM8cOn/eLO6809y3KOeIumX2s0ibJ9CyNP0RRREBpIDLlztFpIQCKpWuy+ljKY890rHHP11GH0s5EV+95ul2w+OkgPMiKsHELZNUsC8ubJRXN3QpF5kMZBnMRh8i+c7fYFLJ7Hl1szTfh6BeXft1y4UTWGISyiMrURwCH7XN2n6EIqDC5opbesSkDfzyyTvZVnjTw3loP2g/Yisfl0hefIx1G/o41r7KH4T9iI3c/165J2Nv98pfnHdoT8ZJ9havSJ3K9HDMIvXr9NGNleNEzO/6PmgM9DFsu5u3vm68az3iu/bL70eV7SAvYlfbEvxl79oMbMg4R2yVy+u6+njAGCR9cePoYdsVTwKf+2nHG/PIvcPimkqfkI8YzrtlTrccGkTHrNjylzhzAWfrQagtmp1WyMHOTrOohJ1EuxCRg2CzbURsSrlx7KcqAqfFWOoYF/yg8vQEp4/TAs6FwPE0pSdSTNr2K1SExb2oTHYjkiWqTMzoMpgMy8umhaBwwiAR3ZCfH5AJMtv7k2noQzDB2Mmpjn13A8nFTd5mzJ7/dG9vagoD9xMiEvHChAkb2ocqm2FZN+GWBZQrV4xTlc0Mo1t3mB23VvklbWV7TM55v2L2NU8Cf7yJPYWtS8/7AH7lYx5rT+Ou813b3Y2drl+MUe6L53+BS3fcK+p1HL+wPZzb8Qr7rHkk9lP4DqiP+bVQ4FTGuo4P2p9gzML+l671oLznU2wOUDh5trUPRX+S454cBz0u3YyDbj/ok+en2KwzV2ZlUT+/XlPjkbKr++P8imOi/YetoA/huKiHx1JZ3d/okmt2P8r7VPiO+9nER+BsRC5cQi0EnV0qDZZOd+6ML4nmy6qZTS8qly/fSmRQC0l9PPgIXSMEHASVbFoISRr2SJeoGY7DPKmn02PlpW4sL2wH52E5OQ/zpH3sKwUcLkB7YallEhFtMQFXirq5iSMPqUtd2LU3aLGrhETYnr1gg4kiVddOGGhTJqCgXqw/MfvWjpuMxHc3gYX2wnNMKrr9bJLx/NVCRyY98TdynsRDsMNe14/YCJ+qs6fdkpiOtpX1weuXj025/ZA3Mf8K//Obg8Zpx47iN8NK/oe4B+fRfgRlApv24QLv2ckNwrOh/Nc+ll4x0GMftic4xsanE14r9mdyct8sP8M6yvfsRupzN7PRdx91P7r1QWNSPnYvwzteRDmh8fbGR/cd/pXHIWo74ICdFz27atwzzMsPoehHwWVgXghaP688h4wKA+Fc4af1JcHl2tdCR/yycYm24/oeGxeJCAp/BdNUOsZtfAJOvwMnogniKCKWvCVPXfa8cR8jqDRbVp3jHbj89+YK4ed/xHBL9hGFbjt1PIUCDkQJ/9mLPru4dZ5OD+vpvFQdSZe6deuE5eQc9uRY7zsKOLlZ1N2XXuYOJvy6dvopN24fxt1+P9hV1V2v/arqc7d5Q8IIN9Vc1HTr08SX10JmQPNFPg6DtT28cRisn3aOzzEYEKYD5dFg+zseATd4ETSOpc9BtTnxETgtfNbL8cAF3EAv8kmceOjTeuF+Y/qBqJCOXo/8GsPNtojeuMiIipr37c9gb+b+uA7Q9lDHYYB+9j0eo5jjBttfCrjxi0kKuDFceBRwo5is2IZ/UyUe9fDAUiCEU3kpr179puA82Ju5j80gbI9iHAbhZ1PGG34Otr8UcBRw0SVGfzJo0gVSz1cKuHo4rXcesH/kATlADjSVA50E3JEjR8zq6mr2m2zjFzuDWracFDvAlhG4MUXgAD4uAG7EgBwgB8gBcqBpHMA9DMGIlAA9evSoOXnyJAVc/iPAgxWxp06dMhDJKfwl/cCBAx3LoKz8a0nFTvu6hjvZaVr+iRMnLPGPHz9uuBEDcoAcIAfIgaZxAOIN97LU/Rd5EBgQGozEDU68AUsIY2Bbhb+MS12dRQE3hmieDBL3XIohB8gBcoAcmCQOQGAgEoelPm6DwQDCra54Axco4CjMkk9ZkzRZ0BfevMgBcoAcIAfIgYIDFHAUcBRw5AA5QA6QA+QAOdAwDlDANWzA+PRRPH0QC2JBDpAD5AA5MK0coICjgONTFzlADpAD5AA5QA40jAMUcA0bsGl90mC/+ZRNDpAD5AA5QA4UHKCAo4DjUxc5QA6QA+QAOUAONIwDFHANGzA+fRRPH8SCWJAD5AA5QA5MKweGKuBgnBsxIAfIAXKAHCAHyAFyYPAcqCNeu/4h3zpGWYZPTuQAOUAOkAPkADlADgyPAxRwXGrl+xHkADlADpAD5AA50DAOUMA1bMD4NDO8pxliS2zJAXKAHCAHmsIBCjgKOD51kQPkADlADpAD5EDDOEAB17ABa8qTAf3kUyw5QA6QA+QAOTA8DlDAUcDxqYscIAfIAXKAHCAHGsYBCriGDRifZob3NENsiS05QA6QA+RAUzhAAUcBx6cucoAcIAfIAXKAHGgYByjgGjZgTXkyoJ98iiUHyAFygBwgB4bHgaEIuPl2y7Ra5W1mbmH9KPyFOTPTmjFzC8MbHBKf2JID5AA5QA6QA+RAjANDEXBFQ/OmPRKRM4p2RtEGSVpwh1gQC3KAHCAHyAFyIMUBCrjaS6gUcCkSMZ0TDDlADpAD5AA5MFoOjFTAeUur7flsOdUJo3Z7xrRabTMPQWWXJ90S7MzcnB/FU3muPOqr5drcrgAZ2g+FmD7Pjufa+RKwW/ZFethGpN48llVdufb8ilmYQ5+kH2r5uNQH8ZV7TgDkADlADpAD5AA50JkDXQu4AwcOmNRWBlyLHO2MTnfiqHg/zp1DAMGeE0Hyrpmut2JW5tumEFhSRreD45h9XVbbdGVbIgLnIeQyUWntdKg3M2cWIEBtvVbmm5wn7OR9cH6nsGV6mnfEhtiQA+QAOUAOrCcOlPVUqG1WRL+ZVp3CKAOA6pZ14kmJnkzYuKiUpGsBlUXfRAjZ5U2V70WusoiYFVuqTGlJNMyrOh9GnojIrL/JPpQHpz7OrEusyAFygBwgB8iB9cCBujpLFNzwBZwVLhKFWjBzM70KOLGhiRoKr6q8sKw+18ewoc/1cTd5QVkPB+0nj9fDhcc+kMfkADlADpAD/XBg8gQcom8SWbMiJiHgsiXP9BKqWprMo22huNLkCfMgHltG7Lvlzipf+s2DL9oHHMf6oH3mcT/kZ13yhxwgB8gBcqCpHJg8AbfihJNdPp1pm3YqAqfeIUPZ6o8YWkbeV8s/kJD316rEnV7KbbfVRxJaaIH8/rnfhs7Tx+V6oR39kYbFo+QzL7ymXnj0m9wlB8gBcoAc6IcDEyLgBjCIXHLs4p3DAeCdC1/a6ucCZF3yhxwgB8gBcqAXDqwbAWejXrL0SnFBMUcOkAPkADlADpAD65gDDRZwaqnV/oZa7KMFqvpeVD3rkDfkADlADpAD5MBkc6DBAm6ygSXxOT7kADlADpAD5AA5MCwOUMCt4/DqsEhDu5yQyAFygBwgB8iB8XKAAo4Cju9IkAPkADlADpAD5EDDOEAB17AB4xPPeJ94iD/xJwfIAXKAHJgEDlDAUcDxqYscIAfIAXKAHCAHGsYBCriGDdgkqH76wKdPcoAcIAfIAXJgvBwYm4B75tll89jeRbPw2F5uxIAcIAfIAXKAHJgADuC+jPtzlTg7duyY2bdvn9m7d6957LHHuA0Qg6WlJQN8q/CXvLEJOJDk9Okz5sWLF7kRA3KAHCAHyAFyYAI4gPsy7s8iEsI9xAWE26FDh8yFCxfMxYsXuQ0IA+B5+PBhi28dETc2AYfIG8UbxSs5QA6QA+QAOTBZHMD9ORRuco4I0ZEjRyjaBiTaYgJ4eXnZRjgF89SeAm4Cnng4eU3W5MXx4HiQA+TANHOgSsBhyXRtbY0CbogCDvgiypkSbpJOAUcBx0goOUAOkAPkADmQc6CTgItFjZg22KVkCGURaqk9BRwv2vyineYnTvadERdygBwgBxwHKOAGK8Z6EbcUcBRnFGfkADlADpAD5EBXHKCAo4CrDP+BIKN/2tltZlsbzbalKXvS3D1rWq2W3TZuW4rj3qHM0raNuQ2x1WrNmt0yMdr66lzSuY/jTVyICzlADkwoB7oXcLi3tkxrdnfwblxxz+0lChWvk7WV3dNwP5rdPWDBtbTNbMy0QtyHAbcXeZ+OEbjSxVGQqT/xOCg7/QrJGn5YIoqwSpVHeqcyvq8QdE4MLpltG3Hhziobftn+sKYt4kcOkAPkwCg50JuA22g2bgzFVHHPGZwQCmyq4EHvbQQ2I4Kqd9u9iT0KOAo4UwgtNwGG53ZSwAUwuzt/Go6W8bDUgk8m1lia5HE/ysmXbZFv5AA5IBw4t7pqDh48mM/vki575KGMnGPfq4Dbtnub2bhxm1nKBdAwhFFoMzzvRTANwkYv7abrNE7A7Z51y3x2iS4XFBmwIEZkGTBeBxdvFhnK6iDE+uLFalsv2miV+CARqXAigA0p40LGlvheXfcU4i6IcpvwBSJJliL9Zc2Y3xdNuZ8JPzyh5drR9mPirJQWCDp9Ydvj3bNZ9E1jA39SmOlyPC7hGYwZ88kRcoAcGBQHzp47Z66//nrzyCOPeCIN9pGGvDNnz3p5PQu4JXevwj3HRayy+99SJlS8+6S7X+DeViyBRsp3WpbF/SoXjUF9uefb9rO8bf4rRRdtGf+e7tLc61b5sdIgsXt4HqGL9DHPy4VtWrhJ2cYJuIKwxSA40dXKB8iJrNh7bLqOE0FauDjbKKNsqdBrLu7k/bioSJFJRbeFNGfXicSLxvcx1marEECeDym/pV1pS/of+qHLZcc17Hcn4OCjtK/bgy8UcAWHNTY8Ji7kADkwPg6cOnWqJOJEvCEvHJt+BFwueLRoKh1fNBezeyz2+btzSNvoXs+BkJF7k4gat8/uqRJI8QRecU8symohpt7TU/dG32eIK20na09Eoq3n7uG2jSo70scuhJv0tXkCLgPGRaZEJBRACslEsdvzWB2rgGNiIrSlzj3VnKlxRAG9dLGp6iF6Emmv8DEoq4jh+qPyI3akzy/G+hnaivqqo30bzeysvLtWTCZykXht5RHQopzNRxvRPPRD8AnqMMJUmiBzrIkNsSEHyIERcECLuCrxhrmpPwHnxJkTZcX97aJ3fyrusTY9E0e7ZzeaYhm2CBaIqCmJMnXPLOVZ0aTaV/fLclldLibgRASGecF5qo/rXsCpgXDLnykB56JUNtqVquOlazFRDJK7garzZB1dX45VPVx4kboDFXCe/YLUpahhjUmg8Ev6ctFYcahEWUnQKbvIyyONKt35QgFHYaZ45fGD6eQGOTBuDoiIw7JpLPIm/vUt4LJXmGZ3F/dKJ+DcPcIXZHJP221mrZDD+azZjfueRL08AaRslqJ0fl45kpYSYr3Wiwm4WB9RrrutWRE4RJiywYotQebLoVrMJOs4kZfXyW8kxSA5oupzHKulzbxObNLR9ZDv6ubCRvuoVH+5TakrYjXhd7KfoR8xX1WatqP9Svob2pcLTdnMcUJZCjiZALmPcYRp5AU5MG4OnD5zxmCr8qN/AXfRFBE3EU3uPlm8H1cIGhs0CJZOZ2fdu9Zl4VPcl8qRNHcPxb3Y5uGel/8cSFW9XvPQjq6LY7W8mou2sIzGRI4LPOB7swSc/uhg46yZzd+zch3H0p+89J8LpWQdTBIOSL9OAaIjb3BuhYz/MmOK5IhkWdsSufLqiiATP7o9L3xwfXWktO152KiPG8SPXFDJRKlx0AIr6Lslumu3wDcoYzHVNqQN6WcqT5fjcYpTTCc3yAFyYBI4MBABl0XHCgGlRV1x/7RCy94/lZAJz3MhFAomJ3ogACUAZN+py9+Pw89bid3iflYWfv69tCzKxEas/cCupwXknTtdJnXcaAGXunCLzk4CselDapyYTm6QA+QAObAeONC9gPPFhxNITOsHh4ZF4FIXPgXcepgQ2IcUv5lObpAD5MBkcYACbvzikwKutJw4WRcJJy2OBzlADpAD5MCkcYACjgJuAv8WKieKSZso6A85SQ6QA+TAZHGgSsDt3bvXrK2tdf1VZT/LidNWF/iukwjcZBGbEw3HgxwgB8gBcmA9c6BKwO3bt88sLy9TwHkfVgw2Ynf48GGztLRUGQRbWVkxBw4c6FgG5eRfCyd1tk6GH9u7aE6frv6UeT1fIOwbbwDkADlADpADk8YB3Jdxf07d548dO2YQhYPIYCRusMINeEIcA1/gnBoDSe+ks6TcwAXcM88um7//h/vNN791DzdiQA6QA+QAOUAOTAAHcF/G/Vlu/rE9xMWjjz5q7r77bvOtb32L24AwuPfee+3fp60j3jAuYxNwMVIwrV50kzgRJ3KAHCAHyAFyYLo5QAFXc0mYF8p0Xygcf44/OUAOkAPkwCRxgAKOAq4yVD5JZKUvnDzJAXKAHCAHyAHHAQo4CjgKOHKAHCAHyAFygBxoGAco4Bo2YHzy4NMnOUAOkAPkADlADlDAUcDxqYscIAfIAXKAHCAHGsYBCriGDRifuvjURQ6QA+QAOUAOkANDFXAwzo0YkAPkADlADpAD5AA5MHgO1BHyXf+Qbx2jLMMnCHKAHCAHyAFygBwgB4bHAQo4LrXy/QhygBwgB8gBcoAcaBgHKOAaNmB8mhne0wyxJbbkADlADpADTeEABRwFHJ+6yAFygBwgB8gBcqBhHKCAa9iANeXJgH7yKZYcIAfIAXKAHBgeByjgKOD41EUOkAPkADlADpADDeMABVzDBoxPM8N7miG2xJYcIAfIAXKgKRyggKOA41MXOUAOkAPkADlADjSMAxRwDRuwpjwZ0E8+xZID5AA5QA6QA8PjwJAE3Lxpt1qmpbaZuYXxq/uFOTPTmjFzC8MDtCArMBhVW7H+1G2/brlYGwNKG+m4DMhnCv/xX88cA44BOUAOTDEHhijgtHjJBF17forINm5hVLf9uuUofApxTiyIBTlADpAD5MB4OTAiAbdiVmyUpW3mp0Ytj1sY1W2/brnxEpUTBfEnB8gBcoAcIAcKDoxOwK0smLmZlmnPy75wYmW+bVozc2ZhJRMTc+18+VUvvc631bJsHs3L6sxjedTlt+dXzMLcTMRGKFacL7LUi3qaHGivSAvqQpCKD1acim8iUst+6b4U7ZTLpf0XISxtaf/8vJm5ObWEG/guONul5CAv2hfBpWrs/PZbLR+HdhvjgbQY5lU+6D5m5RL8KDAVf7knJuQAOUAOkAPrkwNdC7gDBw6Y1FaQJLgh26ibuvlDsIn4WVkxhVBCvVaRh3K5ENADoO1ndawAXDFWDLZaJhdLng1dz/mTl4tFBrWf820zMzOT24VAdHW1Tdd+kd7KhKmIG72sLP3p1n8laKzYEpvOjghOJ2B1nhyjXe1z6lj3RXzN8E2OnWoDeNn3Hp1fOc4a0xzz0IfqPubc8cbW+ZjiJtPT1y2xITbkADlADkwWBwo9pe6/+T3TpfUk4Dob1jdkaRyCSW7wyFcRGhFfnrBAvcCOvWFL9EnbkuNIHc+GsmfFj/ggPgZ7lMl8m2/PmDlE+ey56osXscp8swJHtZWBXghV3U5YruI84nNuU/nqxkfb0cchRiov2ZfQX8Ft3rRl7JJ1lX3gkJXLBZ3FRpWx+WLftZv30RvLsB/aRx53vkaJETEiB8gBcmASOQAxXcev0Qm44MYsESzZO2fVjbzyxq4EVMeburapjgN/4mBJOyJUcN4286jrCRdfcMT7groqspSJupJIrepPxOdc3GifQuyqbOq8iP0YLjJmsrdlknUV5nmfiyVuFzFUZSJ28j5qX0t95EQUGyumkRfkADlADjSLAxMm4HCDDsSLFRxt086jcgBY3cjDGzSib55okqhbRZ3QhmffCSo/ElQeZCtSgqXTdluWB8VntWSbixTX59x+RJi4i6pb/xWOnk3XXnwJNRCPNpIZwy/wOe9LgEs+dlq4puqG/StsFQJQl3F2pB/+xy+6nGAv/SjscrIiFuQAOUAOkANN5cAECDhZ6sQ+fpNFZCV/n6kktkA+fcN2IsR+cDCjhZ8uE9YJz2NlCz9z0aCFixVJyv/wHGVtWmHH9cm15V7ed3lR+14fQ38j515byi/4oZaY/Y8Y/LxWu53+wMGzH44P/MGWjYV6F86mR+sGmCsfi/cbgzKeHd3HoFwJO/GP+6ZOXPSb3CUHyIFp58CYBVw9AhZLY/XKT/ugsv/kCTlADpAD5AA5sL45MPkCDlEWWRLVES8e13p5kRfw+r6AOb4cX3KAHCAHppMDEyzgZClUL41N5yDx4uS4kwPkADlADpAD5IDmwAQLOA6UHigekw/kADlADpAD5AA5IByggONSLJdiyQFygBwgB8gBcqBhHKCAa9iAifLmnk9h5AA5QA6QA+TA9HKAAo4Cjk9d5AA5QA6QA+QAOdAwDlDANWzA+LQ1vU9bHHuOPTlADpAD5IBwYGwCbnl52SwuLpq9e/dyIwbkADlADpAD5AA5QA5kHIA+gk4SsRbbj03AwbkzZ86YixcvciMG5AA5QA6QA+QAOUAOZByAPoJOigk3SRubgEPkjeKN4pUcIAfIAXKAHCAHyIEyB6CTRKzF9hRwfOKhkCYHyAFygBwgB8iBCeMABdyEDQifMspPGcSEmJAD5AA5QA6QAz4HKOAo4PhURQ6QA+QAOUAOkAMN4wAFXMMGjE8g/hMI8SAe5AA5QA6QA9PIgUYKuKVtG01r4zazFBNfu2dNq9Wy28ZtS3yiiGHENPKCHCAHyAFygBxoNAcaKOB2m1kItKiAQ96s2W1JieONZtsSn0ym8cmEfSbvyQFygBwgB9YzBxon4BB9m922zWyMCThE32Z354oaZRmF4wW8ni9g9o38JgfIAXKg+RxYXV01Bw8ezPVLOKbIQxmd3iwBt7TNbIRAwz4i4EqCLRB0uuM8bj7hOYYcQ3KAHCAHyIH1wIFz586Z66+/3jzyyCOeSEPfkIa8s2fPenkNEnBLZtvGbEmUAs4bxPVAXvaBkzA5QA6QA+TANHPg1KlTJREn4g15ITaNEXBedI0CrjSQ4cDynBMhOUAOkAPkADnQLA5oEVcl3jCujRFw9sOF7OtS+cq09CFDsGTqiT5+bUPRRw6QA+QAOUAOkAMTzgERcVg2jUXeRJQ3RsCJw3bvReDU16ZI51eovDgn/OL0uExfyVdygBwgB8iBgAP4Y/XYqu4X60vAAQD1O3Czu5sVOq0aKOZxLMkBcoAcIAfIAXJAONBMARcoVekM9yQ2OUAOkAPkADlADkwDByjgKAYrQ7TTcBGwj5zsyQFygBwgB5rGAQo4CjgKOHKAHCAHyAFygBxoGAco4Bo2YE17QqC/fKolB8gBcoAcIAcGzwEKOAo4PnWRA+QAOUAOkAPkQMM4MLECbnFxseMntFT0g1f0xJSYkgPkADlADpADk80B/MQIdNLKykpyO3DgQDJP1zPZv5ZOrDruZHh5edncf//95p577uFGDMgBcoAcIAfIAXKAHMg4AH0EndSPzpK6AxdwYpj7tLomNsSGHCAHyAFygBwgB2Ic6BQokzoUcBVhTAGJe15k5AA5QA6QA+QAOTAKDlDAUZhVhmhHQUK2wcmOHCAHyAFygBzojgMUcBRwFHDkADlADpAD5AA50DAOUMA1bMD4hNLdEwrxIl7kADlADpAD65EDFHAUcHzqIgfIAXKAHCAHyIGGcWCoAg7GuREDcoAcIAfIAXKAHCAHBs+BOpHFrr9CrWOUZRjWJgfIAXKAHCAHyAFyYHgcoIBrWGiVF8PwLgZiS2zJAXKAHCAHmsIBCjgKOL4fQQ6QA+QAOUAOkAMN4wAFXMMGrClPBvSTT7HkADlADpAD5MDwOEABRwHHpy5ygBwgB8gBcoAcaBgHKOAaNmB8mhne0wyxJbbkADlADpADTeEABRwFHJ+6yAFygBwgB8gBcqBhHKCAa9iANeXJgH7yKZYcIAfIAXKAHBgeByjgKOD41EUOkAPkADlADpADDePAkAXcgpmbaZlWK9tm5sxCvwDNt5092FqYMzOtGTO3MDyFm3x6GGfb/WLI+pyoyAFygBwgB8iBRnNgeALOCpyWac8boLSWAAAgAElEQVQrcbUwZ+b0edfkmTftVmCzaxvKn67qou0xicWu/Oy1f6yXFOvEv9GTHMeV1zY5QA6sRw4MScC5yJsn3gZyExyniBpn27z41uPFxz6R1+QAOUAOkAO9cmA4As5G39pmvkq0ZRE6WV4txF4mlOaypdJWy8zMLZiVFaQXy7FFmoqKKZszc3MqYhaKL33ujtvtGdNqOZ/n20U7rfZ8qe0iLd42+tS5PyRtr6RlPXKHHCAHyAFyYNo50LWAO3DggEltOZgQUpXvuzkxloscK7xEDLk8J5JWzIp9503EoBZeIK8+920uzEGQaZtyHK/nBGF4QYT2q2103x/XXgpPpqe5RmyIDTlADpAD5MB65UCupyoCYT0JuI6GrSAT0RWKohWzEslH1MsJIC2aYmIrIaJKolHb0cedbIpolCictFdho+f+RLCpGKyOuLMu39UiB8gBcoAcIAcazQGI0jr3++EIuJUO78D1LHg6iCgv6qfL6uMOAs7zDf2ggKtDJJahGCcHyAFygBwgB/rnwJgFXBHFypcV8USQf4UKQSURtzAi14XYqr2EGghKuyybEGbIEyFoxVyiXEXbfoSxqj/9DzQvFmJIDpAD5AA5QA6sHw6MX8Blgm1GfXiQC6NSnogkDECV4KnKK0QjPiLwP2Lw81rtdsUHDk7s2Y8rZtqmnUfgVkz+cUP+YYPy24q9cNm1U3/WD+E4eXAsyQFygBwgB8iB/jkwGQJunOvw3lJo/4CSlMSQHCAHyAFygBwgB4bNgakXcDZaJkuh4xSSbLvWy5jDviBon5MuOUAOkAPkQBM4MIUCTi192mXbiq9gKaooqsgBcoAcIAfIAXJgAjkwhQKOTxZNeLKgj+QpOUAOkAPkADmQ5gAF3ASqahI2TVhiQ2zIAXKAHCAHyIEV+8cS6uAwpN+BIwnrgM8y5Ak5QA6QA+QAOUAOaA4wAscIHN9tIAfIAXKAHCAHyIGGcYACrmEDptU3j/k0Rg6QA+QAOUAOTCcHKOAo4PjURQ6QA+QAOUAOkAMN48DYBNzy8rJZXFw0e/fu5UYMyAFygBwgB8iBCeEA7s24R1dF9o4dO2b27dtnx+yxxx4z3AaDwdLSkgG2VdhL3tgEHAhy5swZc/HiRW7EgBwgB8gBcoAcmBAO4N6Me7QIhXAPgYHgy6FDh8yFCxc4bgMaN2B5+PBhi20dETc2AYfBp3ijeCUHyAFygBwgByaPA7hHh8JNzhElOnLkCO/hAxJuIf8R/UR0U/BO7SnghjQA4YDwfPImKI4Jx4QcIAfIgTgHqgQclkvX1tYo4IakH4BtFf4i6CjghjQAnBTikwJxIS7kADlADkw+B6oEBAQcx3C4YwiMRail9hRwFHC8EMkBcoAcIAfIAY8DFHDDFWidBDAFHC9I74LsRBjmj/eCJf7EnxwgByaFAxRw4+ViwwTcbjPbapmW2jZuW6onQHbPunobt5mlnkQb2t5oti3VHbAls22j8rXndlV7ug9L28zGrvxRdnrqv6o/jLZ13/r1b6j1u+WBwm2ofg25HRmfVsskr7kOZZa2bfSuXXcdz5rdgoutr84lnft6cxxxIk4j5sDoBVymAWZ3R8fazTHd3Kdl3lTzenh/k3ltEPfwAY9PAwWcHpzqwSyeUly52d0yWL3s1QBf1McRW5YALeO1t7TNbOu7/cDmgMlQ4BX2qUN/+/ZjEOMT+jys80FhMSg7/fazhh+WzyKsUuWR3qmM7ysmWycGs4ed2Vllwy+b5ibLERtyYFwcGI+A22g2btQ6QMYfcxCCJrE8KZPaV81r47rvpnwt0hsu4C6ai97NpeiYT+jU4KTKx9K1DX0clnU3I0+89S1w0EZVm6EPgz4fdtvDtj9IPAbl66Ds9Nu3zn4UQsu1FZ7baw1PqeqpOFrGuw7Qrgg+6UMsTfK49+c04kE8BsuB1dVVc/DgwWhkC1gjD2U07uMScLOz8vCnMLBzEB4CBy3gerGn/PLmvcGmN1/AXQwEUxb9KpZncFMoljJl+Wf3bJFW3HjCm5k+l2PfXlE3G5g6gtLzUav7rI1t2XJvvlzlt+n6IP7odl2fNm7bpkgclPOEoMvDxdDKbqZlXPy2XX8Dm133R5PYty/j44R5MUaFIC77rCeUsv9oK/N3N5adBaNi6T1eB/X8ZXDnQ7Ut3+9QoEi//T7nHOqEo/IfvkAkyesEOW52soj5fdGU+5nwI5hwQjEWngP/Ulog6PQY2ePds5GlWPiTwkyw476EZTBezCdHeuHAuXPnzPXXX28eeeQRT6TBFtKQd/bsWS9vXAJu21I4V2DOg9BCuhJcyTlVgj9yP4jdM/35ceO23fa1qOJedNFcxDw3xqXVdSbggsHLbxJBujfh6Tx9jElAn6eOg8kChKkcUNhRos0STAjn8vIbOsiR39B0+zHfCpvuxq5tynG8nn/zl/7o9vRx3EZO6tr9kXZCe3Je9MeJIumDwyjuc8qmq5NfaJ6PqTpOBJXbCWxVjVHOP92GHMcwre5z7r9tU72L5vmQ8lvaxV63rY91GXVcw353Ak4mW9WGvSbhCwVcLzdf1gm5xPNeOHHq1KmSiBPxhrzQ5vgEnHsg9e479r6r5zMcV8+pUj99z9T2MsGmVhrwUCw2QmxGcb5OBFx2c7c35iJqY6MTFuxgEHCzyG6CLoKhxYEcYwLQ9VLHwURhfai4CUXyCxLoNqraD/Jg0xON2o4+Dup5/cv60S0uPfcnay+/cSvcu7Kp7dQd1+Dij/U54oO7ICvwtHUi/PPShRuBnUh79XgRjGnETj6RxPoZciDqq472bTSx5YuuBBzaUJNg7p/1RfAJxtV76GJegRmxIBaD5YAWcVXiDbiPU8DZB/vsvhedKyNzYV4OebXumcE87c1Ru82sZ2Ow41CH180XcHqQ9LE34QeD4JXT0YCgnHdz03n6OBw0FwFJqnKvbVc3J5XXHvJ0O/o4yINNj0i6rD4O6nn2JaQsN9CauPTcH9d3R9LAx65sKjtevSr/1Ril6njpqo0QM32erKPry3E/fQ7q1vHB860KG/EvvS/4qspAHCpRVhJ06npEXvz6QL+Ef8q2qltnUmMZYkcO9McBEXFYNo1F3gTfsQo4+4rLRrMNr5bk9z81N3pznsMjn7uQl9dBnqqXPHY2ZG6TvWAxjn3DBRxA1yFMdx5f9lIRHtxsZPDsIEueurHjpmEjFpKXGuDIhZJFOrybVP4VauCzRzLdRhWpYnkFDiBW8SVO3T5l/Y3i0smvom233Ck34ap6GrdYubo2lZ3kuMK+WnLUmCfrONw6cql0sat2KoVHP32O1RWeJvxO9jO0pfCM+a/t6L5rTHW6dwzb8E98DduCL8KdMI/n47hBsM3p5R3+WD22Kg6MV8DJPVrPuXo+w3HVfaTI8++ZoY1gvsJct3HWzHrzWKqOTh88lxoo4PQSVQAsbjj2RqLKRJdQ3U3OLp+GA4EblHz0YH/WQNrwBwJKvliijQxM6IcIo5KPYh82/Db886q8gsjwyf+Iwc9rVfTJe2k/wMXvb+CL19e6/dGYBfa6wkjbSY2rs+8+1nDjVojrVB0Zj4JLrk7oa3DuYdHyolLhROhjGnK3GxwDHyyPQr/T/Sz5URJusC/2tMAK2lXXToFvUMb6pm3o8UPZVJ4ux+OQSzwnJ8bBgbELOPtAqOeMYL7x5mM9p/r3Rf+eqW3o44Jjds5UKw7pe3W8/qDGqmECrgBwUACsSzuWtJrU047bcC+idcmhkoibdg6x/+Q5ORByYPQCbjLGAAKueEgdn08UcOvwRmWfDnTEbx32MZxIqs8p4KrxGd8ERL+IPTnQXA5MpYBDgGRC7q8UcOtC3KjlMbvUxeibf1OggPPxaO4Ng/3g2JEDk8OB6RJwcp8NlmLHqCEo4MYIPieiyZmIOBYcC3KAHCAHuuNAlYBD3traWuVHEMS7O7w1XsCWAo4CjhcYOUAOkAPkADnQNQeqBNy+ffvM8vJy1za1SOFxWuAdPnzYLC0tmZWVlcrtwIEDlflS32T/WpLQad/J8OLiYsfPmDnA6QEmNsSGHCAHyAFyYBgcwE+M4B6dus8fO3bM/tAvhAYjcYPjILCEMIZ4BsYp/CW9k86ScgMXcHDy/vvvN/fccw83YkAOkAPkADlADkwIB3Bvxj1aBEBsD4Hx6KOPmrvvvtt861vf4jYADO699177t2nriDeMydgEXIwQTKsOlxIf4kMOkAPkADlADpAD4AAFXIc1Zl4ovFDIAXKAHCAHyAFyYNI4QAFHAVcZJp80wtIfTqLkADlADpAD5AAjcBQvFLDkADlADpAD5AA50DgOMAJH0jaOtHzy4tM3OUAOkAPkwLRzgAKOAo4CjhwgB8gBcoAcIAcaxgEKuIYN2LQ/cbD/fOomB8gBcoAcIAf4DhyfOChgyQFygBwgB8gBcqBxHGAEjqRtHGn55MWnb3KAHCAHyIFp58DECbj5dsu02vNjFhXzpt3aYLYujPACWdhqNoy6zZh4HZQf823TarVMa8NWsxBrZyxpiXEdVJ+76VNlmwk/u7E/sLKT5MsIr0fhb6tlNmxdiM9HHcosbN3grgFcB/nWNvMyNra+Opf0Ye4reTccfOvN6VU8U3lV/lfl9Y2p8iG0JTyYqLluUGNZ0e8Qh77O+2xnqGMvWGof9bHkd9r3Uqfa5mQJOAzChrZpbxixeCoRrxuguymrB6PXetrGOI+r/Edey7Tnx+lfrO0qn2PlR5UW+hWej8qPWDuD8mVQdmI+dpNWww97MxBhlSqP9E5lfL8g6JwYXDBbN+BBta1s+GUHF1lI+T+s9gK7tef0Kj9Tean0wIfS/N5LfqotpA9jrku114vv/dSp40edMp18GISNTm2k8uu2rcvp45TdML2XOqEN/3yiBJxMcLIf3CTmd7qz3W6A7qas9qPXetrGOI+r/K/Km1SfJ8mvScJvUL4Myk6/49TZj3D+Cc/t/IGoi1opiJbxhAPaFcEnfYilSd6g9p3723k+7N0XwUX26baq/EzlpdJ797d7/4blw7DsdotNHT/qlOnU7iBsdGojlV+3bV1OH6fshum91Alt+OcTJODwVJpF3uxTW8XSm31CdssSG7Zu9Zc7VR6WLbwoUM28ks18Is6enLPlkPY8BkQtj2QTul0ykPR8kneD125HllVsGT242fHWbBkyXMZR/Uj7mtmYx9KsYKWWgpQNH6c6fqBMud9u8vPz8uWnDu05XPwbHHAsxk/7tWJWYE+wrW1b28j8HAL29fwWXzI/BE/tT2rscj6umCqubU3Uj9fBxBDyG2mZnwlbdhzE95JAkckm1sdsDPO6kbFWbYIHEAGyFJnzymIR8zuGTcIPhSc4HIqN8DxWZiUQdCUhMN+OLMXCH5/zRT2He3FduPPitQ59nh2X5gukh9dppF5dnL3rLOW3jLnwqWJOV/ZK81gyT/zv1Lca/Crh5XyPXx/Sru6f74NwMl5f8CjGI5/bVF9blg++XfegEOd4wZe0/bg/WX8SGBR2/X6XbcV8DbEXrjhbBadDLDeY1JzVeZ7RfmbH0b6FOMb9L/cTvkbakNesSmOY9U2llzgezDsF5hqX6uPJEXDoaP4OAUBOLaM6wIX8blKXsn6eG/Tu83ybCsDoJK0HVZW1g6PznG9ykftkQL1y2fwJ375joS+C4maX9NXaU++gWSLVxcIvl/ZDylX1W/pW+BwblwIXZUvjjRvgBlmC0jdZh6vwodq2YOwu4rzOoLGv7bfgJ35J312f8vcHvfGXMuFe2wjqe2Ov6+k6DpPyOAS2PF90/RUDEVOuL+0FZTN+5mPg+RhrU72L5vmQ8lvaxV63rY91GXVcw35J1KGOPFCUJubUfAZf5LpW7edzh+qz14dYn9S7w57/YX/1OY7VHGHrqTar7FSOddaXyjndtS3j789jnfKqrhudVz3n5OPl9VOPQ4iV2E6V0ek41vVTPNVl9DVUTs/9LfELbaXsa5+0TRynOJOqk0rXdlEmOM+54tqMzxGZP6IBSvOBwj63V+VPom8Y69J1Gvjr4avz6hyHY1hw0Oe49r3344kRcOGEaDtbAjpT9jLI+USXDa4ddH9ChJK2k0SnvJRNPZjWhprgwvalbDYRumiBEE8PfoTkHukrysKHOr569hxBamHh1avwwysXEjCoV4V9lR3V1/l29nRm+65uiF3Zdn5t2FA1hoHv2j/lj3taCstmOKhySb+1Xe+4EzcCrGtxzUWj5GZpo0V5ZCZ97cT7qPpssS8iCpbvuGa9dLkeVT1cJ7aM5Lk+5fzsBo+InfxJtg42UV91tG+DQcQgvOmE81VlBA5txOYy208fg9z3bjCoLBvg7pWtygt46OGUjXm0TwU/Q4y8OR32UvNYVV5d/62/Pra1+VWHNzLXe/5kfY/Vj/hjx9qmR66h0G5WLuRhzpeUffgZ8ye0XzqXcQw4UsdW3T7lGAZcy9Lz8UraEx/D+oHPum9RHMPydTBTdVL+IT3Fca/vuh/dHU+IgAMYAYntuX8B5oRPgWKB9Ov4JKjIS9mMAG0nonx5Vg0kyno+KKGhSWRtBvW8/Iq82qQIbbgntI5itq4fXrmQdEHbHiaubD4ulXYEv3nTtuOD87aZ1xh0ZRt+tWwkz38K0/7qY/iqznW70TEUHGr4re16x0GbVe14fZc2Y/WRF3uQUXU8W9KPmK0Aj2QESduI2Im0l+aEajPEI2Innydy31Q/S1iHfpbPC79UHm5kSsCEYiW/sWZLsrl4tv6LHfTLn5OKehV9DjEo9UnX1cdoV5/r4zAvOE/h7PVH+iV1K+Z02EvNuVV5df2P+FuMY0W/vXp1eBPYStX30hVOqXSvn0V5/95TpPv3nVR6VX+CfuTjqtI9XytseeWUL4k+Oc6rdmzbsB+bs7Q9fazr62OUCc+LBzR3XQb5nv+pfqo6XnnlE9JTHM/xVeV7SJsMAYfJ0OsoOqUG0OsYgEuFJf08n9T189xFIpGzOMDFhK0GEn7qvtiBFTtBuRKpdL4+Rvv6HMep/mtfXbn8ic0jmW+jjFMdn7VPut3QXzkvfE63F9rJlkqDpdN2Wy/V1e2L+OH6hsk8x6aEr/Tfr+PGoehHFU8sPzr6Le2EWHY6z3Cq5Jrqnx77ZB13vRWYyFhU+eKwL9eRunofs1NgWc2JWF3BLuF3sp+hLe1j5Fjb0TzRmOp07xj29A0gtA9f6gq4YD6EX/nPDoV90uf6GO3rc30c5oXnKKs4lc/JoY2sjx5uWZo3pzt7Imz9a6lTnox92LY+923U5pf2u3L+lj7pNqvm/wRP7Xh0gWvkHU0ngBL2a/cn6EdsfLuy1V2fZG7N55LS9RWzJ2OAvfZfH4d5RZ3+7uG6DRzH/HPpcY4XfhQPbd2nTYSA82+mRSfsRa2ecvOOgkhZxK70YqAdeHnykws9s1mVV2VTyKzKuJdNnV34ny8fZZOUPfd+EkUPeKyeztfHKBucKz9K/RdfszruhVHnnxDJ4pjEQrelj8t++P12fXJjFNaTyGRsXCJl8z5IPTWO1m91jrK1+hL67yY89+CgfdDHYR0/tJ7GXnxSfpb89tvxsfTzSuOf45P1AddChGvxsU/Vkb7KGIm46uCLh7167yT3seCF30fBSNpTWIV8r3UudsTvdD9LfpR8RZ/FnhZYARbqOiyuraCM9V3bKPBw41qVpzHxued+gkTyY21KnvqYw86luqw+lvEv6pV4Fx3r0IbrHzDOb8YKX29OV/iVrqVknt+eP5Z+Xl/zQuKaKj4ikXEM2kzO/4Kv8Ep4Gl4HxTXk9U3hoe89+T3RYgxfQvup6yD0OzyP9S9lK+RYqk+pNgQb97qC3NuLayplT3ws6rvxCdtR5wkcPayTY6jshHNS9Nrwr9kSx9V14Y+j7lf18UQIuF6dt/UscKlJsLrzfbU7APAH0n6y/5psU4DDOMYjif248ebYD+TaGgen2Gb8R5OJC3EhB0ocaLyAs8q5tPw67hvo6NpP95838WHfxNPYj278433k2MdxGfe4sH2OCzlADgyOAw0UcCqMa8PF0xZ9q9t/3sQHP1HUxX5wF2hvfeDY94bbuMeN7XPcyAFyoD4HGijg6neORCBW5AA5QA6QA+QAObAeOUABx3X10rr6eiQ6+8QJnBwgB8gBcmA9cYACjgKOAo4cIAfIAXKAHCAHGsaBKRFwVe8EVeWN4GlFPmsexYcY/397Z98kx1En6P4GfBopQhF8A/69iIuLuz86iJg9AqOLi7vYW5bdY7kbrUTsCwKOgPEKFrFwB74ZuJAP8WKvvTc2WIDtsS0GW4xswDbWSBq9jISFNTIiL35Z9av6VXZVdXV31XRl96OIVr1lZmVlPlX5ZGZ1j//WpP2ZgDavz5Rjp+eZJM8mT/O8MXtTHpOUHWEXqafOtcAzDCweAz0RuK4b2rr06451XeFybvN7QK1LxmFeW9W5qvbXle00cSS9MF64XXfOvh5bhGvoa9mSLxp1GICBeBlA4EYa/cOszK4b567Tt2VVda6q/TZuuD5NHEkjjBduh+eJYXsRriGGciaPNOQwAANxMdADgZMGKv/16OzvC/ppp3x/4VeZzUhV9gvKkob9qw0m/sgvINcdy9JOG85T9q8+bOXvCJg09JexJS95PoOGV8Lb/HnZyK8v+dXyIE5BSMbkx/56tB/Vk/B5+knZBOkXrqEk7xXXXl7mNm1dD/NwKv/7dlrOMoVcmD4O46wnZV6ZV73hyuKl+Vg/5Y6mZVH4dfhCmmU/R1MXPzmW/LWDNG4hvZLy3ErzWghnz1v8mZLhetk16fWypLGBARiAgWVmoAcCJwCmDaU2cKncZDLkG7xx727ZNJKGT+M3/zt79mZIG0+VLv+umja29lzJn8vwYiBhTPijwd/CLMiDF5ggndJy0Ouuy0/S8E+WfpKellHyZ2eanCssIxtn3Hr6p0W0jPaTP8GS5UGlrrQcjBBV8lBWnvJnpk65LUm7SR1meVAuTfzCeZPyy8t8XHmWlY1hJxXwPD0t5/CadD/LZX5wc+3wDwMw0E+B8w2lylJSScXRLVNxvlHWkaa0kZT42miHolR3bKTx1kZXzmcaUp8/PWe6FCkxaa8Pj7pTMvLj8yGCZdPS/Js0w3yObNeE9fkplldyc08WJy/jmniSr7Iyt+VTua7lqHldd8NCPVWUS8n15XnVOJq2Leea66iqw1oGrHAGadfm0YStOm9J/PI6tNfLOo0YDMAADCwrA3ELXKHRM5Ik+wtiEDSgVcdqG+8gjYFKiL15NA8qJrI9dOsj+dE4Js0RYZMw9rhdD44VykHTDsKE6ZfEyaWo6bn0esNz2fh2PcmbjIjKSJMuR2++IE5tXhteb4PrH5uPdJQsGTGcJI8mbMm1+PNW7S8wYK+V9dH6okwoExiAgeVhoJ8C5xutcMqsRJhkJEhlzDeAOvoiDWYef/opVE1PgDCNcJq/0emu/URKgqnT4XDohWX0xrJpyjlEiPJ8JyNdmocwrN1O4o3mx4Ypv4Zs+rIgEDXxasu8LK9hWvvpSOXQDUtHJcN86rYpl0Je5bh+wnPVbcuxQUW92PRMmMJ5y9KuyqMNW3XeaepQ88kyZ4CyoCxgAAaWg4GeCFwyNTWwX0TwjaVOU6oYhJWSNHo+3tFACMw038iXGOqONZWBQv7MFyj8fpPfcDtLX67FNuzptZm8DYZDNxxoWmHYsm0tr1wkZFQtL9cgTuEa9Dxl+bLxqsrchrHrJXWbvvuWvS9YKJOkHIr5TqUv+1KGzWtabmkaxXjFfIyUd+H6TR1m+UniJ19USMoxE96yuiukZ/MY5KMQzp5Xwk1Yh1lei+XAA5zygAEYgIHFZqA3Agdoiw1aWL/5dG2frzsQr6llSdIpGUGeOr0+lxl5C1lnGyZgAAa6YACBoxE1U5CHdJPJCJROffe6/FsSODvt3OvrPaT6pwwO/56jzClzGFg4BhA4oD5EqHX61U4v9lkaZhS4bKo0luvtc12Qty568KQJVzAQLwMIHAJ3iAIX743CQ466gwEYgAEY6BMDCBwCh8DBAAzAAAzAAAxExgACF1mF9cn+yQu9URiAARiAARiYDwMIHAJHrwsGYAAGYAAGYCAyBhC4yCqMns58ejqUO+UOAzAAAzDQJwYQOASOXhcMwAAMwAAMwEBkDHQqcJI4H8oABmAABmAABmAABtpnoMmIoEv/DZoEJgzDzDAAAzAAAzAAAzAwfwYQuMiGVrlp5n/TUAfUAQzAAAzAwLwZQOAQON6PgAEYgAEYgAEYiIwBBC6yCpu38XN+ep0wAAMwAAMwMH8GEDgEjl4XDMAADMAADMBAZAwgcJFVGL2e+fd6qAPqAAZgAAZgYN4MIHAIHL0uGIABGIABGICByBhA4CKrsHkbP+en1wkDMAADMAAD82cAgUPg6HXBAAzAAAzAAAxExkBHArfuhoOBG5jPcL1oq+vDgRsM1wNgxsebj/VLvo64k1vFa5g9LzXpbp10Rzo5Z9vXQHqzc0AZUoYwAAMwAAOTMdChwNUIj8jJkaEbHgnDBEKzPnSDwdCtz92Kg3y1lp+u0p0MAm4aygsGYAAGYAAG4mJgLgK3dfKIO3Jyy+kyhyYUmnB7XoXbVT66Snde5cR5c5YpC8oCBmAABmCgOwbmIHBb7qSOvPmRuJNuKxvRCoRGRuCO2ONaEGm4dZlmTKZqZYpWhFCnbUUQM3D8dKRO6eqI3iRpjIZtmv5wKHmSc8p1ax4GLplSrks3PeanbevCaZmwzOo744kyoUxgAAZgAAYWk4GJBe711193VZ8cEhGOXFYK06AFaTMy5xvdIN7IO3JaCWk4lTs/1Trwo3o+D4Wp11R+9P219WEabtI0BrlMeiHU6d/69DPRkzyNXE9ZHgLBzASu6vxJmVTVCfureaVsKBsYgAEYgIE+MpD7lHrP6HIqgRufcCA1ZkQknDb1owHjwjkAACAASURBVGaZ2Jh4XpJUZsKMm3CZ+KlQSVhzvDD6lkqlP58JMy4Nm156LfIlDD+K1jT9NFwmdBOdM8zrvsvOn+ZnfJ2EZcg2ZQYDMAADMAADfWNAhLJJng5Z4ERE7MicrquoFUUllL38gorhCsIWilGlCE6QxojAJdOhucBp/u2NEKafHNNp3sIUqo4OFs5j49t1ScecH4FrBHrOjq0j1ikXGIABGICBfjHQT4ErfafNykgoKuG2FnK4v25bjpnp1Ux46uLIeezxII2CFAbHKtPXvCfv6iUjcfYcZefUUcXgHIXz5+lyE1IWMAADMAADMBA3Az0QOB1dS5YiLDLtV5xCTAo5n0YNhSb9YoK+61YpR2G8YDudvtQvOCTvogVhCsIm+bLHk/XkCwnJ9SQjaCkkTdJP39NL8qAjdvYc5edMfntuzPmzcknzwzajcjAAAzAAAzAQJQNzFjhEot0eUCh6lG+75Ut5Up4wAAMwAAP9YACBW6ieBwLHg6UfDxbqgXqAARiAgW4ZQOAQuCiHjnkwdPtgoHwpXxiAARjoNwMI3EIJXL9h42FA/cAADMAADMBAOwwgcAgcI3AwAAMwAAMwAAORMYDARVZh9Fza6blQjpQjDMAADMBAzAwgcAgcvS4YgAEYgAEYgIHIGEDgIquwmHsL5J3eLgzAAAzAAAy0wwACh8DR64IBGIABGIABGIiMgbkK3M7Ojnvuuefcs88+W/mR46+99hpgRQYWPax2eliUI+UIAzAAAzBQxsDcBO7VV1/1Ynbv3j13cHBQ+bl7964P98tf/hKJQ+JgAAZgAAZgAAZgYH/fzU3gZGRN5KxO3vSYSJ6ELzNQ2XfhzHF3/MyFyuNJvAvuzPET7tzlMpOvO1YWfsJ9l8+5E5XnnjCtXty4Ul7H3XHzOXOheB3ldTI+XlUds79YvpQH5QEDMAADy83A3AROpk1V0JosJXwprCJHJ864Myeq5EwruE7S6o5p/Hkt6/JWd6zL/I45b2WdBPEunHHHj59xF3ohpV2WF2mX3rvUe/kzjXKhXGAABhowEL3AXT53wp04d9npsrqhCOShUDh1x+bd+Nblre5Yl/muP6/WhS7zOgnjhdtd5pm083qgLCgLGIABGIidgcgF7rI7pyNvftTnnLtsxcxPXSZTfSfOnStOodYdy9JIBeOCTIFqOpfTnkFy7MyZE/kokklTphfzacVAVArh7AiUXE8+NXnmgsTLt4vTxBXHCmnbPBRvVj/FqWln089pPs/JyFh4vTZ+cD1ZeUmYujoJ4skI3Imgzgpp2XOyHvvDhvzDMAzAAAy0x0DcAieykgmAEQcvAYngqETJaNDx7D20umO2cJNwmWR4OdKp2uSYjP4lQBbT3B8Ja+Pp+r7bv3DGjyAm4nM8XQ/zYMIXBEfOaY/V5cGmaddtGkn8TBQrpzjTcCqAdhq0QZ2oHGbnKVyTzRvrPOxgAAZgAAZgoIyBqAUunKLzkqajSQWRkMo3olJ3rCATJk66X0auEikMjnlhs6Np+/7LFSNhfTgzqiYSJHkuiZ9UWHCeuvyVpJHnN7gBvJxpPlQCw3OF25pG1f79kansQp2EdWDFr3Bdeh6WZTct++ACBmAABmAgYoETiVABsctUokRmstE5qWgjHXXHCiJh4vj9yRTniJTJsVp5MumUhPM3YtV+m+9C3oJrGpsHA3vhXHbk0uTTnyvc1jTq9tu60HUV22K8UMB5IGn5soQFGIABGICBegbiFbjS96dCwdLRsmRkaNop1GyatCA+RRlJBDE/X1HobFhZL5sqTfKenSuTNRs3rMzwWJK2ThsX82Di2rLz19TSCJxNN8t/WCd6LslPmH+Txyw++3iIwQAMwAAMwEDIwNwETn7XbdyP+OrPi8jvxYW/AydTg6Oyk4qaTqOaacKRLzHUHcvkIRGM5IsKyWhSJkdl8uFlSEedakSlEM7+hl0iYPqOmJ4r+8KBXleWv/3kN/B0Glb2F9K2ebDwJ1Llz1P4CZZQqMJtTaOYT0lH6mJ8nYym56dYT5zjK+OmTsOblG3ljiUswAAMwIAyMDeBk7+sIH8ia9yP+YrkSTj5yw2a6cNbjgrHdOeWdHQaEfimK0PKjXKDARiAARiAAWVgbgInGRAp+/GPf1z5d1Dlx3vl+Pz+jFZLAlc6tQiECiFLWIABGIABGICByRiYq8D1v7JmFLhsOrNqKnOyyup/eXE91BEMwAAMwAAMHAYDCBzvHs1hapqb+zBubs4BZzAAAzCwuAwgcAgcAgcDMAADMAADMBAZAwhcZBVGb2pxe1PULXULAzAAAzDQlAEEDoGj1wUDMAADMAADMBAZAwhcZBXW1MwJRy8OBmAABmAABhaXAQQOgaPXBQMwAAMwAAMwEBkDCFxkFUZvanF7U9QtdQsDMAADMNCUAQQOgSv0ut566y33/PPPu5/85Cd8KAMYgAEYWEIGpA2QtqBOJG7fvu329vbc9evX3bVr1/i0VAZSplK2dWWvxxA4BK4Aity47777rvvjH//IhzKAARiAgSVkQNoAaQtUFMKlCIaI2507d9z9+/ed/t1ylgczlYWUpfx5URHiJhKHwCFwhZtURt6QN+QVBmAABpabAWkLQnHTbRklGvd3zJG56WVOxFgEWcu7aonAIXAFSKzAVUHDft7RgAEYgIH+MdCmdNcJnIwQMfI2vaCNk1spWynjcfcYAofAFSBB4Pr3UB53E3OcOoMBGBAGDlPgxkkIx2cTPAQOOSvIWZOHPAJHQ9CEE8LACQz0jwEEbjZp6pN0InAIXIsCd8GdOX7cHTefMxeKD7ALZ46742cuBOccH4+GoFiOlAflAQMwMA0DCBwCV8aNS/8Nyg6W7WsyN3v27FlnP2E6eqxqf9XxMPys23KeWdOIJX71CJyI2Al37nLFg/XyOXfixBl35kQYJoh34Yw7fvyMu4BcLw1TsbBPPivube7VaO7V/gjctttYXXWrG9vBtzJl/5rb3G1TtNJzyfn8Z8r0dzfdWut5m/46ez8CJ2IU/rMPURU0CRPut/EOQ7DCPNj81K0fRt7qzj/psWkF7vK5E+7EuctOl/l5A4HbD7dpNPKyoiwoCxiAgekZ6JfArbm1tVW3sW0lpiuBy6Vtd3PNra5tut0De96u19u/rmgEruyGVfERcdJ1DSfbVqjCbQ3Xh2Wf81ZWPtMJ3GV3Tkfe/EjcOXc567UHwiYjcCfs8ekfVmX5Zx/lCQMwsKwMVAncH/7wB/+7YlXH5TfHJIw9Lm1BVTmKXNS/L5YKzfamWyvIVPuic3AQphludy1vkn7754xe4FTSQgkat63QSThZl6Wulx2z++rChuF0W5caV89lt3WfhpWl7tNw4bGq/RpX45dta1p1aWgYu6wXOPsOnJkGLUibkTkvcSJwJt7IO3I0Nrb8WYcHGICBaRmwAmbX33//fff000+73d3dgqRJGNknxySMjdOKwO0euO2NVbe2uZsKXyA6ftpSpz433PZBEj4ftSsJP3Za1sZJ1jc21tzqapL+QeGcdoTQxjtwxXBpXD+qt+s21zTPEl/i5duj08bTCWQUAqeCYWVE4JXtOoEL42lYC76GkX3yz56j6pgPWBJW09c0ytLT82ga9jrsPs1jVR70uMbRc2p6uq15CLc1ft1+iavh7LJe4ML325IHbThtKtv5lxnMCJyIHu+/lZa7rQPWacBhAAamYcAKWLguI2ahxKm8ybEwfFsCVxydspJk1w/cwfZGInrbG/m7c7JvbS0TQJkezWVQxaiYTnEKNZGrPE6ynQli4b03m45dN3k7SOQtT688D/WjkxqnfhmFwKmk6FKgteKhEOs+Pa7hZb/803B2qcf0uG6HadhtjV8WVsPJMf2Upa1paHgNY/fbY3rcnlOPV50njBNuh/HDtDV8mKfJBS4YYctG23SEzgjc/n7JO3I8qMM6YBsmYAAGpmEglLBw20pcnbxJvPYELhGgZGTKiFEwEua/gCCja7I/nXbd3lhzm9k0rMhT/q5bLkmJlCVfYJCRMDtaZs4no2f+nPa4HfEzYevyVkhfJczEbendu2gELgRVpSVcqnSEMiLbYRqyXRauLg09Fsa16ei6hNV/YXibFw1v9+l6eMxuy7qEk3/hftnXNA3Noy41XtVyYoErfadNplGPu+RnRooCt8+XGLK6q6oD9tN4wwAMTMNAKGxl2ypxMhon62VhWhe4dOQqmW5MJaxEphIpU1Hbdhte5GR7w20bscvlTQSqTp6CYyXnlCneZETOhC0J589Ztb82Dyp5ky2jFDgrLiodutRjVmgE8nBbwQ/32227XpaGPV61rucpi6/HbFzdp8vwmN1usl523qp4ek6NY7fter3AmXfZjh/33zqV336Tb5/aNGQ9n0YNBS49xhcZRsosLEO2acRhAAYmYaBKxsL9Dx48cPIJ99vtVkfgstEvGSHTUTQRJvt+XC44fqo0mDrd2EinWEdGuIx4jT2WnLM4haojcjadqrw1nUIN07LXrOv59RaFNNkfhcCJcOhHQLUCEoKrx3Rpj8s+u61pyX79yD75p8d0XeNpOE1Lj8u2rmtcDatxm+y3YTV8mG64refR/WV50WNVaWoaev4wDd0vy2qB40Fqy4l1eIABGOgbA1bAZl1vXeAODpx/Py0TOJ3SLPkCgB/pMqITbhdEzcpSKEUlx3xaek5zjnAUrRDO/qZdInc6ZasyKCN52TRwIS2bB7se5rW43XuBE/jDf7qv6sZQWdGlDRfuU1Gx56gLr+fW8BpW09HtqnBN9ts0NLzdF16D5sXut+ttpaF5QOBolJQFlrAAA3ExMKu02fizCVxRRspGmPq3T+RKR+Pmn/8oBK7LB0SZeE1zvrbSmebchx0HgYvrgX3YfHA++ICB/jJgBWzW9aUTOPn2a+E36+YrcQhcMPU56YNHxE0+Ei8c9Zo0rVjCI3D9fTjHwhD5hCEYmA8Ds0qbjb80ApdNldrp1PnKm4xOLr3A8RCZ/CGCwE1eZnBGmcEADPSBAStgs67XCdz169fd/fv3x/w1hvlLUP+maZuViZQtApf9OSceLk0fLlbgZn0AEP+Ptd/yonwoHxiAgb4yUCdwe3t77s6dOwhc4csUzeSsiVTevXvXiSSPa7dff/31sWEkDf03GJegHm+asIZn2Q/JfP755927776LePyRhqWvDQv5gk0Y6JYBaQOkLahql+Vvp4pgiGgwEteeuElZihhL2UoZV5W/7m/qWQjckozmvfXWW/7Gld4XH8oABmAABpaPAZE3aQtUFMqWIhgyEidTfXzaKQMRt6byJnWCwC2JmJXdgOzrx6gn9UA9wAAMwAAMTMoAAofA1fayJgWK8DyEYAAGYAAGYKB7BhA4BA6BgwEYgAEYgAEYiIwBBC6yCqNX032vhjKmjGEABmAABvrOAAKHwNHrggEYgAEYgAEYiIwBBC6yCut7j4D80WuFARiAARiAge4ZQOAQOHpdMAADMAADMAADkTHQqcBJ4nwoAxiAARiAARiAARhon4EmI50T/5Bvk0QJ0/0QK2VMGcMADMAADMDA8jKAwEU2tMrNurw3K3VP3cMADMAADCgDCBwCx/sRMAADMAADMAADkTGAwEVWYWreLOmFwQAMwAAMwMDyMoDAIXD0umAABmAABmAABiJjAIGLrMLobS1vb4u6p+5hAAZgAAaUAQQOgaPXBQMwAAMwAAMwEBkDCFxkFabmzZJeGAzAAAzAAAwsLwMIHAJHrwsGYAAGYAAGYCAyBjoRuPXhwA3XrRWvu+HgiDu5ZfatD91guD4hMCXpSIFvnXRHwvQjqwh6UYYN6m7C+4Ky4/6BARiAgWVjoBOB2w/lzAvWwB05uZU1TFsnjxS2mxV8hcDNtcHvY564kZvxRDlRTjAAAzAAA3Ey0I3AibAdOem2UrESWRuePOmOZCNuW+7kkWBErpGE9VGW+pinOGHkIUK9wQAMwAAMwEAzBroRuH0raLouojN0617U7LpOgQ7cYJB88unXRI6GwyNu4ONaWZL1QToNG+4/4k6eHGbp2ZG/ZLo1Oc+RkydHp3Z9/iTPJflJRxKTfMq1pHlI851MCVfEbSSozSoNuCknGIABGIABGFhuBiYWuNdff91VfSxM+Xtw626YjsatD9NRt8IUayJBmbQV3mdLjuUCpqKWSFIWx4uUjuilUqWjfXKugjjm7+fJyOCg7N25Qv4UED13ur0+TKeAR/dXvdtXVW7sr2aKsqFsYAAGYAAGlo0B61NV61MJXFVihf0qQbrc33f63psufXgvbDoyl8hRQf4KgpXI0pEjxffp9kcETmVO0jOCFUztFo7ZEbJ0pC0Xx9FRQj8K5yXRpC9plMW1abOevQdZ4IVyoVxgAAZgAAZgwA+SNWkfuxO4VJbW5f03/Uaq7BueLL7/5oVnEoEbuCNHjgTfYLUSZdenFLgUoGSELh2xK8lnUsDh+RIJLcQFSB5KMAADMAADMAADDRiQ0cb5Cpx/D07eIwtHw2SfFTYRoHxaMxnB0uOhHOXbMkqXj5Dl+0dH1cJj+bkSybL5S+TLFlw+Wijp2HNqWJu+7sslLs9j8Zg9B+uUDQzAAAzAAAzAgDDQA4FLpkwH5tuokjERr5F3xPzoln5pwApVKEd2O/2ygE/f7rfrAkOw7d+JS85V+SUGE6Ygm4V85tfhr0m/UFEVt4F1c/Ny88IADMAADMDAcjPQC4HrPYSV06LLDU/v6w0ZbjS8Tj1yH8MADMBAfAwgcA0aeT9yFowQAnt8sFNn1BkMwAAMwMCiMIDAlQpc8TfaCtOjpeG5IRblhuA6YBkGYAAGYCAGBhA4hIxpNhiAARiAARiAgcgYQOAiq7AYegXkkd4rDMAADMAADHTLAAKHwNHrggEYgAEYgAEYiIwBBC6yCqNH022PhvKlfGEABmAABmJgAIFD4Oh1wQAMwAAMwAAMRMYAAhdZhcXQKyCP9F5hAAZgAAZgoFsGEDgEjl4XDMAADMAADMBAZAwgcJFVGD2abns0lC/lCwMwAAMwEAMDCBwCR68LBmAABmAABmAgMgYQuMgqLIZeAXmk9woDMAADMAAD3TKAwCFw9LpgAAZgAAZgAAYiYwCBi6zC6NF026OhfClfGIABGCgycOPGDXfp0iV38eJF9/LLL/NpqQx2dnaclO20vCFwCNzU8EwLHfGKD0fKg/KAARjoKwMiGCJuu7u77v3333cPHz7k00IZSFleu3bNl+20EofAIXAIHAzAAAzAAAyUMiCjRNevX0faWpC2Mvm9cuWKH92cRuAROG7a0pt2GpiIwygCDMAADCwWAzJl+uDBAwSuI4GTspURzmnum94J3GOPPeYeeeQR9+EPf7jyI8fPnj071QVPU0jEWawHEvVJfcIADMBAMwZE4MpGjtjX3lSylPE0PPZK4L761a+6Rx991A/X/u53v3NVnzfffNOtra05kb1pLpo4zW5cyolyggEYgIHlZgCBa0/UqqR3IQRORtZEzqrEze6XOXkJX/VwWR8O3GC4Xnk8ibfuhoOj7tRW2Q1ad6ws/IT7tk65o5XnnjCtXk4DV5Tfwl/3ItQd11D1XGE/bCwbAwgcAjdGpJKHgkybWkkbty7hS28mkYSjQzc8WiVn+hCqkAwvRHXHNP68lnV5qzt2mPntSz7sNfcxTzZ/rJfez73soFBX1NVyMHD4AnferQwGbrByPpi6lf3H3Omd7oWqaqSsq/0LMQLXlsBtnTrqjp7acrqsftDUNeh1x+Z949blre7YYea7L/mw19zHPNn8sV59r1I2lA0MzIOB+QjcMXfs2MCtnLeyhsCF9d+rd+DaEbgtd0pH3vxI3Cm3ZXvwfgpv4AaDgTt66lRxCrXuWJZGKgHrMgWq6WylI4HJseHwqBsMhm5d4pg05ZzDdX0IBTJRCJfG9eeU60nOk8SXePl2cZq44lghbZsHzcu+kynn2rzpdHRlWuG12+tL8+XTCPcfdadODX19JHWiZVksu5G6yuojLJ/0mgr5lPJM86Bl5/NSETdLOy+f8MZhm7KBARhYBgbmJXCnz592x46ddjvZtz8RuJC3xRM4abiPqrQZmfONctKIq6jICN0gew+t7ph9UKUioOfwoqBTtckxGf1LCrqYZiJzNmzZ+r7bXx/6EcT9/UQw8vQ0H5KuxtV9ugyP1eVB4yTnzGRQzn80GcWU68hHMuvSSo7ledV8JNegZb7vRUrznsSx583ENxUujVesq4p8Z+Kl507DZeU5uj87dxbXpM2+8lcUKBfKBQaWhoG5CdzOQ3d+ZeCOnd5Jp1IDgds57Y5ph3yw4s4/TMLno3Yl4UemZe0I3/zWmUJNHyi5bCQNsW/47eiRipcPbxr0gvhJXHOs8LAa3Z+PXgXHvNzZ0TQ70mXC+nBmVE2glDyXxM/FUCUoFA6TruS7JI08vyauhEvLZn141J2SEUa/bSS4Nq3gvGn5HT0qI50qtGG5lsfxXyox+am9Zp+n4BzpPhnRyz4jo39aNkHcQl2b8mH/0jRYCW/UPeUAA8LAPAXu4UMrYVXrD93D8yuJ6J1fyd+dk33HjmUCuHM6X+/qXbZp00XgfAMrQmAa7WzdTGe2LnB2hCkQkqbCUxLOPzyr9lfKZShIKilVEmkfUCpq626YidvQrUsetMxK8pPLYHDt6QiajOQVR7lsOLse5N2eN6vbKmlNRgmTKebya04ao/B8yfUno3t2CtmWC+s05DAAA8vLwHwFLpGz5AsNRuAKo29pmy+ja7I/nXY9v3LM5dOwO+70sf5+AQKBk0Z+fegGKhvZiEkoWHlDXZyWk8a96pi9eZNw2ahSQWpCQSimWRwNs2GDNIO8Z+fK9tu4Nm+yHh5L0tapyGIeinH96GUwdToc6nSupp2XUTGtsvMmwiWSl1+DDWfXNX2VtGK+i3VVzLc2Lj7/frQviZufU8OH59P9dpo436fpsqRMYAAGlpWBuQvcQ5Ev+UJDKHDJtGlx1EtF7bxb8SIn2yvuvBG7Yvj5TZvafCyEwMnvusnvu437+RA5Lr8XF/4OXFEU8geOb/x1GlUkLx2ZG3kxvu5YIE/JFxUS88/kaESedDRIRwVVTiRvgUx4EdRw9jfsEhnRPOu55Fr9Pr2uLH/JNG3hWCFtm4e8jPzDyYczx8NtOUdlWsH1FK4vkehErm04u15SJk3qw4TJ358L85mXZ6HcquKaslzWhzbXHdwbMMEU+pIyMH+Be5iMrPl2W0fRRObs+3G5iPmp0mDqdGUlnWL1X4gwIlg5RZunZ0Wrq/WFEDj5ywryFxbG/ZivSJ6Ek7/ccPgNTSgd0z7oJZ3i1ObhX8u0eZ9DPC+OlBeMzIG9JW24YQ3WhIFeCNzDh07EbGB/By6cRtUvKPj9Knoqf2a7Utqs2CFwU8mV/I3Tj370o5V/B1V+akSOf+tb35oq/dkfSi0JnIz+jEz38sCoqh8/ckZ5zYl5uKzikv2wsegMHL7AHa48dTWqNkm6CzECF8eNMKPAZVOQZqqSHn6JmKTTruEXUSirkrKiEY3j2UE9UU/xMYDAdS+UCBwNOw07DMAADMAADLTKAAKHwLUKFL24+Hpx1Bl1BgMwAAPxMXDx4kX34MGD4O+Sdi81k0xBxhxWypYROHpdSDIMwAAMwAAMtMrApUuX3JUrVxC47E96tSuv165dczs7O1PVWa/+lBa9s/h6Z9QZdQYDMAADi8vAjRs3nIzCiWgwEteevElZihhL2UoZT3MPIXD01qYCZxrYiLO4D3nqlrqFgcVlQATjxRdfdE8++aR74okn+LRQBk899ZR74YUXppY3ud8QOAQOgYMBGIABGIABGIiMAQQusgqjl7u4vVzqlrqFARiAARhoygACh8DR64IBGIABGIABGIiMAQQusgprauaEoxcHAzAAAzAAA4vLAAKHwNHrggEYgAEYgAEYiIwBBC6yCqM3tbi9KeqWuoUBGIABGGjKAAKHwNHrggEYgAEYgAEYiIwBBC6yCrNmfuvWLbe3t+euX7/OhzKAARiAARiYmAFpQ6QtsW1LuH779u2srZEf9OXTThlI2UvZhuXddBuBi1jgpPLfe+89/+vY8qvOfCgDGIABGICBSRiQNkTakippEMGQQYI7d+64+/fvu4ODAz4tlIGU5d27d70MTytxCFzEAic31SQ3KmF5sMMADMAADIQMSFtSJXAidyIaiFs34ipiXFf+VfUi+xE4BA4JZPQSBmAABpaYgTqBkOlSRt66kTeRYilbKeM6Uas6hsAhcDy4l/jBHfbE2WZ0BgaWj4FxAsfoW3cCJ2WLwEUsYlV2PW6/3HQ8bJfvYUudU+cwAANtMoDAdSto4wQYgUPgkDlG0mAABmAABiZmAIFD4ApzuE3nZu0o09mzZwtpyLGm+2w6Zetl6VSlXxa/j/sYgaMX3mYvnLTgCQaWk4FeCNz2hltdXU0/G2679pue225jdc1t7s5XvMaNrDU9vhAjcCJZ8s/KUtN9Nk7Zelk6Gi48p+7velkllU3Pi8At58OWRpZ6hwEYaJOBuQvc7qZbWzXStrvpNrfr5GwWgZslbl2epj+2EAIn4mKlRtd1aY9PKl2SxqRxmorUtOFmzRMCx0O8zYc4acETDMTPgHyr8caNG5XTqHJMwti6nrvAyejb2qbbrR11s4I0i4TNEtfmob31hRI4FS0VHF2qwOlx3Zbj8rEipdt2qfF0n8bXeLpflrquxzSsHis7rmE1jG7buLpPw+gy3G+3dT1cInDxP2ztQ5R16hMGYGBWBuSHeZ966in329/+tiBpkq7sk2PhD8DPXeAORKpW3drm7ujvzfnRuXBqNZCw0jAiWLtuc03jrrqN7eQ82VTtxvbo+RpLJAJXkC4RFBEaK1qyXrZPw8pS/0k4lRwrRjYNDSP7NA27bo/ruoYLz6Xx9Jxl4cJ9YZqShv7TY7qtcWXbnkPXETge0ufDQQAAF85JREFU9rM+7IkPQzCweAzcu3dvROJU3uRYWOfzF7iibG1k06eBqG1vpJJn99v1A3eQhUnkbVQKg/BzELbw3biFGYFTadGlyIuIjS5lv/yzx2U93NY4NqwVpKZxbHxdD8+laelSz2O3ZZ9+NB3Z1nUbVtd1GYbR/Qjc4j14wwcr29QxDMDANAxYiauTN0m7HwKXjmilo2le4goja+lImh81MxJWFcbvN+/VZaJm4mb72htNC+WsyfbCCZxIiwpOuFSB0f1l22XHwn0Sz+6z65Mc0/PbpaSl25qut7X0vzB9Dav77XbVOgLHg32aBztx4AYGloMBlTiZNi0beVMOeiVwBwdud3PNrYqoNZGwqjBV+/10bb++wbpQAmclRkefVIh0W8NUbas0qfzotqYT7p8kPUlD09N0wqU9btdtuCb7JYyNY9cRuOV4COtDliX1DQMwMCkDv//975186uLNXeC2N81PgtipTxktK3s3zo6iVYWx6dgRNhtX9tvtqnUbv/31hRS4KjmzEiOCox/Zr3FCObLbsq5phPs1vhy3x3Rb44bHbHoaJkxL9uuxsvD2uMaVfbqucXSJwPEwr3socww+YAAGmjAwd4FLv8RQ+uUCP5KWfxHBj8wVpOsgHakLw6ic5fv13brtjYrp2EK6VubalzY7tbpwAieSEopLuK0i4wOm/+m+cfFtWlXrVWlI+DqxSrOSSaLmSffb8+k5dJ+G0Th63G7rOgLHw7nJw5kwcAIDMFDHwPwFrltBsrLUx/WFFDgVlT4u6wTusPKLwPFQrnsocww+YAAGmjCAwM1XIBG4jv8Wqk5v6lIkTUfNDkvYwvMgcDycmzycCQMnMAADdQwgcAhcYcpwmr+FGgoK28nPo1SVAwLHQ7nuocwx+IABGGjCQJ3AyTH5yw19nHpchDxJ2TIC1/EIXJVEzXM/AsfDucnDmTBwAgMwUMdAncDt7e25O3fuIHAd/Wbc3bt3a3+Hr84xmg6U6bv1g7rE7LGmCds4rNePuIXlIzdW+CdR6m5SjvEQhwEYgAEYsAxIGyJtSdi+6Pbt27e9YIhoMBLX3lSrlKWIscizlLGW9yTLpp6FwPVwhO/WrVv+xhMA+FAGMAADMAADkzIg8iZtSZ04iGBIOJnq49NOGWg9TStvUl8IXA/FrO5G4thko5SUF+UFAzAAAzCwiAwgcAhcbc9rEaHnmniYwwAMwAAMxM4AAofAIXAwAAMwAAMwAAORMYDARVZhsfcYyD+9XhiAARiAARiYnQEEDoGj1wUDMAADMAADMBAZAwhcZBVGr2X2XgtlSBnCAAzAAAzEzgACh8DR64IBGIABGIABGIiMAQQusgqLvcdA/un1wgAMwAAMwMDsDCBwCBy9LhiAARiAARiAgcgYQOAiqzB6LbP3WihDyhAGYAAGYCB2BhA4BI5eFwzAAAzAAAzAQGQMIHCRVVjsPQbyT68XBmAABmAABmZnoFOBk8T5UAYwAAMwAAMwAAMw0D4DTUTYpf8GTQITZnazpgwpQxiAARiAARiAgVkZQOCYauX9CBiAARiAARiAgcgYQOAiq7BZjZ349PpgAAZgAAZgIH4GEDgEjl4XDMAADMAADMBAZAwgcJFVGL2m+HtN1CF1CAMwAAMwMCsDCBwCR68LBmAABmAABmAgMgYQuMgqbFZjJz69PhiAARiAARiInwEEDoGj1wUDMAADMAADMBAZAwhcZBVGryn+XhN1SB3CAAzAAAzMygACh8DR64IBGIABGIABGIiMAQQusgqb1diJT68PBmAABmAABuJnAIFD4Oh1wQAMwAAMwAAMRMYAAhdZhdFrir/XRB1ShzAAAzAAA7MygMAhcPS6YAAGYAAGYAAGImMAgYuswmY1duLT64MBGIABGICB+BlA4BA4el0wAAMwAAMwAAORMYDARVZh9Jri7zVRh9QhDMAADMDArAwgcAgcvS4YgAEYgAEYgIHIGEDgIquwWY2d+PT6YAAGYAAGYCB+BhA4BI5eFwzAAAzAAAzAQGQMIHCRVRi9pvh7TdQhdQgDMAADMDArAwgcAkevCwZgAAZgAAZgIDIGELjIKmxWYyc+vT4YgAEYgAEYiJ8BBA6Bo9cFAzAAAzAAAzAQGQMIXGQVRq8p/l4TdUgdwgAMwAAMzMoAAofA0euCARiAARiAARiIjAEELrIKm9XYiU+vDwZgAAZgAAbiZwCBQ+DodcEADMAADMAADETGAAIXWYXRa4q/10QdUocwAAMwAAOzMoDAIXD0umAABmAABmAABiJjAIGLrMJmNXbi0+uDARiAARiAgfgZQOAQOHpdMAADMAADMAADkTGAwEVWYfSa4u81UYfUIQzAAAzAwKwMIHAIHL0uGIABGIABGICByBhA4CKrsFmNnfj0+mAABmAABmAgfgYQOASOXhcMwAAMwAAMwEBkDCBwkVUYvab4e03UIXUIAzAAAzAwKwMIHAJHrwsGYAAGYAAGYCAyBhC4yCpsVmMnPr0+GIABGIABGIifAQQOgaPXBQMwAAMwAAMwEBkDCFxkFUavKf5eE3VIHcIADMAADMzKAAKHwNHrggEYgAEYgAEYiIwBBC6yCpvV2IlPrw8GYAAGYAAG4mcAgUPg6HXBAAzAAAzAAAxExgACF1mF0WuKv9dEHVKHMAADMAADszKAwCFw9LpgAAZgAAZgAAYiYwCBi6zCZjV24tPrgwEYgAEYgIH4GUDgEDh6XTAAAzAAAzAAA5ExgMBFVmH0muLvNVGH1CEMwAAMwMCsDCBwCBy9LhiAARiAARiAgcgYQOAiq7BZjZ349PpgAAZgAAZgIH4GEDgEjl4XDMAADMAADMBAZAwgcJFVGL2m+HtN1CF1CAMwAAMwMCsDCBwCR68LBmAABmAABmAgMgYQuMgqbFZjJz69PhiAARiAARiInwEEDoGj1wUDMAADMAADMBAZAwhcZBVGryn+XhN1SB3CAAzAAAzMygACh8DR64IBGIABGIABGIiMAQQusgqb1diJT68PBmAABmAABuJnAIFD4Oh1wQAMwAAMwAAMRMZAJnBnz551fCgDGIABGIABGIABGOg/A5nA6QpLSoASoAQoAUqAEqAEKIE4SmDAfHj88+HUIXUIAzAAAzAAA8vBgOolAhfZ3Dc36HLcoNQz9QwDMAADMFDGAAKHuPHiKgzAAAzAAAzAQGQMIHCRVViZhbOP3hkMwAAMwAAMLBcDCBwCR68LBmAABmAABmAgMgYQuMgqjB7WcvWwqG/qGwZgAAZgoIwBBA6Bo9cFAzAAAzAAAzAQGQMIXGQVVmbh7KN3BgMwAAMwAAPLxQACh8DR64IBGIABGIABGIiMAQQusgqjh7VcPSzqm/qGARiAARgoYwCBQ+DodcEADMAADMAADETGAAIXWYWVWTj76J3BAAzAAAzAwHIxgMAhcPS6YAAGYAAGYAAGImMAgYuswuhhLVcPi/qmvmEABmAABsoY6FTgbt665X7001fc57/yHffxk2fcn/yX0+4jH/+c+8Snv+Ie/fr/dT/d+gXGj0DCwAQM3L592+3t7bnr16+7a9eu8WmpDKRMpWzDh+SNGzfcpUuX3MWLF93LL7/Mp6Uy2NnZcVK2YXlXbV9886b74Bcvuw986lU3+Pg2n5bK4ENfecNJ2VaVe7if+6GbZ8Ck94PWS2cC98yFl9zxv/yC+9Tff809sfm8e+PNd9zNW/vu+o1b7vKv3naP//A5L3Uidi+8/FpjgDTjLOmRLBsDIhgibnfu3HH37993BwcHfFooAynLu3fvehm2EieNlYjb7u6ue//9993Dhw/5tFAGUpbS+ZCybSJxIhgibn/15DV38x710BaHUpafeXbPfeCvXm0kcdwP3dz/k94Ptt1rXeBk1O3sYz/w8vbyL153Dx488J+7v3vXi9tv3t51792/n+2/8OIv/Mjc//n+s0jcBCMxthJZXw6ZlVEiEQ3ErRtxFTEWQdb7SXrFst1Wg0k6xQbwypUrfnRTy7tq+aF/fMOdfvYG9dCCPJcx+MknrvrRzary1/3cD0V+y8pyln1N7wetD1nqv4HdOcv6l//XefffPvNPbv/OXT9KIKNuX/ra4+5ff+SE+1d/8t/9R9Yf/cZ33Y2bt32Ya3s33Z+uPuqQuOUQkVn4Wua4MmrByFs38iZSLGUrZayMyZSpdEBneSgTt7rRk7KVUTgt76qlTJky8lZdjrMydvPeAz8KV1X+up/7obs6kDpsej9ofchS/7UicE9u/sz9x09+0d3ev+Pee+899+69e17MVNzCpUyfShgJe/X6Dbfyp59hOpVRuLEPdAvwMq2LXDD61p3ASdmGAjdr40j8+kZPpGDcPSwCRznWl+Os5SNlPK4epK5mPQ/x6+uxyf1g66k1gdvbu+H+/Z991r2282t37949/zn3wx9no25f+eb33K9+81v30s93/JcYVOZ++P9+loV/9qevuD/7638YC5K9ANYZtVsWBhC4buUNgatvXLpofJs0WAhc9/WCwHVfxk3unyb3g23vWhO47z11wf3tlx5z7777bvb59Be+6QXuz099Odsnx1945VImdl/6p8cLx0Tg+HYqUmYhZT3hAYFD4Jo0AjGFadJgIXDdywUC130ZN7kvm9wPtj1sTeD++nPfcJsXXvIvWcuL1vJ58ZVL/r22cP8/P/N8JnDyzpyGl+V3zj/jf2LEZpJ1hA4G9v30Xj+nULfdxuqqWzWfje1pZUvSWnObu9PGny3e/KZQz7uVwcANVs4H01Sy/5g7vdOPBqZJIzRJmCYN1nwELq0PqZP0c+z0jnu4c9oda1IfY8P1q177K3A77vSxvA4Gx067nY6+zDHK7eHXUZP7wbaFrQmcvL+2ezX5iQP5NlfV55VfXPbvuukU6vZrrxfCyraM2NlMso7AwUDfBc5I1+6mW1vdcNtT/cTHMgvcMXfs2MCtnLeyNksjMktcm4fu1ps0WPMTuC7FuV9100uB8xIc3A87p93pwv3RHZsPHx5+HTW5H2xb2JrA/ZtHTo6VLvm9Nwkn8ibfRP32dzdH4rz59jv+XTqbSdYROBiYv8BtbxhJK8hZKF3h9iSjYrPEneQ85WHnOwJ3zJ0+f9odK4wyzNKI1MWVkY0Vd/7QRjPKG9omDRYCV152oyNG04frn8AlI2/Fzsz01zddWdXdP93kpcn9YNvC1gTu3x3/tLt161bt56Of+LyXt3/7sVPuxz97pTTsW2+/40fobCZZR+BgYI4Ct73hp0erp0UD6ZLwG9vZN2a3N8z0qtl/cLDrNtfyY0n6Ni1ZXy2k1fUU8twFbuehO78ycH66zstV0IikoxLJtJ4IWNLQZeHPr7hkmknimamnkalZaYDSMKXHummgwoa0SYPVL4Gz9ZGun14pTrOO1FtxGjCRkjSuCLudop2TUPdO4Dzn9R0MuU90ejt/9aCuToTpsrp4mE6Na3p6XlvX/bkfbFvYmsB9+D/9nbuye9XdvHmz9HN9by977+17//xcaRiJe/HVHb6Jyk+JjIzMWmiXdf3Qv8Tgp0KbCFQqWtk7cFXTp1bOEnlb29zNRC+RMw2THK+WxvIRtFkFrw8CV5y6sY2IXX/oHp5fSUVP9kujo0ttbILwVXIg0jcIpqqqwra8v98Cpw16siyIl38nUcrXvLfoy7Gk8Zf9I5KcxtXR1kJcrb/DW/ZS4LRsxjJnOa+rk6Czk6Vr44f3VZfT6KP12+R+sO1fawL3yb/9qnv2Jy/5v9Movxgffn55+VeZwMl6eFy3z/3gGfe5L3+bBhyJg4GAgcMWuGTkrGra1AqUSle6z4ufiZeO4CVfckj3V74nl6S1trbqRuXOnrOb9X4IXNKIJI2+aVwKo2+pXKgYlEqYiZs1VqONRj4qofJRFqabfU0arN6PwGVfMLHlbdbTestGSX1dmOOl292UdzgCqtu9FDjfKakph5T5ZBRORaumXKtG9SrvqzCtmrzU3l/N4zW5HzoRuHM/+JE7/Q/r/k/PyJ+fCT+7V6+6Sztv+I+sh8d1+7/+zT+6H/30FRrvoPG2lcb6ck4pH7bAJaNZOs1ZNaomIhUIXDo16kfPCqImaTURuFW3trZ2qFOnOnLXG4FLp3pWzptGpKoBksZjKoHT6SRt/Jo3NNrwz7ps0mBFL3Bp475z+pgZ6TT1isAF37wWDhM2K9+BK9wLElYZrinXQhzDetX+ZfoSw5Xda06mUX/+i1+6q1evln6+9tj33efObLhf/frN0uMygvexv/gfTv6eKpKynJJCvVfX+3wETke6QknT/SUCZ0fgZPRtbdPtypce7P5U8kZH2fLzyAjg6HF73vbX+yNw9r0c2zjZ9+O0EZJGa9IpVNvoaTqHv1wmgRPZFYlLRuJqRKOl0ZxJ5Lp3I3BVnRL9Fqp0WHSK1QuYvUd0XXi25ZxIYXEkVMNU3Vc2re7vjyb3g20jW5tClUS/871n3J+fPON++847bnd3t/B59OuPZ1Oo55/8UeGYhP3Nm2+5Rz7xeffMhZeQN0bfYKCEgfkKXJ0siXTlX0ZYLfyOm47grbrVtQ23oSNw/lusxXijX2JI46oAFr75Wpef6Y/1SuDSBn9gf3fMN1bm3ayV0/53srRR8qM82rA9TL4Q4aeYdKp1DnJQJxJNGqzoR+AKU306TW3FQiXicGXB1ksvBU5YDXnP2E5kzLN9bMWtNBmB8+xLuef3TzbCF57H3y9hHS24wInE/d2XHnN/88Vvurfeftu988472WfzuRfdRz7+Wfe1//39bJ8e/9Wvf+Nk6vSr3/o+DXdJw22Nm/XqEapFL5v+Ctz0wqRTl31Zzk/gum8cbIPdl/X+Ctxy1UdvBa5nHY6u75sm94Nt51odgZOEr13f8xInI3Gv/Py1EVlTadPlz1686P7DX37Bnfmf32XqFHlD4GsYQOC6F0UE7nDFpUmDNZ8RuMMth67FYFz6CFw/6rvJ/dCpwGniMp0q78T9/dpj7l9+9LyTUTaVttff+LX7wdPPuZOf/4b/0d4nN39Gw13TcGuZslze0TepewQOgRvXEMd2vEmDhcB1LxcIXPdl3OTebHI/WA9ofQTOJi5fbJBvp8r0qMic/ICv/CUG+bNbJz77dfe9py64vb0byBvyBgMNGJBvat+/fz/43bTupaYv05td50PK1o7AXbx40T148KDkG3L9eNg3aRD6HEbKtkmD9YFPvepu3nufeuhoOvHmvQeuicBxP3R73ze9H6xjdSpw9kSyzrdLl3sEKeSB7cl4kN9KlL8x3LXILGv6d+/e9T9vpFxeunTJXblyBXHoSBxElnd2dsZ23j74xcvuk09cox46qofPPLPnPvSVN8bWA/dDtwLX9H7Q55Ms9d/A7mR9soaV8qK8DoOB27dve8EQ0WAkrr2RRylLEWMZ4ZQy1rq8ceOGk1EHebAyEtde4yVlKWIsZStlrOVdtbz45g0no3CfeXaPkbgWJU5GNT/5xFVftlLGVeWv+7kf2rsH7Mj4pPeD1ocs9R8C12AKyxYc60jbPBgQwZCROJEKPu2Ugf6IuJU3rVtptF588UX35JNPuieeeIJPC2Xw1FNPuRdeeKGRvGk9iGB86Isvu8HH/sUNHnmaTwtl8IH/vOk+ePol10TetB64H9p/BkxzP2h9IHCI29iel8LCEmmFARiAARiAgX4wgMAhcAgcDMAADMAADMBAZAwgcJFVGD2ffvR8qAfqAQZgAAZgYJ4MIHAIHL0uGIABGIABGICByBhA4CKrsHnaPuemtwkDMAADMAAD/WAAgUPg6HXBAAzAAAzAAAxExgACF1mF0fPpR8+HeqAeYAAGYAAG5slAJnBXr17FvpE5GIABGIABGIABGIiAgUzgmvxJk3maJuempwMDMAADMAADMAADCQOZwMkvY1Mo3BgwAAMwAAMwAAMw0H8GMoH79re/7d555x0kLoJhU26s/t9Y1BF1BAMwAAMw0BUD8veE9d/g6aefdvLp6mSkC8gwAAMwAAMwAAMwMDsD4mv6b7C1teW++93vOvnDqozEzV64AEoZwgAMwAAMwAAMtMmA+Jl42uOPP67+5gYvvfSSk/fg5MDGxoZ7/vnnnXyxgW+nAl+b8JEWPMEADMAADMBAcwbEw8THxMvEz8TTxNf03/8H/g62c7AuQLQAAAAASUVORK5CYII=;imageBorder=default;" vertex="1" parent="1">
          <mxGeometry x="718.6" y="170" width="572.95" height="653.74" as="geometry" />
        </mxCell>
        <mxCell id="9snhWBf093I3BnCHHLgs-66" value="" style="verticalLabelPosition=bottom;verticalAlign=top;html=1;shape=mxgraph.basic.rect;fillColor2=none;strokeWidth=1;size=20;indent=5;fillColor=none;strokeColor=#FF3333;" vertex="1" parent="1">
          <mxGeometry x="1010" y="780" width="90" height="30" as="geometry" />
        </mxCell>
      </root>
    </mxGraphModel>
  </diagram>
</mxfile>
